Varta-SemiBold.ufo
<glyph name="quotedbl" format="1">
  <advance width="914"/>
  <unicode hex="0022"/>
  <outline>
	<contour>
	  <point x="207" y="829" type="line"/>
	  <point x="320" y="829" type="line"/>
	  <point x="358" y="1208" type="line"/>
	  <point x="365" y="1412" type="line"/>
	  <point x="163" y="1412" type="line"/>
	  <point x="169" y="1208" type="line"/>
	</contour>
	<contour>
	  <point x="590" y="829" type="line"/>
	  <point x="706" y="829" type="line"/>
	  <point x="743" y="1208" type="line"/>
	  <point x="749" y="1412" type="line"/>
	  <point x="547" y="1412" type="line"/>
	  <point x="552" y="1208" type="line"/>
	</contour>
  </outline>
</glyph>
<glyph name="quotesingle" format="1">
  <advance width="529"/>
  <unicode hex="0027"/>
  <outline>
	<contour>
	  <point x="207" y="829" type="line"/>
	  <point x="320" y="829" type="line"/>
	  <point x="358" y="1208" type="line"/>
	  <point x="365" y="1412" type="line"/>
	  <point x="163" y="1412" type="line"/>
	  <point x="169" y="1208" type="line"/>
	</contour>
  </outline>
</glyph>
<glyph name="parenleft" format="1">
  <advance width="636"/>
  <unicode hex="0028"/>
  <outline>
	<contour>
	  <point x="434" y="-361" type="curve"/>
	  <point x="555" y="-307" type="line"/>
	  <point x="398" y="-46"/>
	  <point x="326" y="234"/>
	  <point x="326" y="567" type="curve" smooth="yes"/>
	  <point x="326" y="903"/>
	  <point x="398" y="1185"/>
	  <point x="555" y="1446" type="curve"/>
	  <point x="434" y="1500" type="line"/>
	  <point x="264" y="1225"/>
	  <point x="164" y="960"/>
	  <point x="164" y="567" type="curve" smooth="yes"/>
	  <point x="164" y="175"/>
	  <point x="264" y="-86"/>
	</contour>
  </outline>
</glyph>
<glyph name="parenright" format="1">
  <advance width="636"/>
  <unicode hex="0029"/>
  <outline>
	<contour>
	  <point x="82" y="-307" type="curve"/>
	  <point x="201" y="-361" type="line"/>
	  <point x="372" y="-86"/>
	  <point x="472" y="209"/>
	  <point x="472" y="569" type="curve" smooth="yes"/>
	  <point x="472" y="930"/>
	  <point x="372" y="1225"/>
	  <point x="201" y="1500" type="curve"/>
	  <point x="82" y="1446" type="line"/>
	  <point x="239" y="1185"/>
	  <point x="313" y="877"/>
	  <point x="313" y="569" type="curve" smooth="yes"/>
	  <point x="313" y="262"/>
	  <point x="239" y="-46"/>
	</contour>
  </outline>
</glyph>
<glyph name="plus" format="1">
  <advance width="1030"/>
  <unicode hex="002B"/>
  <outline>
	<contour>
	  <point x="440" y="209" type="line"/>
	  <point x="589" y="209" type="line"/>
	  <point x="589" y="604" type="line"/>
	  <point x="960" y="604" type="line"/>
	  <point x="960" y="747" type="line"/>
	  <point x="589" y="747" type="line"/>
	  <point x="589" y="1143" type="line"/>
	  <point x="440" y="1143" type="line"/>
	  <point x="440" y="747" type="line"/>
	  <point x="70" y="747" type="line"/>
	  <point x="70" y="604" type="line"/>
	  <point x="440" y="604" type="line"/>
	</contour>
  </outline>
</glyph>
<glyph name="comma" format="1">
  <advance width="529"/>
  <unicode hex="002C"/>
  <outline>
	<contour>
	  <point x="140" y="-377" type="line"/>
	  <point x="320" y="-308"/>
	  <point x="428" y="-144"/>
	  <point x="428" y="41" type="curve" smooth="yes"/>
	  <point x="428" y="174"/>
	  <point x="370" y="255"/>
	  <point x="273" y="255" type="curve" smooth="yes"/>
	  <point x="200" y="255"/>
	  <point x="137" y="206"/>
	  <point x="137" y="127" type="curve" smooth="yes"/>
	  <point x="137" y="45"/>
	  <point x="198" y="1"/>
	  <point x="269" y="1" type="curve" smooth="yes"/>
	  <point x="275" y="1"/>
	  <point x="282" y="1"/>
	  <point x="289" y="2" type="curve"/>
	  <point x="289" y="-108"/>
	  <point x="217" y="-216"/>
	  <point x="96" y="-268" type="curve"/>
	</contour>
  </outline>
</glyph>
<glyph name="hyphen" format="1">
  <advance width="645"/>
  <unicode hex="002D"/>
  <outline>
	<contour>
	  <point x="85" y="442" type="line"/>
	  <point x="562" y="442" type="line"/>
	  <point x="562" y="587" type="line"/>
	  <point x="85" y="587" type="line"/>
	</contour>
  </outline>
</glyph>
<glyph name="period" format="1">
  <advance width="529"/>
  <unicode hex="002E"/>
  <outline>
	<contour>
	  <point x="132" y="113" type="curve" smooth="yes"/>
	  <point x="132" y="34"/>
	  <point x="191" y="-25"/>
	  <point x="265" y="-25" type="curve" smooth="yes"/>
	  <point x="338" y="-25"/>
	  <point x="398" y="34"/>
	  <point x="398" y="113" type="curve" smooth="yes"/>
	  <point x="398" y="197"/>
	  <point x="338" y="255"/>
	  <point x="265" y="255" type="curve" smooth="yes"/>
	  <point x="191" y="255"/>
	  <point x="132" y="197"/>
	</contour>
  </outline>
</glyph>
<glyph name="slash" format="1">
  <advance width="713"/>
  <unicode hex="002F"/>
  <outline>
	<contour>
	  <point x="21" y="-328" type="line"/>
	  <point x="159" y="-328" type="line"/>
	  <point x="680" y="1454" type="line"/>
	  <point x="543" y="1454" type="line"/>
	</contour>
  </outline>
</glyph>
<glyph name="colon" format="1">
  <advance width="529"/>
  <unicode hex="003A"/>
  <outline>
	<contour>
	  <point x="132" y="839" type="curve" smooth="yes"/>
	  <point x="132" y="758"/>
	  <point x="191" y="701"/>
	  <point x="265" y="701" type="curve" smooth="yes"/>
	  <point x="338" y="701"/>
	  <point x="398" y="758"/>
	  <point x="398" y="839" type="curve" smooth="yes"/>
	  <point x="398" y="923"/>
	  <point x="338" y="980"/>
	  <point x="265" y="980" type="curve" smooth="yes"/>
	  <point x="191" y="980"/>
	  <point x="132" y="923"/>
	</contour>
	<contour>
	  <point x="132" y="113" type="curve" smooth="yes"/>
	  <point x="132" y="34"/>
	  <point x="191" y="-25"/>
	  <point x="265" y="-25" type="curve" smooth="yes"/>
	  <point x="338" y="-25"/>
	  <point x="398" y="34"/>
	  <point x="398" y="113" type="curve" smooth="yes"/>
	  <point x="398" y="197"/>
	  <point x="338" y="255"/>
	  <point x="265" y="255" type="curve" smooth="yes"/>
	  <point x="191" y="255"/>
	  <point x="132" y="197"/>
	</contour>
  </outline>
</glyph>
<glyph name="semicolon" format="1">
  <advance width="529"/>
  <unicode hex="003B"/>
  <outline>
	<contour>
	  <point x="265" y="701" type="curve" smooth="yes"/>
	  <point x="338" y="701"/>
	  <point x="398" y="758"/>
	  <point x="398" y="839" type="curve" smooth="yes"/>
	  <point x="398" y="923"/>
	  <point x="338" y="980"/>
	  <point x="265" y="980" type="curve" smooth="yes"/>
	  <point x="191" y="980"/>
	  <point x="132" y="923"/>
	  <point x="132" y="839" type="curve" smooth="yes"/>
	  <point x="132" y="758"/>
	  <point x="191" y="701"/>
	</contour>
	<contour>
	  <point x="140" y="-357" type="line"/>
	  <point x="320" y="-288"/>
	  <point x="428" y="-144"/>
	  <point x="428" y="41" type="curve" smooth="yes"/>
	  <point x="428" y="174"/>
	  <point x="370" y="255"/>
	  <point x="273" y="255" type="curve" smooth="yes"/>
	  <point x="200" y="255"/>
	  <point x="137" y="206"/>
	  <point x="137" y="127" type="curve" smooth="yes"/>
	  <point x="137" y="45"/>
	  <point x="198" y="1"/>
	  <point x="269" y="1" type="curve" smooth="yes"/>
	  <point x="275" y="1"/>
	  <point x="282" y="1"/>
	  <point x="289" y="2" type="curve"/>
	  <point x="289" y="-108"/>
	  <point x="217" y="-196"/>
	  <point x="96" y="-248" type="curve"/>
	</contour>
  </outline>
</glyph>
<glyph name="less" format="1">
  <advance width="1030"/>
  <unicode hex="003C"/>
  <outline>
	<contour>
	  <point x="70" y="605" type="line"/>
	  <point x="960" y="258" type="line"/>
	  <point x="960" y="423" type="line"/>
	  <point x="541" y="574" type="line"/>
	  <point x="266" y="676" type="line"/>
	  <point x="266" y="684" type="line"/>
	  <point x="541" y="785" type="line"/>
	  <point x="960" y="937" type="line"/>
	  <point x="960" y="1102" type="line"/>
	  <point x="70" y="755" type="line"/>
	</contour>
  </outline>
</glyph>
<glyph name="equal" format="1">
  <advance width="1030"/>
  <unicode hex="003D"/>
  <outline>
	<contour>
	  <point x="70" y="827" type="line"/>
	  <point x="960" y="827" type="line"/>
	  <point x="960" y="969" type="line"/>
	  <point x="70" y="969" type="line"/>
	</contour>
	<contour>
	  <point x="70" y="382" type="line"/>
	  <point x="960" y="382" type="line"/>
	  <point x="960" y="524" type="line"/>
	  <point x="70" y="524" type="line"/>
	</contour>
  </outline>
</glyph>
<glyph name="greater" format="1">
  <advance width="1030"/>
  <unicode hex="003E"/>
  <outline>
	<contour>
	  <point x="960" y="755" type="line"/>
	  <point x="70" y="1102" type="line"/>
	  <point x="70" y="937" type="line"/>
	  <point x="489" y="785" type="line"/>
	  <point x="763" y="684" type="line"/>
	  <point x="763" y="676" type="line"/>
	  <point x="489" y="574" type="line"/>
	  <point x="70" y="423" type="line"/>
	  <point x="70" y="258" type="line"/>
	  <point x="960" y="605" type="line"/>
	</contour>
  </outline>
</glyph>
<glyph name="question" format="1">
  <advance width="884"/>
  <unicode hex="003F"/>
  <outline>
	<contour>
	  <point x="326" y="418" type="curve"/>
	  <point x="494" y="418" type="line"/>
	  <point x="453" y="705"/>
	  <point x="788" y="760"/>
	  <point x="788" y="1070" type="curve" smooth="yes"/>
	  <point x="788" y="1299"/>
	  <point x="654" y="1397"/>
	  <point x="430" y="1397" type="curve" smooth="yes"/>
	  <point x="286" y="1397"/>
	  <point x="160" y="1335"/>
	  <point x="73" y="1235" type="curve"/>
	  <point x="181" y="1127" type="line"/>
	  <point x="244" y="1197"/>
	  <point x="315" y="1235"/>
	  <point x="411" y="1235" type="curve" smooth="yes"/>
	  <point x="539" y="1235"/>
	  <point x="602" y="1183"/>
	  <point x="602" y="1059" type="curve" smooth="yes"/>
	  <point x="602" y="808"/>
	  <point x="271" y="746"/>
	</contour>
	<contour>
	  <point x="284" y="113" type="curve" smooth="yes"/>
	  <point x="284" y="34"/>
	  <point x="341" y="-25"/>
	  <point x="415" y="-25" type="curve" smooth="yes"/>
	  <point x="489" y="-25"/>
	  <point x="549" y="34"/>
	  <point x="549" y="113" type="curve" smooth="yes"/>
	  <point x="549" y="197"/>
	  <point x="489" y="255"/>
	  <point x="415" y="255" type="curve" smooth="yes"/>
	  <point x="341" y="255"/>
	  <point x="284" y="197"/>
	</contour>
  </outline>
</glyph>
<glyph name="B" format="1">
  <advance width="1202"/>
  <unicode hex="0042"/>
  <outline>
	<contour>
	  <point x="174" y="0" type="line"/>
	  <point x="623" y="0" type="line"/>
	  <point x="920" y="0"/>
	  <point x="1126" y="126"/>
	  <point x="1126" y="397" type="curve" smooth="yes"/>
	  <point x="1126" y="583"/>
	  <point x="1014" y="698"/>
	  <point x="819" y="714" type="curve"/>
	  <point x="819" y="722" type="line"/>
	  <point x="989" y="757"/>
	  <point x="1052" y="885"/>
	  <point x="1052" y="1018" type="curve" smooth="yes"/>
	  <point x="1052" y="1262"/>
	  <point x="869" y="1342"/>
	  <point x="593" y="1342" type="curve" smooth="yes"/>
	  <point x="174" y="1342" type="line"/>
	</contour>
	<contour>
	  <point x="370" y="775" type="line"/>
	  <point x="370" y="1189" type="line"/>
	  <point x="576" y="1189" type="line"/>
	  <point x="770" y="1189"/>
	  <point x="861" y="1137"/>
	  <point x="861" y="997" type="curve" smooth="yes"/>
	  <point x="861" y="854"/>
	  <point x="777" y="775"/>
	  <point x="565" y="775" type="curve" smooth="yes"/>
	</contour>
	<contour>
	  <point x="370" y="153" type="line"/>
	  <point x="370" y="632" type="line"/>
	  <point x="601" y="632" type="line"/>
	  <point x="823" y="632"/>
	  <point x="935" y="567"/>
	  <point x="935" y="408" type="curve" smooth="yes"/>
	  <point x="935" y="233"/>
	  <point x="816" y="153"/>
	  <point x="599" y="153" type="curve" smooth="yes"/>
	</contour>
	<contour>
	  <point x="619" y="-45" type="move" name="mark0"/>
	</contour>
  </outline>
</glyph>
<glyph name="C" format="1">
  <advance width="1164"/>
  <unicode hex="0043"/>
  <outline>
	<contour>
	  <point x="99" y="669" type="curve" smooth="yes"/>
	  <point x="99" y="217"/>
	  <point x="350" y="-25"/>
	  <point x="690" y="-25" type="curve" smooth="yes"/>
	  <point x="859" y="-25"/>
	  <point x="996" y="44"/>
	  <point x="1102" y="168" type="curve"/>
	  <point x="993" y="286" type="line"/>
	  <point x="910" y="195"/>
	  <point x="818" y="145"/>
	  <point x="694" y="145" type="curve" smooth="yes"/>
	  <point x="449" y="145"/>
	  <point x="299" y="339"/>
	  <point x="299" y="676" type="curve" smooth="yes"/>
	  <point x="299" y="1008"/>
	  <point x="459" y="1197"/>
	  <point x="702" y="1197" type="curve" smooth="yes"/>
	  <point x="810" y="1197"/>
	  <point x="898" y="1152"/>
	  <point x="969" y="1080" type="curve"/>
	  <point x="1077" y="1202" type="line"/>
	  <point x="996" y="1291"/>
	  <point x="860" y="1367"/>
	  <point x="699" y="1367" type="curve" smooth="yes"/>
	  <point x="355" y="1367"/>
	  <point x="99" y="1118"/>
	</contour>
	<contour>
	  <point x="701" y="-45" type="move" name="mark0"/>
	</contour>
  </outline>
</glyph>
<glyph name="D" format="1">
  <advance width="1261"/>
  <unicode hex="0044"/>
  <outline>
	<contour>
	  <point x="174" y="0" type="line"/>
	  <point x="533" y="0" type="line"/>
	  <point x="936" y="0"/>
	  <point x="1158" y="238"/>
	  <point x="1158" y="679" type="curve" smooth="yes"/>
	  <point x="1158" y="1121"/>
	  <point x="946" y="1342"/>
	  <point x="531" y="1342" type="curve" smooth="yes"/>
	  <point x="174" y="1342" type="line"/>
	</contour>
	<contour>
	  <point x="370" y="158" type="line"/>
	  <point x="370" y="1183" type="line"/>
	  <point x="519" y="1183" type="line"/>
	  <point x="819" y="1183"/>
	  <point x="959" y="1022"/>
	  <point x="959" y="679" type="curve" smooth="yes"/>
	  <point x="959" y="336"/>
	  <point x="809" y="158"/>
	  <point x="510" y="158" type="curve" smooth="yes"/>
	</contour>
	<contour>
	  <point x="622" y="-45" type="move" name="mark0"/>
	</contour>
  </outline>
</glyph>
<glyph name="E" format="1">
  <advance width="1078"/>
  <unicode hex="0045"/>
  <outline>
	<contour>
	  <point x="174" y="0" type="line"/>
	  <point x="981" y="0" type="line"/>
	  <point x="981" y="165" type="line"/>
	  <point x="370" y="165" type="line"/>
	  <point x="370" y="620" type="line"/>
	  <point x="868" y="620" type="line"/>
	  <point x="868" y="784" type="line"/>
	  <point x="370" y="784" type="line"/>
	  <point x="370" y="1178" type="line"/>
	  <point x="960" y="1178" type="line"/>
	  <point x="960" y="1342" type="line"/>
	  <point x="174" y="1342" type="line"/>
	</contour>
	<contour>
	  <point x="794" y="0" type="move" name="mark0"/>
	</contour>
  </outline>
</glyph>
<glyph name="F" format="1">
  <advance width="1014"/>
  <unicode hex="0046"/>
  <outline>
	<contour>
	  <point x="174" y="0" type="line"/>
	  <point x="370" y="0" type="line"/>
	  <point x="370" y="587" type="line"/>
	  <point x="873" y="587" type="line"/>
	  <point x="873" y="750" type="line"/>
	  <point x="370" y="750" type="line"/>
	  <point x="370" y="1178" type="line"/>
	  <point x="962" y="1178" type="line"/>
	  <point x="962" y="1342" type="line"/>
	  <point x="174" y="1342" type="line"/>
	</contour>
	<contour>
	  <point x="282" y="-45" type="move" name="mark0"/>
	</contour>
  </outline>
</glyph>
<glyph name="G" format="1">
  <advance width="1262"/>
  <unicode hex="0047"/>
  <outline>
	<contour>
	  <point x="99" y="667" type="curve" smooth="yes"/>
	  <point x="99" y="210"/>
	  <point x="356" y="-25"/>
	  <point x="711" y="-25" type="curve" smooth="yes"/>
	  <point x="892" y="-25"/>
	  <point x="1045" y="46"/>
	  <point x="1134" y="132" type="curve"/>
	  <point x="1134" y="706" type="line"/>
	  <point x="692" y="706" type="line"/>
	  <point x="692" y="546" type="line"/>
	  <point x="958" y="546" type="line"/>
	  <point x="958" y="218" type="line"/>
	  <point x="908" y="173"/>
	  <point x="821" y="145"/>
	  <point x="733" y="145" type="curve" smooth="yes"/>
	  <point x="451" y="145"/>
	  <point x="300" y="335"/>
	  <point x="300" y="672" type="curve" smooth="yes"/>
	  <point x="300" y="1017"/>
	  <point x="468" y="1197"/>
	  <point x="728" y="1197" type="curve" smooth="yes"/>
	  <point x="858" y="1197"/>
	  <point x="939" y="1154"/>
	  <point x="1006" y="1085" type="curve"/>
	  <point x="1117" y="1207" type="line"/>
	  <point x="1035" y="1291"/>
	  <point x="909" y="1367"/>
	  <point x="726" y="1367" type="curve" smooth="yes"/>
	  <point x="364" y="1367"/>
	  <point x="99" y="1133"/>
	</contour>
	<contour>
	  <point x="713" y="-45" type="move" name="mark0"/>
	</contour>
  </outline>
</glyph>
<glyph name="H" format="1">
  <advance width="1334"/>
  <unicode hex="0048"/>
  <outline>
	<contour>
	  <point x="174" y="0" type="line"/>
	  <point x="370" y="0" type="line"/>
	  <point x="370" y="619" type="line"/>
	  <point x="965" y="619" type="line"/>
	  <point x="965" y="0" type="line"/>
	  <point x="1159" y="0" type="line"/>
	  <point x="1159" y="1342" type="line"/>
	  <point x="965" y="1342" type="line"/>
	  <point x="965" y="788" type="line"/>
	  <point x="370" y="788" type="line"/>
	  <point x="370" y="1342" type="line"/>
	  <point x="174" y="1342" type="line"/>
	</contour>
	<contour>
	  <point x="664" y="-45" type="move" name="mark0"/>
	</contour>
  </outline>
</glyph>
<glyph name="I" format="1">
  <advance width="544"/>
  <unicode hex="0049"/>
  <outline>
	<contour>
	  <point x="174" y="0" type="line"/>
	  <point x="370" y="0" type="line"/>
	  <point x="370" y="1342" type="line"/>
	  <point x="174" y="1342" type="line"/>
	</contour>
	<contour>
	  <point x="226" y="0" type="move" name="mark0"/>
	</contour>
  </outline>
</glyph>
<glyph name="J" format="1">
  <advance width="983"/>
  <unicode hex="004A"/>
  <outline>
	<contour>
	  <point x="54" y="195" type="line"/>
	  <point x="134" y="50"/>
	  <point x="260" y="-25"/>
	  <point x="437" y="-25" type="curve" smooth="yes"/>
	  <point x="707" y="-25"/>
	  <point x="816" y="159"/>
	  <point x="816" y="395" type="curve" smooth="yes"/>
	  <point x="816" y="1342" type="line"/>
	  <point x="621" y="1342" type="line"/>
	  <point x="621" y="414" type="line"/>
	  <point x="621" y="213"/>
	  <point x="555" y="145"/>
	  <point x="418" y="145" type="curve" smooth="yes"/>
	  <point x="326" y="145"/>
	  <point x="250" y="190"/>
	  <point x="190" y="293" type="curve"/>
	</contour>
	<contour>
	  <point x="521" y="-45" type="move" name="mark0"/>
	</contour>
  </outline>
</glyph>
<glyph name="K" format="1">
  <advance width="1190"/>
  <unicode hex="004B"/>
  <outline>
	<contour>
	  <point x="174" y="0" type="line"/>
	  <point x="370" y="0" type="line"/>
	  <point x="370" y="414" type="line"/>
	  <point x="586" y="673" type="line"/>
	  <point x="973" y="0" type="line"/>
	  <point x="1189" y="0" type="line"/>
	  <point x="705" y="826" type="line"/>
	  <point x="1124" y="1342" type="line"/>
	  <point x="904" y="1342" type="line"/>
	  <point x="374" y="690" type="line"/>
	  <point x="370" y="690" type="line"/>
	  <point x="370" y="1342" type="line"/>
	  <point x="174" y="1342" type="line"/>
	</contour>
	<contour>
	  <point x="669" y="-45" type="move" name="mark0"/>
	</contour>
  </outline>
</glyph>
<glyph name="L" format="1">
  <advance width="998"/>
  <unicode hex="004C"/>
  <outline>
	<contour>
	  <point x="174" y="0" type="line"/>
	  <point x="945" y="0" type="line"/>
	  <point x="945" y="165" type="line"/>
	  <point x="370" y="165" type="line"/>
	  <point x="370" y="1342" type="line"/>
	  <point x="174" y="1342" type="line"/>
	</contour>
	<contour>
	  <point x="589" y="-45" type="move" name="mark0"/>
	</contour>
  </outline>
</glyph>
<glyph name="N" format="1">
  <advance width="1323"/>
  <unicode hex="004E"/>
  <outline>
	<contour>
	  <point x="174" y="0" type="line"/>
	  <point x="359" y="0" type="line"/>
	  <point x="359" y="660" type="line"/>
	  <point x="359" y="805"/>
	  <point x="345" y="954"/>
	  <point x="335" y="1092" type="curve"/>
	  <point x="344" y="1092" type="line"/>
	  <point x="486" y="813" type="line"/>
	  <point x="946" y="0" type="line"/>
	  <point x="1147" y="0" type="line"/>
	  <point x="1147" y="1342" type="line"/>
	  <point x="962" y="1342" type="line"/>
	  <point x="962" y="688" type="line"/>
	  <point x="962" y="544"/>
	  <point x="978" y="386"/>
	  <point x="987" y="250" type="curve"/>
	  <point x="979" y="250" type="line"/>
	  <point x="837" y="532" type="line"/>
	  <point x="374" y="1342" type="line"/>
	  <point x="174" y="1342" type="line"/>
	</contour>
	<contour>
	  <point x="673" y="-45" type="move" name="mark0"/>
	</contour>
  </outline>
</glyph>
<glyph name="O" format="1">
  <advance width="1359"/>
  <unicode hex="004F"/>
  <outline>
	<contour>
	  <point x="678" y="-25" type="curve" smooth="yes"/>
	  <point x="1030" y="-25"/>
	  <point x="1258" y="228"/>
	  <point x="1258" y="674" type="curve" smooth="yes"/>
	  <point x="1258" y="1117"/>
	  <point x="1030" y="1367"/>
	  <point x="678" y="1367" type="curve" smooth="yes"/>
	  <point x="324" y="1367"/>
	  <point x="99" y="1119"/>
	  <point x="99" y="674" type="curve" smooth="yes"/>
	  <point x="99" y="228"/>
	  <point x="324" y="-25"/>
	</contour>
	<contour>
	  <point x="678" y="145" type="curve" smooth="yes"/>
	  <point x="438" y="145"/>
	  <point x="299" y="341"/>
	  <point x="299" y="674" type="curve" smooth="yes"/>
	  <point x="299" y="1006"/>
	  <point x="438" y="1197"/>
	  <point x="678" y="1197" type="curve" smooth="yes"/>
	  <point x="915" y="1197"/>
	  <point x="1058" y="1006"/>
	  <point x="1058" y="674" type="curve" smooth="yes"/>
	  <point x="1058" y="341"/>
	  <point x="915" y="145"/>
	</contour>
	<contour>
	  <point x="680" y="0" type="move" name="mark0"/>
	</contour>
  </outline>
</glyph>
<glyph name="P" format="1">
  <advance width="1182"/>
  <unicode hex="0050"/>
  <outline>
	<contour>
	  <point x="174" y="0" type="line"/>
	  <point x="370" y="0" type="line"/>
	  <point x="370" y="499" type="line"/>
	  <point x="614" y="499" type="line"/>
	  <point x="914" y="499"/>
	  <point x="1101" y="645"/>
	  <point x="1101" y="933" type="curve" smooth="yes"/>
	  <point x="1101" y="1233"/>
	  <point x="918" y="1342"/>
	  <point x="611" y="1342" type="curve" smooth="yes"/>
	  <point x="174" y="1342" type="line"/>
	</contour>
	<contour>
	  <point x="370" y="657" type="line"/>
	  <point x="370" y="1186" type="line"/>
	  <point x="591" y="1186" type="line"/>
	  <point x="818" y="1186"/>
	  <point x="909" y="1118"/>
	  <point x="909" y="933" type="curve" smooth="yes"/>
	  <point x="909" y="752"/>
	  <point x="823" y="657"/>
	  <point x="592" y="657" type="curve" smooth="yes"/>
	</contour>
	<contour>
	  <point x="286" y="-45" type="move" name="mark0"/>
	</contour>
  </outline>
</glyph>
<glyph name="R" format="1">
  <advance width="1195"/>
  <unicode hex="0052"/>
  <outline>
	<contour>
	  <point x="370" y="1186" type="line"/>
	  <point x="597" y="1186" type="line"/>
	  <point x="797" y="1186"/>
	  <point x="891" y="1137"/>
	  <point x="891" y="962" type="curve" smooth="yes"/>
	  <point x="891" y="779"/>
	  <point x="795" y="710"/>
	  <point x="595" y="710" type="curve" smooth="yes"/>
	  <point x="370" y="710" type="line"/>
	</contour>
	<contour>
	  <point x="1130" y="0" type="line"/>
	  <point x="805" y="577" type="line"/>
	  <point x="979" y="627"/>
	  <point x="1084" y="738"/>
	  <point x="1084" y="962" type="curve" smooth="yes"/>
	  <point x="1084" y="1255"/>
	  <point x="896" y="1342"/>
	  <point x="622" y="1342" type="curve" smooth="yes"/>
	  <point x="174" y="1342" type="line"/>
	  <point x="174" y="0" type="line"/>
	  <point x="370" y="0" type="line"/>
	  <point x="370" y="551" type="line"/>
	  <point x="607" y="551" type="line"/>
	  <point x="908" y="0" type="line"/>
	</contour>
	<contour>
	  <point x="637" y="-45" type="move" name="mark0"/>
	</contour>
  </outline>
</glyph>
<glyph name="T" format="1">
  <advance width="1096"/>
  <unicode hex="0054"/>
  <outline>
	<contour>
	  <point x="451" y="0" type="line"/>
	  <point x="645" y="0" type="line"/>
	  <point x="645" y="1178" type="line"/>
	  <point x="1045" y="1178" type="line"/>
	  <point x="1045" y="1342" type="line"/>
	  <point x="51" y="1342" type="line"/>
	  <point x="51" y="1178" type="line"/>
	  <point x="451" y="1178" type="line"/>
	</contour>
	<contour>
	  <point x="549" y="-45" type="move" name="mark0"/>
	</contour>
  </outline>
</glyph>
<glyph name="U" format="1">
  <advance width="1320"/>
  <unicode hex="0055"/>
  <outline>
	<contour>
	  <point x="168" y="557" type="line"/>
	  <point x="168" y="127"/>
	  <point x="373" y="-25"/>
	  <point x="660" y="-25" type="curve" smooth="yes"/>
	  <point x="948" y="-25"/>
	  <point x="1152" y="125"/>
	  <point x="1152" y="557" type="curve" smooth="yes"/>
	  <point x="1152" y="1342" type="line"/>
	  <point x="965" y="1342" type="line"/>
	  <point x="965" y="549" type="line"/>
	  <point x="965" y="238"/>
	  <point x="833" y="145"/>
	  <point x="660" y="145" type="curve" smooth="yes"/>
	  <point x="490" y="145"/>
	  <point x="364" y="239"/>
	  <point x="364" y="549" type="curve" smooth="yes"/>
	  <point x="364" y="1342" type="line"/>
	  <point x="168" y="1342" type="line"/>
	</contour>
	<contour>
	  <point x="659" y="0" type="move" name="mark0"/>
	</contour>
  </outline>
</glyph>
<glyph name="V" format="1">
  <advance width="1061"/>
  <unicode hex="0056"/>
  <outline>
	<contour>
	  <point x="417" y="0" type="line"/>
	  <point x="646" y="0" type="line"/>
	  <point x="1068" y="1342" type="line"/>
	  <point x="869" y="1342" type="line"/>
	  <point x="664" y="635" type="line"/>
	  <point x="620" y="479"/>
	  <point x="588" y="350"/>
	  <point x="539" y="194" type="curve"/>
	  <point x="531" y="194" type="line"/>
	  <point x="483" y="350"/>
	  <point x="452" y="479"/>
	  <point x="406" y="635" type="curve" smooth="yes"/>
	  <point x="199" y="1342" type="line"/>
	  <point x="-6" y="1342" type="line"/>
	</contour>
	<contour>
	  <point x="530" y="-45" type="move" name="mark0"/>
	</contour>
  </outline>
</glyph>
<glyph name="X" format="1">
  <advance width="1062"/>
  <unicode hex="0058"/>
  <outline>
	<contour>
	  <point x="26" y="0" type="line"/>
	  <point x="230" y="0" type="line"/>
	  <point x="412" y="346" type="line"/>
	  <point x="446" y="412"/>
	  <point x="478" y="480"/>
	  <point x="516" y="562" type="curve"/>
	  <point x="524" y="562" type="line"/>
	  <point x="566" y="480"/>
	  <point x="602" y="412"/>
	  <point x="637" y="346" type="curve" smooth="yes"/>
	  <point x="822" y="0" type="line"/>
	  <point x="1038" y="0" type="line"/>
	  <point x="651" y="683" type="line"/>
	  <point x="1012" y="1342" type="line"/>
	  <point x="806" y="1342" type="line"/>
	  <point x="641" y="1014" type="line"/>
	  <point x="609" y="953"/>
	  <point x="584" y="896"/>
	  <point x="549" y="817" type="curve"/>
	  <point x="540" y="817" type="line"/>
	  <point x="498" y="896"/>
	  <point x="470" y="953"/>
	  <point x="437" y="1014" type="curve" smooth="yes"/>
	  <point x="266" y="1342" type="line"/>
	  <point x="50" y="1342" type="line"/>
	  <point x="413" y="693" type="line"/>
	</contour>
	<contour>
	  <point x="519" y="-45" type="move" name="mark0"/>
	</contour>
  </outline>
</glyph>
<glyph name="Z" format="1">
  <advance width="1096"/>
  <unicode hex="005A"/>
  <outline>
	<contour>
	  <point x="83" y="0" type="line"/>
	  <point x="1017" y="0" type="line"/>
	  <point x="1017" y="165" type="line"/>
	  <point x="324" y="165" type="line"/>
	  <point x="1011" y="1227" type="line"/>
	  <point x="1011" y="1342" type="line"/>
	  <point x="146" y="1342" type="line"/>
	  <point x="146" y="1178" type="line"/>
	  <point x="771" y="1178" type="line"/>
	  <point x="83" y="117" type="line"/>
	</contour>
	<contour>
	  <point x="572" y="-45" type="move" name="mark0"/>
	</contour>
  </outline>
</glyph>
<glyph name="bracketleft" format="1">
  <advance width="636"/>
  <unicode hex="005B"/>
  <outline>
	<contour>
	  <point x="190" y="-311" type="line"/>
	  <point x="568" y="-311" type="line"/>
	  <point x="568" y="-203" type="line"/>
	  <point x="334" y="-203" type="line"/>
	  <point x="334" y="1341" type="line"/>
	  <point x="568" y="1341" type="line"/>
	  <point x="568" y="1450" type="line"/>
	  <point x="190" y="1450" type="line"/>
	</contour>
  </outline>
</glyph>
<glyph name="backslash" format="1">
  <advance width="713"/>
  <unicode hex="005C"/>
  <outline>
	<contour>
	  <point x="554" y="-328" type="line"/>
	  <point x="691" y="-328" type="line"/>
	  <point x="169" y="1454" type="line"/>
	  <point x="34" y="1454" type="line"/>
	</contour>
  </outline>
</glyph>
<glyph name="bracketright" format="1">
  <advance width="636"/>
  <unicode hex="005D"/>
  <outline>
	<contour>
	  <point x="69" y="-203" type="line"/>
	  <point x="69" y="-311" type="line"/>
	  <point x="446" y="-311" type="line"/>
	  <point x="446" y="1450" type="line"/>
	  <point x="69" y="1450" type="line"/>
	  <point x="69" y="1341" type="line"/>
	  <point x="301" y="1341" type="line"/>
	  <point x="301" y="-203" type="line"/>
	</contour>
  </outline>
</glyph>
<glyph name="asciicircum" format="1">
  <advance width="1030"/>
  <unicode hex="005E"/>
  <outline>
	<contour>
	  <point x="119" y="578" type="line"/>
	  <point x="285" y="578" type="line"/>
	  <point x="411" y="920" type="line"/>
	  <point x="512" y="1193" type="line"/>
	  <point x="520" y="1193" type="line"/>
	  <point x="618" y="920" type="line"/>
	  <point x="745" y="578" type="line"/>
	  <point x="910" y="578" type="line"/>
	  <point x="598" y="1372" type="line"/>
	  <point x="431" y="1372" type="line"/>
	</contour>
  </outline>
</glyph>
<glyph name="grave" format="1">
  <advance width="1115"/>
  <unicode hex="0060"/>
  <outline>
	<contour>
	  <point x="551" y="1174" type="line"/>
	  <point x="697" y="1174" type="line"/>
	  <point x="513" y="1466" type="line"/>
	  <point x="316" y="1466" type="line"/>
	</contour>
  </outline>
</glyph>
<glyph name="a" format="1">
  <advance width="1057"/>
  <unicode hex="0061"/>
  <outline>
	<contour>
	  <point x="115" y="265" type="curve" smooth="yes"/>
	  <point x="115" y="88"/>
	  <point x="238" y="-25"/>
	  <point x="419" y="-25" type="curve" smooth="yes"/>
	  <point x="557" y="-25"/>
	  <point x="638" y="39"/>
	  <point x="732" y="116" type="curve"/>
	  <point x="737" y="116" type="line"/>
	  <point x="753" y="0" type="line"/>
	  <point x="912" y="0" type="line"/>
	  <point x="912" y="605" type="line"/>
	  <point x="912" y="876"/>
	  <point x="802" y="1024"/>
	  <point x="553" y="1024" type="curve" smooth="yes"/>
	  <point x="393" y="1024"/>
	  <point x="247" y="972"/>
	  <point x="148" y="909" type="curve"/>
	  <point x="222" y="778" type="line"/>
	  <point x="304" y="832"/>
	  <point x="409" y="866"/>
	  <point x="520" y="866" type="curve" smooth="yes"/>
	  <point x="674" y="866"/>
	  <point x="719" y="780"/>
	  <point x="719" y="633" type="curve"/>
	  <point x="295" y="614"/>
	  <point x="115" y="481"/>
	</contour>
	<contour>
	  <point x="303" y="277" type="curve" smooth="yes"/>
	  <point x="303" y="395"/>
	  <point x="400" y="500"/>
	  <point x="719" y="511" type="curve"/>
	  <point x="719" y="253" type="line"/>
	  <point x="633" y="173"/>
	  <point x="566" y="129"/>
	  <point x="475" y="129" type="curve" smooth="yes"/>
	  <point x="372" y="129"/>
	  <point x="303" y="174"/>
	</contour>
	<contour>
	  <point x="852" y="0" type="move" name="mark0"/>
	</contour>
  </outline>
</glyph>
<glyph name="b" format="1">
  <advance width="1144"/>
  <unicode hex="0062"/>
  <outline>
	<contour>
	  <point x="162" y="0" type="line"/>
	  <point x="315" y="0" type="line"/>
	  <point x="331" y="99" type="line"/>
	  <point x="338" y="99" type="line"/>
	  <point x="425" y="20"/>
	  <point x="526" y="-25"/>
	  <point x="621" y="-25" type="curve" smooth="yes"/>
	  <point x="855" y="-25"/>
	  <point x="1048" y="161"/>
	  <point x="1048" y="514" type="curve" smooth="yes"/>
	  <point x="1048" y="832"/>
	  <point x="921" y="1024"/>
	  <point x="656" y="1024" type="curve" smooth="yes"/>
	  <point x="544" y="1024"/>
	  <point x="437" y="968"/>
	  <point x="349" y="890" type="curve"/>
	  <point x="354" y="1065" type="line"/>
	  <point x="354" y="1454" type="line"/>
	  <point x="162" y="1454" type="line"/>
	</contour>
	<contour>
	  <point x="354" y="233" type="curve"/>
	  <point x="354" y="735" type="line"/>
	  <point x="441" y="819"/>
	  <point x="522" y="864"/>
	  <point x="605" y="864" type="curve" smooth="yes"/>
	  <point x="788" y="864"/>
	  <point x="849" y="730"/>
	  <point x="849" y="511" type="curve" smooth="yes"/>
	  <point x="849" y="266"/>
	  <point x="742" y="136"/>
	  <point x="584" y="136" type="curve" smooth="yes"/>
	  <point x="518" y="136"/>
	  <point x="436" y="162"/>
	</contour>
	<contour>
	  <point x="585" y="-45" type="move" name="mark0"/>
	</contour>
  </outline>
</glyph>
<glyph name="c" format="1">
  <advance width="938"/>
  <unicode hex="0063"/>
  <outline>
	<contour>
	  <point x="90" y="502" type="curve" smooth="yes"/>
	  <point x="90" y="157"/>
	  <point x="293" y="-25"/>
	  <point x="560" y="-25" type="curve" smooth="yes"/>
	  <point x="678" y="-25"/>
	  <point x="790" y="14"/>
	  <point x="881" y="94" type="curve"/>
	  <point x="797" y="220" type="line"/>
	  <point x="740" y="170"/>
	  <point x="669" y="134"/>
	  <point x="578" y="134" type="curve" smooth="yes"/>
	  <point x="406" y="134"/>
	  <point x="288" y="274"/>
	  <point x="288" y="502" type="curve" smooth="yes"/>
	  <point x="288" y="730"/>
	  <point x="410" y="866"/>
	  <point x="584" y="866" type="curve" smooth="yes"/>
	  <point x="657" y="866"/>
	  <point x="720" y="835"/>
	  <point x="777" y="786" type="curve"/>
	  <point x="870" y="908" type="line"/>
	  <point x="803" y="973"/>
	  <point x="706" y="1024"/>
	  <point x="575" y="1024" type="curve" smooth="yes"/>
	  <point x="315" y="1024"/>
	  <point x="90" y="849"/>
	</contour>
	<contour>
	  <point x="554" y="-45" type="move" name="mark0"/>
	</contour>
  </outline>
</glyph>
<glyph name="d" format="1">
  <advance width="1144"/>
  <unicode hex="0064"/>
  <outline>
	<contour>
	  <point x="93" y="500" type="curve" smooth="yes"/>
	  <point x="93" y="156"/>
	  <point x="258" y="-25"/>
	  <point x="506" y="-25" type="curve" smooth="yes"/>
	  <point x="619" y="-25"/>
	  <point x="724" y="39"/>
	  <point x="801" y="114" type="curve"/>
	  <point x="807" y="114" type="line"/>
	  <point x="823" y="0" type="line"/>
	  <point x="982" y="0" type="line"/>
	  <point x="982" y="1454" type="line"/>
	  <point x="788" y="1454" type="line"/>
	  <point x="788" y="1078" type="line"/>
	  <point x="797" y="910" type="line"/>
	  <point x="712" y="981"/>
	  <point x="638" y="1024"/>
	  <point x="523" y="1024" type="curve" smooth="yes"/>
	  <point x="290" y="1024"/>
	  <point x="93" y="836"/>
	</contour>
	<contour>
	  <point x="289" y="502" type="curve" smooth="yes"/>
	  <point x="289" y="731"/>
	  <point x="403" y="864"/>
	  <point x="560" y="864" type="curve" smooth="yes"/>
	  <point x="637" y="864"/>
	  <point x="710" y="837"/>
	  <point x="788" y="766" type="curve"/>
	  <point x="788" y="265" type="line"/>
	  <point x="712" y="177"/>
	  <point x="637" y="136"/>
	  <point x="550" y="136" type="curve" smooth="yes"/>
	  <point x="379" y="136"/>
	  <point x="289" y="264"/>
	</contour>
	<contour>
	  <point x="620" y="-45" type="move" name="mark0"/>
	</contour>
  </outline>
</glyph>
<glyph name="e" format="1">
  <advance width="1024"/>
  <unicode hex="0065"/>
  <outline>
	<contour>
	  <point x="90" y="499" type="curve" smooth="yes"/>
	  <point x="90" y="162"/>
	  <point x="304" y="-25"/>
	  <point x="574" y="-25" type="curve" smooth="yes"/>
	  <point x="707" y="-25"/>
	  <point x="817" y="15"/>
	  <point x="906" y="73" type="curve"/>
	  <point x="840" y="196" type="line"/>
	  <point x="766" y="149"/>
	  <point x="689" y="128"/>
	  <point x="599" y="128" type="curve" smooth="yes"/>
	  <point x="418" y="128"/>
	  <point x="292" y="244"/>
	  <point x="279" y="455" type="curve"/>
	  <point x="940" y="455" type="line"/>
	  <point x="944" y="479"/>
	  <point x="947" y="515"/>
	  <point x="947" y="553" type="curve" smooth="yes"/>
	  <point x="947" y="845"/>
	  <point x="816" y="1024"/>
	  <point x="542" y="1024" type="curve" smooth="yes"/>
	  <point x="298" y="1024"/>
	  <point x="90" y="835"/>
	</contour>
	<contour>
	  <point x="277" y="579" type="line"/>
	  <point x="296" y="772"/>
	  <point x="407" y="873"/>
	  <point x="546" y="873" type="curve" smooth="yes"/>
	  <point x="703" y="873"/>
	  <point x="780" y="774"/>
	  <point x="780" y="579" type="curve"/>
	</contour>
	<contour>
	  <point x="800" y="0" type="move" name="mark0"/>
	</contour>
  </outline>
</glyph>
<glyph name="f" format="1">
  <advance width="616"/>
  <unicode hex="0066"/>
  <outline>
	<contour>
	  <point x="673" y="1445" type="line"/>
	  <point x="628" y="1463"/>
	  <point x="566" y="1479"/>
	  <point x="500" y="1479" type="curve" smooth="yes"/>
	  <point x="288" y="1479"/>
	  <point x="195" y="1346"/>
	  <point x="195" y="1141" type="curve" smooth="yes"/>
	  <point x="195" y="998" type="line"/>
	  <point x="59" y="988" type="line"/>
	  <point x="59" y="844" type="line"/>
	  <point x="195" y="844" type="line"/>
	  <point x="195" y="0" type="line"/>
	  <point x="387" y="0" type="line"/>
	  <point x="387" y="844" type="line"/>
	  <point x="592" y="844" type="line"/>
	  <point x="592" y="999" type="line"/>
	  <point x="387" y="999" type="line"/>
	  <point x="387" y="1142" type="line"/>
	  <point x="387" y="1265"/>
	  <point x="432" y="1323"/>
	  <point x="522" y="1323" type="curve" smooth="yes"/>
	  <point x="558" y="1323"/>
	  <point x="597" y="1314"/>
	  <point x="633" y="1299" type="curve"/>
	</contour>
	<contour>
	  <point x="291" y="-45" type="move" name="mark0"/>
	</contour>
  </outline>
</glyph>
<glyph name="h" format="1">
  <advance width="1124"/>
  <unicode hex="0068"/>
  <outline>
	<contour>
	  <point x="162" y="0" type="line"/>
	  <point x="354" y="0" type="line"/>
	  <point x="354" y="715" type="line"/>
	  <point x="448" y="808"/>
	  <point x="514" y="858"/>
	  <point x="612" y="858" type="curve" smooth="yes"/>
	  <point x="738" y="858"/>
	  <point x="788" y="788"/>
	  <point x="788" y="608" type="curve" smooth="yes"/>
	  <point x="788" y="0" type="line"/>
	  <point x="980" y="0" type="line"/>
	  <point x="980" y="634" type="line"/>
	  <point x="980" y="888"/>
	  <point x="891" y="1024"/>
	  <point x="675" y="1024" type="curve" smooth="yes"/>
	  <point x="537" y="1024"/>
	  <point x="437" y="950"/>
	  <point x="346" y="864" type="curve"/>
	  <point x="354" y="1065" type="line"/>
	  <point x="354" y="1454" type="line"/>
	  <point x="162" y="1454" type="line"/>
	</contour>
	<contour>
	  <point x="589" y="-45" type="move" name="mark0"/>
	</contour>
  </outline>
</glyph>
<glyph name="i" format="1">
  <advance width="515"/>
  <unicode hex="0069"/>
  <outline>
	<contour>
	  <point x="259" y="1194" type="curve" smooth="yes"/>
	  <point x="331" y="1194"/>
	  <point x="387" y="1242"/>
	  <point x="387" y="1312" type="curve" smooth="yes"/>
	  <point x="387" y="1382"/>
	  <point x="331" y="1428"/>
	  <point x="259" y="1428" type="curve" smooth="yes"/>
	  <point x="187" y="1428"/>
	  <point x="132" y="1382"/>
	  <point x="132" y="1312" type="curve" smooth="yes"/>
	  <point x="132" y="1242"/>
	  <point x="187" y="1194"/>
	</contour>
	<contour>
	  <point x="162" y="0" type="line"/>
	  <point x="354" y="0" type="line"/>
	  <point x="354" y="999" type="line"/>
	  <point x="162" y="999" type="line"/>
	</contour>
	<contour>
	  <point x="321" y="0" type="move" name="mark0"/>
	</contour>
  </outline>
</glyph>
<glyph name="j" format="1">
  <advance width="518"/>
  <unicode hex="006A"/>
  <outline>
	<contour>
	  <point x="164" y="-98" type="line"/>
	  <point x="164" y="-216"/>
	  <point x="138" y="-281"/>
	  <point x="44" y="-281" type="curve" smooth="yes"/>
	  <point x="10" y="-281"/>
	  <point x="-23" y="-274"/>
	  <point x="-48" y="-266" type="curve"/>
	  <point x="-86" y="-410" type="line"/>
	  <point x="-50" y="-424"/>
	  <point x="1" y="-436"/>
	  <point x="67" y="-436" type="curve" smooth="yes"/>
	  <point x="280" y="-436"/>
	  <point x="356" y="-302"/>
	  <point x="356" y="-96" type="curve" smooth="yes"/>
	  <point x="356" y="999" type="line"/>
	  <point x="164" y="999" type="line"/>
	</contour>
	<contour>
	  <point x="262" y="1194" type="curve" smooth="yes"/>
	  <point x="331" y="1194"/>
	  <point x="387" y="1242"/>
	  <point x="387" y="1312" type="curve" smooth="yes"/>
	  <point x="387" y="1382"/>
	  <point x="331" y="1428"/>
	  <point x="262" y="1428" type="curve" smooth="yes"/>
	  <point x="189" y="1428"/>
	  <point x="134" y="1382"/>
	  <point x="134" y="1312" type="curve" smooth="yes"/>
	  <point x="134" y="1242"/>
	  <point x="189" y="1194"/>
	</contour>
	<contour>
	  <point x="129" y="-474" type="move" name="mark0"/>
	</contour>
  </outline>
</glyph>
<glyph name="k" format="1">
  <advance width="1034"/>
  <unicode hex="006B"/>
  <outline>
	<contour>
	  <point x="162" y="0" type="line"/>
	  <point x="351" y="0" type="line"/>
	  <point x="351" y="260" type="line"/>
	  <point x="526" y="464" type="line"/>
	  <point x="806" y="0" type="line"/>
	  <point x="1016" y="0" type="line"/>
	  <point x="636" y="596" type="line"/>
	  <point x="974" y="999" type="line"/>
	  <point x="763" y="999" type="line"/>
	  <point x="357" y="497" type="line"/>
	  <point x="351" y="497" type="line"/>
	  <point x="351" y="1454" type="line"/>
	  <point x="162" y="1454" type="line"/>
	</contour>
	<contour>
	  <point x="564" y="-45" type="move" name="mark0"/>
	</contour>
  </outline>
</glyph>
<glyph name="l" format="1">
  <advance width="534"/>
  <unicode hex="006C"/>
  <outline>
	<contour>
	  <point x="162" y="222" type="line"/>
	  <point x="162" y="65"/>
	  <point x="216" y="-25"/>
	  <point x="358" y="-25" type="curve" smooth="yes"/>
	  <point x="407" y="-25"/>
	  <point x="440" y="-17"/>
	  <point x="464" y="-7" type="curve"/>
	  <point x="439" y="138" type="line"/>
	  <point x="421" y="134"/>
	  <point x="413" y="134"/>
	  <point x="402" y="134" type="curve" smooth="yes"/>
	  <point x="377" y="134"/>
	  <point x="354" y="154"/>
	  <point x="354" y="209" type="curve" smooth="yes"/>
	  <point x="354" y="1454" type="line"/>
	  <point x="162" y="1454" type="line"/>
	</contour>
	<contour>
	  <point x="256" y="-45" type="move" name="mark0"/>
	</contour>
  </outline>
</glyph>
<glyph name="m" format="1">
  <advance width="1708"/>
  <unicode hex="006D"/>
  <outline>
	<contour>
	  <point x="162" y="0" type="line"/>
	  <point x="354" y="0" type="line"/>
	  <point x="354" y="715" type="line"/>
	  <point x="441" y="810"/>
	  <point x="520" y="858"/>
	  <point x="590" y="858" type="curve" smooth="yes"/>
	  <point x="717" y="858"/>
	  <point x="764" y="791"/>
	  <point x="764" y="611" type="curve" smooth="yes"/>
	  <point x="764" y="0" type="line"/>
	  <point x="957" y="0" type="line"/>
	  <point x="957" y="719" type="line"/>
	  <point x="1044" y="814"/>
	  <point x="1120" y="858"/>
	  <point x="1193" y="858" type="curve" smooth="yes"/>
	  <point x="1319" y="858"/>
	  <point x="1366" y="789"/>
	  <point x="1366" y="609" type="curve" smooth="yes"/>
	  <point x="1366" y="0" type="line"/>
	  <point x="1558" y="0" type="line"/>
	  <point x="1558" y="635" type="line"/>
	  <point x="1558" y="889"/>
	  <point x="1469" y="1024"/>
	  <point x="1253" y="1024" type="curve" smooth="yes"/>
	  <point x="1129" y="1024"/>
	  <point x="1029" y="950"/>
	  <point x="926" y="841" type="curve"/>
	  <point x="885" y="961"/>
	  <point x="810" y="1024"/>
	  <point x="653" y="1024" type="curve" smooth="yes"/>
	  <point x="531" y="1024"/>
	  <point x="428" y="950"/>
	  <point x="343" y="858" type="curve"/>
	  <point x="336" y="858" type="line"/>
	  <point x="320" y="999" type="line"/>
	  <point x="162" y="999" type="line"/>
	</contour>
	<contour>
	  <point x="875" y="-45" type="move" name="mark0"/>
	</contour>
  </outline>
</glyph>
<glyph name="n" format="1">
  <advance width="1129"/>
  <unicode hex="006E"/>
  <outline>
	<contour>
	  <point x="162" y="0" type="line"/>
	  <point x="354" y="0" type="line"/>
	  <point x="354" y="715" type="line"/>
	  <point x="448" y="808"/>
	  <point x="514" y="858"/>
	  <point x="611" y="858" type="curve" smooth="yes"/>
	  <point x="742" y="858"/>
	  <point x="788" y="789"/>
	  <point x="788" y="609" type="curve" smooth="yes"/>
	  <point x="788" y="0" type="line"/>
	  <point x="980" y="0" type="line"/>
	  <point x="980" y="635" type="line"/>
	  <point x="980" y="889"/>
	  <point x="894" y="1024"/>
	  <point x="675" y="1024" type="curve" smooth="yes"/>
	  <point x="537" y="1024"/>
	  <point x="435" y="950"/>
	  <point x="343" y="858" type="curve"/>
	  <point x="336" y="858" type="line"/>
	  <point x="320" y="999" type="line"/>
	  <point x="162" y="999" type="line"/>
	</contour>
	<contour>
	  <point x="574" y="-45" type="move" name="mark0"/>
	</contour>
  </outline>
</glyph>
<glyph name="o" format="1">
  <advance width="1115"/>
  <unicode hex="006F"/>
  <outline>
	<contour>
	  <point x="91" y="500" type="curve" smooth="yes"/>
	  <point x="91" y="163"/>
	  <point x="304" y="-25"/>
	  <point x="557" y="-25" type="curve" smooth="yes"/>
	  <point x="809" y="-25"/>
	  <point x="1025" y="163"/>
	  <point x="1025" y="500" type="curve" smooth="yes"/>
	  <point x="1025" y="840"/>
	  <point x="809" y="1024"/>
	  <point x="557" y="1024" type="curve" smooth="yes"/>
	  <point x="304" y="1024"/>
	  <point x="91" y="840"/>
	</contour>
	<contour>
	  <point x="290" y="500" type="curve" smooth="yes"/>
	  <point x="290" y="723"/>
	  <point x="391" y="866"/>
	  <point x="557" y="866" type="curve" smooth="yes"/>
	  <point x="725" y="866"/>
	  <point x="826" y="723"/>
	  <point x="826" y="500" type="curve" smooth="yes"/>
	  <point x="826" y="277"/>
	  <point x="725" y="134"/>
	  <point x="557" y="134" type="curve" smooth="yes"/>
	  <point x="391" y="134"/>
	  <point x="290" y="277"/>
	</contour>
	<contour>
	  <point x="659" y="0" type="move" name="mark0"/>
	</contour>
  </outline>
</glyph>
<glyph name="p" format="1">
  <advance width="1144"/>
  <unicode hex="0070"/>
  <outline>
	<contour>
	  <point x="349" y="89" type="line"/>
	  <point x="437" y="17"/>
	  <point x="523" y="-25"/>
	  <point x="618" y="-25" type="curve" smooth="yes"/>
	  <point x="849" y="-25"/>
	  <point x="1048" y="166"/>
	  <point x="1048" y="513" type="curve" smooth="yes"/>
	  <point x="1048" y="829"/>
	  <point x="914" y="1024"/>
	  <point x="654" y="1024" type="curve" smooth="yes"/>
	  <point x="536" y="1024"/>
	  <point x="431" y="962"/>
	  <point x="343" y="887" type="curve"/>
	  <point x="336" y="887" type="line"/>
	  <point x="320" y="999" type="line"/>
	  <point x="162" y="999" type="line"/>
	  <point x="162" y="-412" type="line"/>
	  <point x="354" y="-412" type="line"/>
	  <point x="354" y="-83" type="line"/>
	</contour>
	<contour>
	  <point x="354" y="233" type="curve"/>
	  <point x="354" y="735" type="line"/>
	  <point x="445" y="819"/>
	  <point x="520" y="864"/>
	  <point x="601" y="864" type="curve" smooth="yes"/>
	  <point x="783" y="864"/>
	  <point x="849" y="730"/>
	  <point x="849" y="512" type="curve" smooth="yes"/>
	  <point x="849" y="269"/>
	  <point x="737" y="136"/>
	  <point x="580" y="136" type="curve" smooth="yes"/>
	  <point x="516" y="136"/>
	  <point x="437" y="162"/>
	</contour>
	<contour>
	  <point x="245" y="-446" type="move" name="mark0"/>
	</contour>
  </outline>
</glyph>
<glyph name="q" format="1">
  <advance width="1134"/>
  <unicode hex="0071"/>
  <outline>
	<contour>
	  <point x="93" y="497" type="curve" smooth="yes"/>
	  <point x="93" y="156"/>
	  <point x="249" y="-25"/>
	  <point x="507" y="-25" type="curve" smooth="yes"/>
	  <point x="621" y="-25"/>
	  <point x="719" y="34"/>
	  <point x="797" y="107" type="curve"/>
	  <point x="788" y="-66" type="line"/>
	  <point x="788" y="-412" type="line"/>
	  <point x="982" y="-412" type="line"/>
	  <point x="982" y="999" type="line"/>
	  <point x="829" y="999" type="line"/>
	  <point x="810" y="904" type="line"/>
	  <point x="805" y="904" type="line"/>
	  <point x="717" y="983"/>
	  <point x="642" y="1024"/>
	  <point x="525" y="1024" type="curve" smooth="yes"/>
	  <point x="294" y="1024"/>
	  <point x="93" y="829"/>
	</contour>
	<contour>
	  <point x="292" y="499" type="curve" smooth="yes"/>
	  <point x="292" y="725"/>
	  <point x="409" y="864"/>
	  <point x="562" y="864" type="curve" smooth="yes"/>
	  <point x="642" y="864"/>
	  <point x="710" y="837"/>
	  <point x="788" y="766" type="curve"/>
	  <point x="788" y="265" type="line"/>
	  <point x="712" y="177"/>
	  <point x="642" y="136"/>
	  <point x="553" y="136" type="curve" smooth="yes"/>
	  <point x="383" y="136"/>
	  <point x="292" y="261"/>
	</contour>
	<contour>
	  <point x="874" y="-446" type="move" name="mark0"/>
	</contour>
  </outline>
</glyph>
<glyph name="u" format="1">
  <advance width="1123"/>
  <unicode hex="0075"/>
  <outline>
	<contour>
	  <point x="148" y="365" type="line"/>
	  <point x="148" y="111"/>
	  <point x="234" y="-25"/>
	  <point x="455" y="-25" type="curve" smooth="yes"/>
	  <point x="601" y="-25"/>
	  <point x="690" y="46"/>
	  <point x="781" y="153" type="curve"/>
	  <point x="788" y="153" type="line"/>
	  <point x="803" y="0" type="line"/>
	  <point x="962" y="0" type="line"/>
	  <point x="962" y="999" type="line"/>
	  <point x="769" y="999" type="line"/>
	  <point x="769" y="299" type="line"/>
	  <point x="682" y="189"/>
	  <point x="623" y="141"/>
	  <point x="518" y="141" type="curve" smooth="yes"/>
	  <point x="386" y="141"/>
	  <point x="342" y="212"/>
	  <point x="342" y="391" type="curve" smooth="yes"/>
	  <point x="342" y="999" type="line"/>
	  <point x="148" y="999" type="line"/>
	</contour>
	<contour>
	  <point x="887" y="0" type="move" name="mark0"/>
	</contour>
  </outline>
</glyph>
<glyph name="y" format="1">
  <advance width="976"/>
  <unicode hex="0079"/>
  <outline>
	<contour>
	  <point x="110" y="-251" type="curve"/>
	  <point x="74" y="-402" type="line"/>
	  <point x="108" y="-414"/>
	  <point x="147" y="-422"/>
	  <point x="195" y="-422" type="curve" smooth="yes"/>
	  <point x="403" y="-422"/>
	  <point x="507" y="-277"/>
	  <point x="581" y="-69" type="curve" smooth="yes"/>
	  <point x="952" y="999" type="line"/>
	  <point x="762" y="999" type="line"/>
	  <point x="596" y="469" type="line"/>
	  <point x="569" y="379"/>
	  <point x="544" y="278"/>
	  <point x="516" y="187" type="curve"/>
	  <point x="508" y="187" type="line"/>
	  <point x="478" y="281"/>
	  <point x="445" y="382"/>
	  <point x="414" y="469" type="curve" smooth="yes"/>
	  <point x="223" y="999" type="line"/>
	  <point x="25" y="999" type="line"/>
	  <point x="423" y="3" type="line"/>
	  <point x="401" y="-67" type="line"/>
	  <point x="363" y="-182"/>
	  <point x="295" y="-265"/>
	  <point x="185" y="-265" type="curve" smooth="yes"/>
	  <point x="161" y="-265"/>
	  <point x="131" y="-257"/>
	</contour>
	<contour>
	  <point x="420" y="-496" type="move" name="mark0"/>
	</contour>
  </outline>
</glyph>
<glyph name="z" format="1">
  <advance width="883"/>
  <unicode hex="007A"/>
  <outline>
	<contour>
	  <point x="66" y="0" type="line"/>
	  <point x="831" y="0" type="line"/>
	  <point x="831" y="155" type="line"/>
	  <point x="308" y="155" type="line"/>
	  <point x="815" y="896" type="line"/>
	  <point x="815" y="999" type="line"/>
	  <point x="122" y="999" type="line"/>
	  <point x="122" y="844" type="line"/>
	  <point x="573" y="844" type="line"/>
	  <point x="66" y="103" type="line"/>
	</contour>
	<contour>
	  <point x="473" y="-45" type="move" name="mark0"/>
	</contour>
  </outline>
</glyph>
<glyph name="bar" format="1">
  <advance width="504"/>
  <unicode hex="007C"/>
  <outline>
	<contour>
	  <point x="186" y="-512" type="line"/>
	  <point x="319" y="-512" type="line"/>
	  <point x="319" y="1536" type="line"/>
	  <point x="186" y="1536" type="line"/>
	</contour>
  </outline>
</glyph>
<glyph name="braceright" format="1">
  <advance width="636"/>
  <unicode hex="007D"/>
  <outline>
	<contour>
	  <point x="69" y="-203" type="line"/>
	  <point x="69" y="-311" type="line"/>
	  <point x="167" y="-311" type="line"/>
	  <point x="333" y="-311"/>
	  <point x="410" y="-249"/>
	  <point x="410" y="-36" type="curve" smooth="yes"/>
	  <point x="410" y="114"/>
	  <point x="391" y="216"/>
	  <point x="391" y="351" type="curve" smooth="yes"/>
	  <point x="391" y="430"/>
	  <point x="431" y="507"/>
	  <point x="567" y="510" type="curve"/>
	  <point x="567" y="629" type="line"/>
	  <point x="431" y="632"/>
	  <point x="391" y="708"/>
	  <point x="391" y="785" type="curve" smooth="yes"/>
	  <point x="391" y="914"/>
	  <point x="410" y="1032"/>
	  <point x="410" y="1175" type="curve" smooth="yes"/>
	  <point x="410" y="1385"/>
	  <point x="333" y="1450"/>
	  <point x="167" y="1450" type="curve" smooth="yes"/>
	  <point x="69" y="1450" type="line"/>
	  <point x="69" y="1341" type="line"/>
	  <point x="120" y="1341" type="line"/>
	  <point x="226" y="1341"/>
	  <point x="253" y="1293"/>
	  <point x="253" y="1163" type="curve" smooth="yes"/>
	  <point x="253" y="1047"/>
	  <point x="244" y="924"/>
	  <point x="244" y="800" type="curve" smooth="yes"/>
	  <point x="244" y="663"/>
	  <point x="280" y="598"/>
	  <point x="370" y="573" type="curve"/>
	  <point x="370" y="565" type="line"/>
	  <point x="280" y="541"/>
	  <point x="244" y="474"/>
	  <point x="244" y="339" type="curve" smooth="yes"/>
	  <point x="244" y="203"/>
	  <point x="253" y="97"/>
	  <point x="253" y="-25" type="curve" smooth="yes"/>
	  <point x="253" y="-154"/>
	  <point x="226" y="-203"/>
	  <point x="120" y="-203" type="curve" smooth="yes"/>
	</contour>
  </outline>
</glyph>
<glyph name="exclamdown" format="1">
  <advance width="611"/>
  <unicode hex="00A1"/>
  <outline>
	<contour>
	  <point x="371" y="581" type="line"/>
	  <point x="240" y="581" type="line"/>
	  <point x="214" y="-166" type="line"/>
	  <point x="208" y="-373" type="line"/>
	  <point x="403" y="-373" type="line"/>
	  <point x="398" y="-166" type="line"/>
	</contour>
	<contour>
	  <point x="439" y="885" type="curve" smooth="yes"/>
	  <point x="439" y="965"/>
	  <point x="379" y="1024"/>
	  <point x="306" y="1024" type="curve" smooth="yes"/>
	  <point x="232" y="1024"/>
	  <point x="173" y="965"/>
	  <point x="173" y="885" type="curve" smooth="yes"/>
	  <point x="173" y="802"/>
	  <point x="232" y="744"/>
	  <point x="306" y="744" type="curve" smooth="yes"/>
	  <point x="379" y="744"/>
	  <point x="439" y="802"/>
	</contour>
  </outline>
</glyph>
<glyph name="dieresis" format="1">
  <advance width="1115"/>
  <unicode hex="00A8"/>
  <outline>
	<contour>
	  <point x="376" y="1198" type="curve" smooth="yes"/>
	  <point x="439" y="1198"/>
	  <point x="484" y="1244"/>
	  <point x="484" y="1306" type="curve" smooth="yes"/>
	  <point x="484" y="1368"/>
	  <point x="439" y="1414"/>
	  <point x="376" y="1414" type="curve" smooth="yes"/>
	  <point x="314" y="1414"/>
	  <point x="269" y="1368"/>
	  <point x="269" y="1306" type="curve" smooth="yes"/>
	  <point x="269" y="1244"/>
	  <point x="314" y="1198"/>
	</contour>
	<contour>
	  <point x="739" y="1198" type="curve" smooth="yes"/>
	  <point x="803" y="1198"/>
	  <point x="846" y="1244"/>
	  <point x="846" y="1306" type="curve" smooth="yes"/>
	  <point x="846" y="1368"/>
	  <point x="803" y="1414"/>
	  <point x="739" y="1414" type="curve" smooth="yes"/>
	  <point x="677" y="1414"/>
	  <point x="632" y="1368"/>
	  <point x="632" y="1306" type="curve" smooth="yes"/>
	  <point x="632" y="1244"/>
	  <point x="677" y="1198"/>
	</contour>
  </outline>
</glyph>
<glyph name="logicalnot" format="1">
  <advance width="1030"/>
  <unicode hex="00AC"/>
  <outline>
	<contour>
	  <point x="70" y="604" type="line"/>
	  <point x="809" y="604" type="line"/>
	  <point x="809" y="209" type="line"/>
	  <point x="960" y="209" type="line"/>
	  <point x="960" y="747" type="line"/>
	  <point x="70" y="747" type="line"/>
	</contour>
  </outline>
</glyph>
<glyph name="macron" format="1">
  <advance width="1115"/>
  <unicode hex="00AF"/>
  <outline>
	<contour>
	  <point x="302" y="1228" type="line"/>
	  <point x="815" y="1228" type="line"/>
	  <point x="815" y="1358" type="line"/>
	  <point x="302" y="1358" type="line"/>
	</contour>
  </outline>
</glyph>
<glyph name="acute" format="1">
  <advance width="1115"/>
  <unicode hex="00B4"/>
  <outline>
	<contour>
	  <point x="799" y="1466" type="line"/>
	  <point x="602" y="1466" type="line"/>
	  <point x="418" y="1174" type="line"/>
	  <point x="564" y="1174" type="line"/>
	</contour>
  </outline>
</glyph>
<glyph name="periodcentered" format="1">
  <advance width="529"/>
  <unicode hex="00B7"/>
  <outline>
	<contour>
	  <point x="132" y="657" type="curve" smooth="yes"/>
	  <point x="132" y="578"/>
	  <point x="191" y="518"/>
	  <point x="265" y="518" type="curve" smooth="yes"/>
	  <point x="338" y="518"/>
	  <point x="398" y="578"/>
	  <point x="398" y="657" type="curve" smooth="yes"/>
	  <point x="398" y="740"/>
	  <point x="338" y="799"/>
	  <point x="265" y="799" type="curve" smooth="yes"/>
	  <point x="191" y="799"/>
	  <point x="132" y="740"/>
	</contour>
  </outline>
</glyph>
<glyph name="cedilla" format="1">
  <advance width="1115"/>
  <unicode hex="00B8"/>
  <outline>
	<contour>
	  <point x="440" y="-154" type="line"/>
	  <point x="525" y="-175"/>
	  <point x="569" y="-202"/>
	  <point x="569" y="-252" type="curve" smooth="yes"/>
	  <point x="569" y="-306"/>
	  <point x="494" y="-335"/>
	  <point x="389" y="-348" type="curve"/>
	  <point x="407" y="-439" type="line"/>
	  <point x="567" y="-426"/>
	  <point x="715" y="-370"/>
	  <point x="715" y="-247" type="curve" smooth="yes"/>
	  <point x="715" y="-163"/>
	  <point x="661" y="-122"/>
	  <point x="594" y="-99" type="curve"/>
	  <point x="644" y="6" type="line"/>
	  <point x="522" y="6" type="line"/>
	</contour>
  </outline>
</glyph>
<glyph name="guillemotright" format="1">
  <advance width="903"/>
  <unicode hex="00BB"/>
  <outline>
	<contour>
	  <point x="107" y="195" type="line"/>
	  <point x="185" y="131" type="line"/>
	  <point x="465" y="445" type="line"/>
	  <point x="465" y="588" type="line"/>
	  <point x="185" y="901" type="line"/>
	  <point x="107" y="834" type="line"/>
	  <point x="345" y="516" type="line"/>
	</contour>
	<contour>
	  <point x="450" y="195" type="line"/>
	  <point x="531" y="131" type="line"/>
	  <point x="809" y="445" type="line"/>
	  <point x="809" y="588" type="line"/>
	  <point x="531" y="901" type="line"/>
	  <point x="450" y="834" type="line"/>
	  <point x="689" y="516" type="line"/>
	</contour>
  </outline>
</glyph>
<glyph name="onequarter" format="1">
  <advance width="1610"/>
  <unicode hex="00BC"/>
  <outline>
	<contour>
	  <point x="446" y="544" type="line"/>
	  <point x="446" y="1342" type="line"/>
	  <point x="326" y="1342" type="line"/>
	  <point x="267" y="1300"/>
	  <point x="216" y="1275"/>
	  <point x="123" y="1259" type="curve"/>
	  <point x="123" y="1164" type="line"/>
	  <point x="298" y="1164" type="line"/>
	  <point x="298" y="544" type="line"/>
	</contour>
	<contour>
	  <point x="1109" y="1367" type="line"/>
	  <point x="371" y="-25" type="line"/>
	  <point x="496" y="-25" type="line"/>
	  <point x="1234" y="1367" type="line"/>
	</contour>
	<contour>
	  <point x="1086" y="310" type="line"/>
	  <point x="1205" y="504" type="line"/>
	  <point x="1303" y="669" type="line"/>
	  <point x="1312" y="669" type="line"/>
	  <point x="1301" y="443" type="line"/>
	  <point x="1301" y="310" type="line"/>
	</contour>
	<contour>
	  <point x="1553" y="310" type="line"/>
	  <point x="1434" y="310" type="line"/>
	  <point x="1434" y="799" type="line"/>
	  <point x="1264" y="799" type="line"/>
	  <point x="938" y="282" type="line"/>
	  <point x="938" y="207" type="line"/>
	  <point x="1301" y="207" type="line"/>
	  <point x="1301" y="0" type="line"/>
	  <point x="1434" y="0" type="line"/>
	  <point x="1434" y="207" type="line"/>
	  <point x="1553" y="207" type="line"/>
	</contour>
  </outline>
</glyph>
<glyph name="onehalf" format="1">
  <advance width="1669"/>
  <unicode hex="00BD"/>
  <outline>
	<contour>
	  <point x="298" y="544" type="line"/>
	  <point x="446" y="544" type="line"/>
	  <point x="446" y="1342" type="line"/>
	  <point x="326" y="1342" type="line"/>
	  <point x="267" y="1300"/>
	  <point x="216" y="1275"/>
	  <point x="123" y="1259" type="curve"/>
	  <point x="123" y="1164" type="line"/>
	  <point x="298" y="1164" type="line"/>
	</contour>
	<contour>
	  <point x="457" y="-25" type="line"/>
	  <point x="1195" y="1367" type="line"/>
	  <point x="1069" y="1367" type="line"/>
	  <point x="332" y="-25" type="line"/>
	</contour>
	<contour>
	  <point x="1018" y="0" type="line"/>
	  <point x="1575" y="0" type="line"/>
	  <point x="1575" y="126" type="line"/>
	  <point x="1255" y="126" type="line"/>
	  <point x="1414" y="291"/>
	  <point x="1536" y="414"/>
	  <point x="1536" y="563" type="curve" smooth="yes"/>
	  <point x="1536" y="732"/>
	  <point x="1427" y="823"/>
	  <point x="1264" y="823" type="curve" smooth="yes"/>
	  <point x="1153" y="823"/>
	  <point x="1056" y="761"/>
	  <point x="991" y="666" type="curve"/>
	  <point x="1077" y="587" type="line"/>
	  <point x="1122" y="651"/>
	  <point x="1179" y="700"/>
	  <point x="1244" y="700" type="curve" smooth="yes"/>
	  <point x="1335" y="700"/>
	  <point x="1392" y="639"/>
	  <point x="1392" y="540" type="curve" smooth="yes"/>
	  <point x="1392" y="423"/>
	  <point x="1257" y="297"/>
	  <point x="1018" y="84" type="curve"/>
	</contour>
  </outline>
</glyph>
<glyph name="threequarters" format="1">
  <advance width="1638"/>
  <unicode hex="00BE"/>
  <outline>
	<contour>
	  <point x="185" y="1157" type="line"/>
	  <point x="230" y="1213"/>
	  <point x="285" y="1251"/>
	  <point x="343" y="1251" type="curve" smooth="yes"/>
	  <point x="426" y="1251"/>
	  <point x="478" y="1204"/>
	  <point x="478" y="1131" type="curve" smooth="yes"/>
	  <point x="478" y="1052"/>
	  <point x="402" y="996"/>
	  <point x="271" y="996" type="curve"/>
	  <point x="271" y="904" type="line"/>
	  <point x="423" y="904"/>
	  <point x="509" y="857"/>
	  <point x="509" y="769" type="curve" smooth="yes"/>
	  <point x="509" y="685"/>
	  <point x="441" y="635"/>
	  <point x="357" y="635" type="curve" smooth="yes"/>
	  <point x="278" y="635"/>
	  <point x="210" y="678"/>
	  <point x="161" y="749" type="curve"/>
	  <point x="66" y="677" type="line"/>
	  <point x="129" y="585"/>
	  <point x="235" y="519"/>
	  <point x="368" y="519" type="curve" smooth="yes"/>
	  <point x="525" y="519"/>
	  <point x="655" y="612"/>
	  <point x="655" y="760" type="curve" smooth="yes"/>
	  <point x="655" y="863"/>
	  <point x="578" y="931"/>
	  <point x="490" y="957" type="curve"/>
	  <point x="570" y="995"/>
	  <point x="624" y="1058"/>
	  <point x="624" y="1150" type="curve" smooth="yes"/>
	  <point x="624" y="1285"/>
	  <point x="506" y="1367"/>
	  <point x="365" y="1367" type="curve" smooth="yes"/>
	  <point x="252" y="1367"/>
	  <point x="170" y="1317"/>
	  <point x="98" y="1234" type="curve"/>
	</contour>
	<contour>
	  <point x="1180" y="1367" type="line"/>
	  <point x="442" y="-25" type="line"/>
	  <point x="567" y="-25" type="line"/>
	  <point x="1303" y="1367" type="line"/>
	</contour>
	<contour>
	  <point x="1114" y="310" type="line"/>
	  <point x="1234" y="504" type="line"/>
	  <point x="1332" y="669" type="line"/>
	  <point x="1340" y="669" type="line"/>
	  <point x="1330" y="443" type="line"/>
	  <point x="1330" y="310" type="line"/>
	</contour>
	<contour>
	  <point x="1582" y="310" type="line"/>
	  <point x="1463" y="310" type="line"/>
	  <point x="1463" y="799" type="line"/>
	  <point x="1292" y="799" type="line"/>
	  <point x="965" y="282" type="line"/>
	  <point x="965" y="207" type="line"/>
	  <point x="1330" y="207" type="line"/>
	  <point x="1330" y="0" type="line"/>
	  <point x="1463" y="0" type="line"/>
	  <point x="1463" y="207" type="line"/>
	  <point x="1582" y="207" type="line"/>
	</contour>
  </outline>
</glyph>
<glyph name="questiondown" format="1">
  <advance width="884"/>
  <unicode hex="00BF"/>
  <outline>
	<contour>
	  <point x="559" y="581" type="curve"/>
	  <point x="389" y="581" type="line"/>
	  <point x="422" y="303"/>
	  <point x="96" y="200"/>
	  <point x="96" y="-66" type="curve" smooth="yes"/>
	  <point x="96" y="-275"/>
	  <point x="242" y="-397"/>
	  <point x="457" y="-397" type="curve" smooth="yes"/>
	  <point x="603" y="-397"/>
	  <point x="719" y="-324"/>
	  <point x="806" y="-224" type="curve"/>
	  <point x="695" y="-125" type="line"/>
	  <point x="633" y="-195"/>
	  <point x="558" y="-237"/>
	  <point x="470" y="-237" type="curve" smooth="yes"/>
	  <point x="347" y="-237"/>
	  <point x="283" y="-157"/>
	  <point x="283" y="-53" type="curve" smooth="yes"/>
	  <point x="283" y="152"/>
	  <point x="604" y="269"/>
	</contour>
	<contour>
	  <point x="604" y="885" type="curve" smooth="yes"/>
	  <point x="604" y="965"/>
	  <point x="544" y="1024"/>
	  <point x="472" y="1024" type="curve" smooth="yes"/>
	  <point x="397" y="1024"/>
	  <point x="338" y="965"/>
	  <point x="338" y="885" type="curve" smooth="yes"/>
	  <point x="338" y="802"/>
	  <point x="397" y="744"/>
	  <point x="472" y="744" type="curve" smooth="yes"/>
	  <point x="544" y="744"/>
	  <point x="604" y="802"/>
	</contour>
  </outline>
</glyph>
<glyph name="Agrave" format="1">
  <advance width="1114"/>
  <unicode hex="00C0"/>
  <outline>
	<contour>
	  <point x="667" y="1445" type="line"/>
	  <point x="490" y="1676" type="line"/>
	  <point x="275" y="1676" type="line"/>
	  <point x="508" y="1445" type="line"/>
	</contour>
	<contour>
	  <point x="362" y="548" type="line"/>
	  <point x="422" y="738" type="line"/>
	  <point x="468" y="884"/>
	  <point x="510" y="1034"/>
	  <point x="550" y="1186" type="curve"/>
	  <point x="558" y="1186" type="line"/>
	  <point x="600" y="1034"/>
	  <point x="642" y="884"/>
	  <point x="687" y="738" type="curve" smooth="yes"/>
	  <point x="745" y="548" type="line"/>
	</contour>
	<contour>
	  <point x="912" y="0" type="line"/>
	  <point x="1117" y="0" type="line"/>
	  <point x="669" y="1342" type="line"/>
	  <point x="446" y="1342" type="line"/>
	  <point x="-3" y="0" type="line"/>
	  <point x="196" y="0" type="line"/>
	  <point x="316" y="393" type="line"/>
	  <point x="791" y="393" type="line"/>
	</contour>
  </outline>
</glyph>
<glyph name="Atilde" format="1">
  <advance width="1114"/>
  <unicode hex="00C3"/>
  <outline>
	<contour>
	  <point x="756" y="1685" type="line"/>
	  <point x="742" y="1618"/>
	  <point x="713" y="1581"/>
	  <point x="673" y="1581" type="curve" smooth="yes"/>
	  <point x="600" y="1581"/>
	  <point x="537" y="1685"/>
	  <point x="430" y="1685" type="curve" smooth="yes"/>
	  <point x="331" y="1685"/>
	  <point x="261" y="1591"/>
	  <point x="248" y="1453" type="curve"/>
	  <point x="353" y="1453" type="line"/>
	  <point x="364" y="1523"/>
	  <point x="395" y="1557"/>
	  <point x="434" y="1557" type="curve" smooth="yes"/>
	  <point x="508" y="1557"/>
	  <point x="569" y="1453"/>
	  <point x="678" y="1453" type="curve" smooth="yes"/>
	  <point x="778" y="1453"/>
	  <point x="847" y="1548"/>
	  <point x="859" y="1685" type="curve"/>
	</contour>
	<contour>
	  <point x="362" y="548" type="line"/>
	  <point x="422" y="738" type="line"/>
	  <point x="468" y="884"/>
	  <point x="510" y="1034"/>
	  <point x="550" y="1186" type="curve"/>
	  <point x="558" y="1186" type="line"/>
	  <point x="600" y="1034"/>
	  <point x="642" y="884"/>
	  <point x="687" y="738" type="curve" smooth="yes"/>
	  <point x="745" y="548" type="line"/>
	</contour>
	<contour>
	  <point x="912" y="0" type="line"/>
	  <point x="1117" y="0" type="line"/>
	  <point x="669" y="1342" type="line"/>
	  <point x="446" y="1342" type="line"/>
	  <point x="-3" y="0" type="line"/>
	  <point x="196" y="0" type="line"/>
	  <point x="316" y="393" type="line"/>
	  <point x="791" y="393" type="line"/>
	</contour>
  </outline>
</glyph>
<glyph name="Adieresis" format="1">
  <advance width="1114"/>
  <unicode hex="00C4"/>
  <outline>
	<contour>
	  <point x="735" y="1459" type="curve" smooth="yes"/>
	  <point x="797" y="1459"/>
	  <point x="843" y="1505"/>
	  <point x="843" y="1567" type="curve" smooth="yes"/>
	  <point x="843" y="1630"/>
	  <point x="797" y="1675"/>
	  <point x="735" y="1675" type="curve" smooth="yes"/>
	  <point x="673" y="1675"/>
	  <point x="628" y="1630"/>
	  <point x="628" y="1567" type="curve" smooth="yes"/>
	  <point x="628" y="1505"/>
	  <point x="673" y="1459"/>
	</contour>
	<contour>
	  <point x="372" y="1459" type="curve" smooth="yes"/>
	  <point x="435" y="1459"/>
	  <point x="480" y="1505"/>
	  <point x="480" y="1567" type="curve" smooth="yes"/>
	  <point x="480" y="1630"/>
	  <point x="435" y="1675"/>
	  <point x="372" y="1675" type="curve" smooth="yes"/>
	  <point x="309" y="1675"/>
	  <point x="264" y="1630"/>
	  <point x="264" y="1567" type="curve" smooth="yes"/>
	  <point x="264" y="1505"/>
	  <point x="309" y="1459"/>
	</contour>
	<contour>
	  <point x="362" y="548" type="line"/>
	  <point x="422" y="738" type="line"/>
	  <point x="468" y="884"/>
	  <point x="510" y="1034"/>
	  <point x="550" y="1186" type="curve"/>
	  <point x="558" y="1186" type="line"/>
	  <point x="600" y="1034"/>
	  <point x="642" y="884"/>
	  <point x="687" y="738" type="curve" smooth="yes"/>
	  <point x="745" y="548" type="line"/>
	</contour>
	<contour>
	  <point x="912" y="0" type="line"/>
	  <point x="1117" y="0" type="line"/>
	  <point x="669" y="1342" type="line"/>
	  <point x="446" y="1342" type="line"/>
	  <point x="-3" y="0" type="line"/>
	  <point x="196" y="0" type="line"/>
	  <point x="316" y="393" type="line"/>
	  <point x="791" y="393" type="line"/>
	</contour>
  </outline>
</glyph>
<glyph name="Aring" format="1">
  <advance width="1114"/>
  <unicode hex="00C5"/>
  <outline>
	<contour>
	  <point x="554" y="1716" type="curve" smooth="yes"/>
	  <point x="605" y="1716"/>
	  <point x="648" y="1676"/>
	  <point x="648" y="1615" type="curve" smooth="yes"/>
	  <point x="648" y="1549"/>
	  <point x="605" y="1511"/>
	  <point x="554" y="1511" type="curve" smooth="yes"/>
	  <point x="501" y="1511"/>
	  <point x="459" y="1549"/>
	  <point x="459" y="1615" type="curve" smooth="yes"/>
	  <point x="459" y="1676"/>
	  <point x="501" y="1716"/>
	</contour>
	<contour>
	  <point x="554" y="1431" type="curve" smooth="yes"/>
	  <point x="668" y="1431"/>
	  <point x="752" y="1502"/>
	  <point x="752" y="1615" type="curve" smooth="yes"/>
	  <point x="752" y="1725"/>
	  <point x="668" y="1799"/>
	  <point x="554" y="1799" type="curve" smooth="yes"/>
	  <point x="437" y="1799"/>
	  <point x="355" y="1725"/>
	  <point x="355" y="1615" type="curve" smooth="yes"/>
	  <point x="355" y="1502"/>
	  <point x="437" y="1431"/>
	</contour>
	<contour>
	  <point x="362" y="548" type="line"/>
	  <point x="422" y="738" type="line"/>
	  <point x="468" y="884"/>
	  <point x="510" y="1034"/>
	  <point x="550" y="1186" type="curve"/>
	  <point x="558" y="1186" type="line"/>
	  <point x="600" y="1034"/>
	  <point x="642" y="884"/>
	  <point x="687" y="738" type="curve" smooth="yes"/>
	  <point x="745" y="548" type="line"/>
	</contour>
	<contour>
	  <point x="912" y="0" type="line"/>
	  <point x="1117" y="0" type="line"/>
	  <point x="669" y="1342" type="line"/>
	  <point x="446" y="1342" type="line"/>
	  <point x="-3" y="0" type="line"/>
	  <point x="196" y="0" type="line"/>
	  <point x="316" y="393" type="line"/>
	  <point x="791" y="393" type="line"/>
	</contour>
  </outline>
</glyph>
<glyph name="AE" format="1">
  <advance width="1683"/>
  <unicode hex="00C6"/>
  <outline>
	<contour>
	  <point x="476" y="530" type="line"/>
	  <point x="593" y="762" type="line"/>
	  <point x="661" y="902"/>
	  <point x="735" y="1047"/>
	  <point x="804" y="1190" type="curve"/>
	  <point x="812" y="1190" type="line"/>
	  <point x="812" y="530" type="line"/>
	</contour>
	<contour>
	  <point x="1006" y="165" type="line"/>
	  <point x="1006" y="620" type="line"/>
	  <point x="1475" y="620" type="line"/>
	  <point x="1475" y="784" type="line"/>
	  <point x="1006" y="784" type="line"/>
	  <point x="1006" y="1178" type="line"/>
	  <point x="1567" y="1178" type="line"/>
	  <point x="1567" y="1342" type="line"/>
	  <point x="696" y="1342" type="line"/>
	  <point x="4" y="0" type="line"/>
	  <point x="206" y="0" type="line"/>
	  <point x="397" y="375" type="line"/>
	  <point x="812" y="375" type="line"/>
	  <point x="812" y="0" type="line"/>
	  <point x="1587" y="0" type="line"/>
	  <point x="1587" y="165" type="line"/>
	</contour>
	<contour>
	  <point x="1140" y="1421" type="move" name="mark0"/>
	</contour>
  </outline>
</glyph>
<glyph name="Egrave" format="1">
  <advance width="1078"/>
  <unicode hex="00C8"/>
  <outline>
	<contour>
	  <point x="174" y="0" type="line"/>
	  <point x="981" y="0" type="line"/>
	  <point x="981" y="165" type="line"/>
	  <point x="370" y="165" type="line"/>
	  <point x="370" y="620" type="line"/>
	  <point x="868" y="620" type="line"/>
	  <point x="868" y="784" type="line"/>
	  <point x="370" y="784" type="line"/>
	  <point x="370" y="1178" type="line"/>
	  <point x="960" y="1178" type="line"/>
	  <point x="960" y="1342" type="line"/>
	  <point x="174" y="1342" type="line"/>
	</contour>
	<contour>
	  <point x="534" y="1445" type="line"/>
	  <point x="693" y="1445" type="line"/>
	  <point x="516" y="1676" type="line"/>
	  <point x="300" y="1676" type="line"/>
	</contour>
  </outline>
</glyph>
<glyph name="Edieresis" format="1">
  <advance width="1078"/>
  <unicode hex="00CB"/>
  <outline>
	<contour>
	  <point x="174" y="0" type="line"/>
	  <point x="981" y="0" type="line"/>
	  <point x="981" y="165" type="line"/>
	  <point x="370" y="165" type="line"/>
	  <point x="370" y="620" type="line"/>
	  <point x="868" y="620" type="line"/>
	  <point x="868" y="784" type="line"/>
	  <point x="370" y="784" type="line"/>
	  <point x="370" y="1178" type="line"/>
	  <point x="960" y="1178" type="line"/>
	  <point x="960" y="1342" type="line"/>
	  <point x="174" y="1342" type="line"/>
	</contour>
	<contour>
	  <point x="397" y="1459" type="curve" smooth="yes"/>
	  <point x="461" y="1459"/>
	  <point x="505" y="1505"/>
	  <point x="505" y="1567" type="curve" smooth="yes"/>
	  <point x="505" y="1630"/>
	  <point x="461" y="1675"/>
	  <point x="397" y="1675" type="curve" smooth="yes"/>
	  <point x="335" y="1675"/>
	  <point x="291" y="1630"/>
	  <point x="291" y="1567" type="curve" smooth="yes"/>
	  <point x="291" y="1505"/>
	  <point x="335" y="1459"/>
	</contour>
	<contour>
	  <point x="761" y="1459" type="curve" smooth="yes"/>
	  <point x="823" y="1459"/>
	  <point x="869" y="1505"/>
	  <point x="869" y="1567" type="curve" smooth="yes"/>
	  <point x="869" y="1630"/>
	  <point x="823" y="1675"/>
	  <point x="761" y="1675" type="curve" smooth="yes"/>
	  <point x="698" y="1675"/>
	  <point x="652" y="1630"/>
	  <point x="652" y="1567" type="curve" smooth="yes"/>
	  <point x="652" y="1505"/>
	  <point x="698" y="1459"/>
	</contour>
  </outline>
</glyph>
<glyph name="Igrave" format="1">
  <advance width="544"/>
  <unicode hex="00CC"/>
  <outline>
	<contour>
	  <point x="174" y="0" type="line"/>
	  <point x="370" y="0" type="line"/>
	  <point x="370" y="1342" type="line"/>
	  <point x="174" y="1342" type="line"/>
	</contour>
	<contour>
	  <point x="226" y="1445" type="line"/>
	  <point x="386" y="1445" type="line"/>
	  <point x="208" y="1676" type="line"/>
	  <point x="-8" y="1676" type="line"/>
	</contour>
  </outline>
</glyph>
<glyph name="Iacute" format="1">
  <advance width="544"/>
  <unicode hex="00CD"/>
  <outline>
	<contour>
	  <point x="174" y="0" type="line"/>
	  <point x="370" y="0" type="line"/>
	  <point x="370" y="1342" type="line"/>
	  <point x="174" y="1342" type="line"/>
	</contour>
	<contour>
	  <point x="552" y="1676" type="line"/>
	  <point x="336" y="1676" type="line"/>
	  <point x="159" y="1445" type="line"/>
	  <point x="318" y="1445" type="line"/>
	</contour>
  </outline>
</glyph>
<glyph name="Icircumflex" format="1">
  <advance width="544"/>
  <unicode hex="00CE"/>
  <outline>
	<contour>
	  <point x="174" y="0" type="line"/>
	  <point x="370" y="0" type="line"/>
	  <point x="370" y="1342" type="line"/>
	  <point x="174" y="1342" type="line"/>
	</contour>
	<contour>
	  <point x="136" y="1445" type="line"/>
	  <point x="268" y="1581" type="line"/>
	  <point x="276" y="1581" type="line"/>
	  <point x="409" y="1445" type="line"/>
	  <point x="563" y="1445" type="line"/>
	  <point x="366" y="1676" type="line"/>
	  <point x="178" y="1676" type="line"/>
	  <point x="-18" y="1445" type="line"/>
	</contour>
  </outline>
</glyph>
<glyph name="Idieresis" format="1">
  <advance width="544"/>
  <unicode hex="00CF"/>
  <outline>
	<contour>
	  <point x="174" y="0" type="line"/>
	  <point x="370" y="0" type="line"/>
	  <point x="370" y="1342" type="line"/>
	  <point x="174" y="1342" type="line"/>
	</contour>
	<contour>
	  <point x="91" y="1459" type="curve" smooth="yes"/>
	  <point x="153" y="1459"/>
	  <point x="199" y="1505"/>
	  <point x="199" y="1567" type="curve" smooth="yes"/>
	  <point x="199" y="1630"/>
	  <point x="153" y="1675"/>
	  <point x="91" y="1675" type="curve" smooth="yes"/>
	  <point x="27" y="1675"/>
	  <point x="-17" y="1630"/>
	  <point x="-17" y="1567" type="curve" smooth="yes"/>
	  <point x="-17" y="1505"/>
	  <point x="27" y="1459"/>
	</contour>
	<contour>
	  <point x="453" y="1459" type="curve" smooth="yes"/>
	  <point x="517" y="1459"/>
	  <point x="562" y="1505"/>
	  <point x="562" y="1567" type="curve" smooth="yes"/>
	  <point x="562" y="1630"/>
	  <point x="517" y="1675"/>
	  <point x="453" y="1675" type="curve" smooth="yes"/>
	  <point x="391" y="1675"/>
	  <point x="345" y="1630"/>
	  <point x="345" y="1567" type="curve" smooth="yes"/>
	  <point x="345" y="1505"/>
	  <point x="391" y="1459"/>
	</contour>
  </outline>
</glyph>
<glyph name="Ntilde" format="1">
  <advance width="1323"/>
  <unicode hex="00D1"/>
  <outline>
	<contour>
	  <point x="174" y="0" type="line"/>
	  <point x="359" y="0" type="line"/>
	  <point x="359" y="660" type="line"/>
	  <point x="359" y="805"/>
	  <point x="345" y="954"/>
	  <point x="335" y="1092" type="curve"/>
	  <point x="344" y="1092" type="line"/>
	  <point x="486" y="813" type="line"/>
	  <point x="946" y="0" type="line"/>
	  <point x="1147" y="0" type="line"/>
	  <point x="1147" y="1342" type="line"/>
	  <point x="962" y="1342" type="line"/>
	  <point x="962" y="688" type="line"/>
	  <point x="962" y="544"/>
	  <point x="978" y="386"/>
	  <point x="987" y="250" type="curve"/>
	  <point x="979" y="250" type="line"/>
	  <point x="837" y="532" type="line"/>
	  <point x="374" y="1342" type="line"/>
	  <point x="174" y="1342" type="line"/>
	</contour>
	<contour>
	  <point x="791" y="1453" type="curve" smooth="yes"/>
	  <point x="891" y="1453"/>
	  <point x="959" y="1548"/>
	  <point x="974" y="1685" type="curve"/>
	  <point x="868" y="1685" type="line"/>
	  <point x="857" y="1618"/>
	  <point x="824" y="1581"/>
	  <point x="786" y="1581" type="curve" smooth="yes"/>
	  <point x="714" y="1581"/>
	  <point x="651" y="1685"/>
	  <point x="543" y="1685" type="curve" smooth="yes"/>
	  <point x="442" y="1685"/>
	  <point x="374" y="1591"/>
	  <point x="361" y="1453" type="curve"/>
	  <point x="465" y="1453" type="line"/>
	  <point x="477" y="1523"/>
	  <point x="509" y="1557"/>
	  <point x="547" y="1557" type="curve" smooth="yes"/>
	  <point x="620" y="1557"/>
	  <point x="682" y="1453"/>
	</contour>
  </outline>
</glyph>
<glyph name="Ocircumflex" format="1">
  <advance width="1359"/>
  <unicode hex="00D4"/>
  <outline>
	<contour>
	  <point x="680" y="-25" type="curve" smooth="yes"/>
	  <point x="1021" y="-25"/>
	  <point x="1259" y="245"/>
	  <point x="1259" y="677" type="curve" smooth="yes"/>
	  <point x="1259" y="1106"/>
	  <point x="1021" y="1367"/>
	  <point x="680" y="1367" type="curve" smooth="yes"/>
	  <point x="338" y="1367"/>
	  <point x="99" y="1108"/>
	  <point x="99" y="677" type="curve" smooth="yes"/>
	  <point x="99" y="245"/>
	  <point x="338" y="-25"/>
	</contour>
	<contour>
	  <point x="680" y="145" type="curve" smooth="yes"/>
	  <point x="449" y="145"/>
	  <point x="299" y="354"/>
	  <point x="299" y="677" type="curve" smooth="yes"/>
	  <point x="299" y="999"/>
	  <point x="449" y="1197"/>
	  <point x="680" y="1197" type="curve" smooth="yes"/>
	  <point x="909" y="1197"/>
	  <point x="1059" y="999"/>
	  <point x="1059" y="677" type="curve" smooth="yes"/>
	  <point x="1059" y="354"/>
	  <point x="909" y="145"/>
	</contour>
	<contour>
	  <point x="544" y="1445" type="line"/>
	  <point x="676" y="1581" type="line"/>
	  <point x="684" y="1581" type="line"/>
	  <point x="816" y="1445" type="line"/>
	  <point x="968" y="1445" type="line"/>
	  <point x="772" y="1676" type="line"/>
	  <point x="586" y="1676" type="line"/>
	  <point x="389" y="1445" type="line"/>
	</contour>
  </outline>
</glyph>
<glyph name="Otilde" format="1">
  <advance width="1359"/>
  <unicode hex="00D5"/>
  <outline>
	<contour>
	  <point x="680" y="-25" type="curve" smooth="yes"/>
	  <point x="1021" y="-25"/>
	  <point x="1259" y="245"/>
	  <point x="1259" y="677" type="curve" smooth="yes"/>
	  <point x="1259" y="1106"/>
	  <point x="1021" y="1367"/>
	  <point x="680" y="1367" type="curve" smooth="yes"/>
	  <point x="338" y="1367"/>
	  <point x="99" y="1108"/>
	  <point x="99" y="677" type="curve" smooth="yes"/>
	  <point x="99" y="245"/>
	  <point x="338" y="-25"/>
	</contour>
	<contour>
	  <point x="680" y="145" type="curve" smooth="yes"/>
	  <point x="449" y="145"/>
	  <point x="299" y="354"/>
	  <point x="299" y="677" type="curve" smooth="yes"/>
	  <point x="299" y="999"/>
	  <point x="449" y="1197"/>
	  <point x="680" y="1197" type="curve" smooth="yes"/>
	  <point x="909" y="1197"/>
	  <point x="1059" y="999"/>
	  <point x="1059" y="677" type="curve" smooth="yes"/>
	  <point x="1059" y="354"/>
	  <point x="909" y="145"/>
	</contour>
	<contour>
	  <point x="804" y="1453" type="curve" smooth="yes"/>
	  <point x="903" y="1453"/>
	  <point x="970" y="1548"/>
	  <point x="985" y="1685" type="curve"/>
	  <point x="882" y="1685" type="line"/>
	  <point x="869" y="1618"/>
	  <point x="839" y="1581"/>
	  <point x="799" y="1581" type="curve" smooth="yes"/>
	  <point x="725" y="1581"/>
	  <point x="663" y="1685"/>
	  <point x="554" y="1685" type="curve" smooth="yes"/>
	  <point x="456" y="1685"/>
	  <point x="388" y="1591"/>
	  <point x="374" y="1453" type="curve"/>
	  <point x="479" y="1453" type="line"/>
	  <point x="489" y="1523"/>
	  <point x="520" y="1557"/>
	  <point x="560" y="1557" type="curve" smooth="yes"/>
	  <point x="634" y="1557"/>
	  <point x="695" y="1453"/>
	</contour>
  </outline>
</glyph>
<glyph name="Odieresis" format="1">
  <advance width="1359"/>
  <unicode hex="00D6"/>
  <outline>
	<contour>
	  <point x="680" y="-25" type="curve" smooth="yes"/>
	  <point x="1021" y="-25"/>
	  <point x="1259" y="245"/>
	  <point x="1259" y="677" type="curve" smooth="yes"/>
	  <point x="1259" y="1106"/>
	  <point x="1021" y="1367"/>
	  <point x="680" y="1367" type="curve" smooth="yes"/>
	  <point x="338" y="1367"/>
	  <point x="99" y="1108"/>
	  <point x="99" y="677" type="curve" smooth="yes"/>
	  <point x="99" y="245"/>
	  <point x="338" y="-25"/>
	</contour>
	<contour>
	  <point x="680" y="145" type="curve" smooth="yes"/>
	  <point x="449" y="145"/>
	  <point x="299" y="354"/>
	  <point x="299" y="677" type="curve" smooth="yes"/>
	  <point x="299" y="999"/>
	  <point x="449" y="1197"/>
	  <point x="680" y="1197" type="curve" smooth="yes"/>
	  <point x="909" y="1197"/>
	  <point x="1059" y="999"/>
	  <point x="1059" y="677" type="curve" smooth="yes"/>
	  <point x="1059" y="354"/>
	  <point x="909" y="145"/>
	</contour>
	<contour>
	  <point x="498" y="1459" type="curve" smooth="yes"/>
	  <point x="561" y="1459"/>
	  <point x="606" y="1505"/>
	  <point x="606" y="1567" type="curve" smooth="yes"/>
	  <point x="606" y="1630"/>
	  <point x="561" y="1675"/>
	  <point x="498" y="1675" type="curve" smooth="yes"/>
	  <point x="435" y="1675"/>
	  <point x="389" y="1630"/>
	  <point x="389" y="1567" type="curve" smooth="yes"/>
	  <point x="389" y="1505"/>
	  <point x="435" y="1459"/>
	</contour>
	<contour>
	  <point x="861" y="1459" type="curve" smooth="yes"/>
	  <point x="923" y="1459"/>
	  <point x="969" y="1505"/>
	  <point x="969" y="1567" type="curve" smooth="yes"/>
	  <point x="969" y="1630"/>
	  <point x="923" y="1675"/>
	  <point x="861" y="1675" type="curve" smooth="yes"/>
	  <point x="799" y="1675"/>
	  <point x="753" y="1630"/>
	  <point x="753" y="1567" type="curve" smooth="yes"/>
	  <point x="753" y="1505"/>
	  <point x="799" y="1459"/>
	</contour>
  </outline>
</glyph>
<glyph name="multiply" format="1">
  <advance width="1030"/>
  <unicode hex="00D7"/>
  <outline>
	<contour>
	  <point x="203" y="253" type="line"/>
	  <point x="516" y="575" type="line"/>
	  <point x="827" y="253" type="line"/>
	  <point x="927" y="356" type="line"/>
	  <point x="615" y="676" type="line"/>
	  <point x="927" y="994" type="line"/>
	  <point x="827" y="1097" type="line"/>
	  <point x="516" y="777" type="line"/>
	  <point x="203" y="1097" type="line"/>
	  <point x="101" y="994" type="line"/>
	  <point x="414" y="676" type="line"/>
	  <point x="101" y="356" type="line"/>
	</contour>
  </outline>
</glyph>
<glyph name="Uacute" format="1">
  <advance width="1320"/>
  <unicode hex="00DA"/>
  <outline>
	<contour>
	  <point x="168" y="567" type="line"/>
	  <point x="168" y="132"/>
	  <point x="373" y="-25"/>
	  <point x="660" y="-25" type="curve" smooth="yes"/>
	  <point x="948" y="-25"/>
	  <point x="1152" y="132"/>
	  <point x="1152" y="567" type="curve" smooth="yes"/>
	  <point x="1152" y="1342" type="line"/>
	  <point x="965" y="1342" type="line"/>
	  <point x="965" y="558" type="line"/>
	  <point x="965" y="245"/>
	  <point x="833" y="145"/>
	  <point x="660" y="145" type="curve" smooth="yes"/>
	  <point x="490" y="145"/>
	  <point x="364" y="245"/>
	  <point x="364" y="558" type="curve" smooth="yes"/>
	  <point x="364" y="1342" type="line"/>
	  <point x="168" y="1342" type="line"/>
	</contour>
	<contour>
	  <point x="940" y="1676" type="line"/>
	  <point x="724" y="1676" type="line"/>
	  <point x="546" y="1445" type="line"/>
	  <point x="706" y="1445" type="line"/>
	</contour>
  </outline>
</glyph>
<glyph name="Udieresis" format="1">
  <advance width="1320"/>
  <unicode hex="00DC"/>
  <outline>
	<contour>
	  <point x="168" y="567" type="line"/>
	  <point x="168" y="132"/>
	  <point x="373" y="-25"/>
	  <point x="660" y="-25" type="curve" smooth="yes"/>
	  <point x="948" y="-25"/>
	  <point x="1152" y="132"/>
	  <point x="1152" y="567" type="curve" smooth="yes"/>
	  <point x="1152" y="1342" type="line"/>
	  <point x="965" y="1342" type="line"/>
	  <point x="965" y="558" type="line"/>
	  <point x="965" y="245"/>
	  <point x="833" y="145"/>
	  <point x="660" y="145" type="curve" smooth="yes"/>
	  <point x="490" y="145"/>
	  <point x="364" y="245"/>
	  <point x="364" y="558" type="curve" smooth="yes"/>
	  <point x="364" y="1342" type="line"/>
	  <point x="168" y="1342" type="line"/>
	</contour>
	<contour>
	  <point x="479" y="1459" type="curve" smooth="yes"/>
	  <point x="541" y="1459"/>
	  <point x="587" y="1505"/>
	  <point x="587" y="1567" type="curve" smooth="yes"/>
	  <point x="587" y="1630"/>
	  <point x="541" y="1675"/>
	  <point x="479" y="1675" type="curve" smooth="yes"/>
	  <point x="416" y="1675"/>
	  <point x="371" y="1630"/>
	  <point x="371" y="1567" type="curve" smooth="yes"/>
	  <point x="371" y="1505"/>
	  <point x="416" y="1459"/>
	</contour>
	<contour>
	  <point x="843" y="1459" type="curve" smooth="yes"/>
	  <point x="905" y="1459"/>
	  <point x="949" y="1505"/>
	  <point x="949" y="1567" type="curve" smooth="yes"/>
	  <point x="949" y="1630"/>
	  <point x="905" y="1675"/>
	  <point x="843" y="1675" type="curve" smooth="yes"/>
	  <point x="779" y="1675"/>
	  <point x="734" y="1630"/>
	  <point x="734" y="1567" type="curve" smooth="yes"/>
	  <point x="734" y="1505"/>
	  <point x="779" y="1459"/>
	</contour>
  </outline>
</glyph>
<glyph name="Yacute" format="1">
  <advance width="985"/>
  <unicode hex="00DD"/>
  <outline>
	<contour>
	  <point x="395" y="0" type="line"/>
	  <point x="589" y="0" type="line"/>
	  <point x="589" y="512" type="line"/>
	  <point x="993" y="1342" type="line"/>
	  <point x="791" y="1342" type="line"/>
	  <point x="627" y="977" type="line"/>
	  <point x="587" y="877"/>
	  <point x="541" y="784"/>
	  <point x="497" y="683" type="curve"/>
	  <point x="489" y="683" type="line"/>
	  <point x="444" y="784"/>
	  <point x="404" y="877"/>
	  <point x="362" y="977" type="curve" smooth="yes"/>
	  <point x="200" y="1342" type="line"/>
	  <point x="-9" y="1342" type="line"/>
	  <point x="395" y="512" type="line"/>
	</contour>
	<contour>
	  <point x="772" y="1676" type="line"/>
	  <point x="556" y="1676" type="line"/>
	  <point x="378" y="1445" type="line"/>
	  <point x="537" y="1445" type="line"/>
	</contour>
  </outline>
</glyph>
<glyph name="aring" format="1">
  <advance width="1057"/>
  <unicode hex="00E5"/>
  <outline>
	<contour>
	  <point x="115" y="263" type="curve" smooth="yes"/>
	  <point x="115" y="86"/>
	  <point x="238" y="-25"/>
	  <point x="409" y="-25" type="curve" smooth="yes"/>
	  <point x="531" y="-25"/>
	  <point x="638" y="39"/>
	  <point x="732" y="116" type="curve"/>
	  <point x="737" y="116" type="line"/>
	  <point x="753" y="0" type="line"/>
	  <point x="912" y="0" type="line"/>
	  <point x="912" y="605" type="line"/>
	  <point x="912" y="864"/>
	  <point x="802" y="1024"/>
	  <point x="555" y="1024" type="curve" smooth="yes"/>
	  <point x="395" y="1024"/>
	  <point x="255" y="956"/>
	  <point x="156" y="894" type="curve"/>
	  <point x="231" y="762" type="line"/>
	  <point x="312" y="816"/>
	  <point x="412" y="866"/>
	  <point x="523" y="866" type="curve" smooth="yes"/>
	  <point x="675" y="866"/>
	  <point x="718" y="755"/>
	  <point x="719" y="635" type="curve"/>
	  <point x="299" y="589"/>
	  <point x="115" y="479"/>
	</contour>
	<contour>
	  <point x="303" y="276" type="curve" smooth="yes"/>
	  <point x="303" y="394"/>
	  <point x="407" y="473"/>
	  <point x="719" y="511" type="curve"/>
	  <point x="719" y="253" type="line"/>
	  <point x="631" y="173"/>
	  <point x="558" y="129"/>
	  <point x="467" y="129" type="curve" smooth="yes"/>
	  <point x="372" y="129"/>
	  <point x="303" y="173"/>
	</contour>
	<contour>
	  <point x="555" y="1112" type="curve" smooth="yes"/>
	  <point x="673" y="1112"/>
	  <point x="754" y="1189"/>
	  <point x="754" y="1306" type="curve" smooth="yes"/>
	  <point x="754" y="1421"/>
	  <point x="673" y="1498"/>
	  <point x="555" y="1498" type="curve" smooth="yes"/>
	  <point x="440" y="1498"/>
	  <point x="357" y="1421"/>
	  <point x="357" y="1306" type="curve" smooth="yes"/>
	  <point x="357" y="1189"/>
	  <point x="440" y="1112"/>
	</contour>
	<contour>
	  <point x="555" y="1195" type="curve" smooth="yes"/>
	  <point x="503" y="1195"/>
	  <point x="460" y="1239"/>
	  <point x="460" y="1306" type="curve" smooth="yes"/>
	  <point x="460" y="1372"/>
	  <point x="503" y="1416"/>
	  <point x="555" y="1416" type="curve" smooth="yes"/>
	  <point x="609" y="1416"/>
	  <point x="650" y="1372"/>
	  <point x="650" y="1306" type="curve" smooth="yes"/>
	  <point x="650" y="1239"/>
	  <point x="609" y="1195"/>
	</contour>
  </outline>
</glyph>
<glyph name="edieresis" format="1">
  <advance width="1024"/>
  <unicode hex="00EB"/>
  <outline>
	<contour>
	  <point x="90" y="498" type="curve" smooth="yes"/>
	  <point x="90" y="170"/>
	  <point x="304" y="-25"/>
	  <point x="574" y="-25" type="curve" smooth="yes"/>
	  <point x="707" y="-25"/>
	  <point x="819" y="22"/>
	  <point x="908" y="80" type="curve"/>
	  <point x="841" y="203" type="line"/>
	  <point x="767" y="157"/>
	  <point x="689" y="128"/>
	  <point x="599" y="128" type="curve" smooth="yes"/>
	  <point x="418" y="128"/>
	  <point x="294" y="251"/>
	  <point x="279" y="455" type="curve"/>
	  <point x="940" y="455" type="line"/>
	  <point x="944" y="479"/>
	  <point x="947" y="515"/>
	  <point x="947" y="553" type="curve" smooth="yes"/>
	  <point x="947" y="836"/>
	  <point x="804" y="1024"/>
	  <point x="543" y="1024" type="curve" smooth="yes"/>
	  <point x="312" y="1024"/>
	  <point x="90" y="824"/>
	</contour>
	<contour>
	  <point x="277" y="579" type="line"/>
	  <point x="298" y="768"/>
	  <point x="417" y="873"/>
	  <point x="548" y="873" type="curve" smooth="yes"/>
	  <point x="696" y="873"/>
	  <point x="780" y="766"/>
	  <point x="780" y="579" type="curve"/>
	</contour>
	<contour>
	  <point x="362" y="1198" type="curve" smooth="yes"/>
	  <point x="424" y="1198"/>
	  <point x="470" y="1244"/>
	  <point x="470" y="1306" type="curve" smooth="yes"/>
	  <point x="470" y="1368"/>
	  <point x="424" y="1414"/>
	  <point x="362" y="1414" type="curve" smooth="yes"/>
	  <point x="299" y="1414"/>
	  <point x="254" y="1368"/>
	  <point x="254" y="1306" type="curve" smooth="yes"/>
	  <point x="254" y="1244"/>
	  <point x="299" y="1198"/>
	</contour>
	<contour>
	  <point x="726" y="1198" type="curve" smooth="yes"/>
	  <point x="788" y="1198"/>
	  <point x="834" y="1244"/>
	  <point x="834" y="1306" type="curve" smooth="yes"/>
	  <point x="834" y="1368"/>
	  <point x="788" y="1414"/>
	  <point x="726" y="1414" type="curve" smooth="yes"/>
	  <point x="661" y="1414"/>
	  <point x="617" y="1368"/>
	  <point x="617" y="1306" type="curve" smooth="yes"/>
	  <point x="617" y="1244"/>
	  <point x="661" y="1198"/>
	</contour>
  </outline>
</glyph>
<glyph name="igrave" format="1">
  <advance width="515"/>
  <unicode hex="00EC"/>
  <outline>
	<contour>
	  <point x="162" y="0" type="line"/>
	  <point x="354" y="0" type="line"/>
	  <point x="354" y="999" type="line"/>
	  <point x="162" y="999" type="line"/>
	</contour>
	<contour>
	  <point x="251" y="1174" type="line"/>
	  <point x="397" y="1174" type="line"/>
	  <point x="213" y="1466" type="line"/>
	  <point x="16" y="1466" type="line"/>
	</contour>
  </outline>
</glyph>
<glyph name="iacute" format="1">
  <advance width="515"/>
  <unicode hex="00ED"/>
  <outline>
	<contour>
	  <point x="162" y="0" type="line"/>
	  <point x="354" y="0" type="line"/>
	  <point x="354" y="999" type="line"/>
	  <point x="162" y="999" type="line"/>
	</contour>
	<contour>
	  <point x="499" y="1466" type="line"/>
	  <point x="302" y="1466" type="line"/>
	  <point x="119" y="1174" type="line"/>
	  <point x="264" y="1174" type="line"/>
	</contour>
  </outline>
</glyph>
<glyph name="icircumflex" format="1">
  <advance width="515"/>
  <unicode hex="00EE"/>
  <outline>
	<contour>
	  <point x="162" y="0" type="line"/>
	  <point x="354" y="0" type="line"/>
	  <point x="354" y="999" type="line"/>
	  <point x="162" y="999" type="line"/>
	</contour>
	<contour>
	  <point x="-14" y="1174" type="line"/>
	  <point x="122" y="1174" type="line"/>
	  <point x="254" y="1356" type="line"/>
	  <point x="262" y="1356" type="line"/>
	  <point x="393" y="1174" type="line"/>
	  <point x="531" y="1174" type="line"/>
	  <point x="337" y="1466" type="line"/>
	  <point x="179" y="1466" type="line"/>
	</contour>
  </outline>
</glyph>
<glyph name="idieresis" format="1">
  <advance width="515"/>
  <unicode hex="00EF"/>
  <outline>
	<contour>
	  <point x="162" y="0" type="line"/>
	  <point x="354" y="0" type="line"/>
	  <point x="354" y="999" type="line"/>
	  <point x="162" y="999" type="line"/>
	</contour>
	<contour>
	  <point x="77" y="1198" type="curve" smooth="yes"/>
	  <point x="139" y="1198"/>
	  <point x="185" y="1244"/>
	  <point x="185" y="1306" type="curve" smooth="yes"/>
	  <point x="185" y="1368"/>
	  <point x="139" y="1414"/>
	  <point x="77" y="1414" type="curve" smooth="yes"/>
	  <point x="14" y="1414"/>
	  <point x="-32" y="1368"/>
	  <point x="-32" y="1306" type="curve" smooth="yes"/>
	  <point x="-32" y="1244"/>
	  <point x="14" y="1198"/>
	</contour>
	<contour>
	  <point x="438" y="1198" type="curve" smooth="yes"/>
	  <point x="502" y="1198"/>
	  <point x="547" y="1244"/>
	  <point x="547" y="1306" type="curve" smooth="yes"/>
	  <point x="547" y="1368"/>
	  <point x="502" y="1414"/>
	  <point x="438" y="1414" type="curve" smooth="yes"/>
	  <point x="376" y="1414"/>
	  <point x="332" y="1368"/>
	  <point x="332" y="1306" type="curve" smooth="yes"/>
	  <point x="332" y="1244"/>
	  <point x="376" y="1198"/>
	</contour>
  </outline>
</glyph>
<glyph name="ntilde" format="1">
  <advance width="1129"/>
  <unicode hex="00F1"/>
  <outline>
	<contour>
	  <point x="162" y="0" type="line"/>
	  <point x="354" y="0" type="line"/>
	  <point x="354" y="715" type="line"/>
	  <point x="448" y="808"/>
	  <point x="514" y="858"/>
	  <point x="611" y="858" type="curve" smooth="yes"/>
	  <point x="734" y="858"/>
	  <point x="788" y="785"/>
	  <point x="788" y="605" type="curve" smooth="yes"/>
	  <point x="788" y="0" type="line"/>
	  <point x="980" y="0" type="line"/>
	  <point x="980" y="631" type="line"/>
	  <point x="980" y="885"/>
	  <point x="885" y="1024"/>
	  <point x="675" y="1024" type="curve" smooth="yes"/>
	  <point x="537" y="1024"/>
	  <point x="435" y="950"/>
	  <point x="343" y="858" type="curve"/>
	  <point x="336" y="858" type="line"/>
	  <point x="320" y="999" type="line"/>
	  <point x="162" y="999" type="line"/>
	</contour>
	<contour>
	  <point x="309" y="1185" type="curve"/>
	  <point x="415" y="1185" type="line"/>
	  <point x="427" y="1253"/>
	  <point x="449" y="1286"/>
	  <point x="489" y="1286" type="curve" smooth="yes"/>
	  <point x="557" y="1286"/>
	  <point x="619" y="1185"/>
	  <point x="725" y="1185" type="curve" smooth="yes"/>
	  <point x="826" y="1185"/>
	  <point x="886" y="1278"/>
	  <point x="899" y="1412" type="curve"/>
	  <point x="792" y="1412" type="line"/>
	  <point x="781" y="1343"/>
	  <point x="759" y="1310"/>
	  <point x="719" y="1310" type="curve" smooth="yes"/>
	  <point x="653" y="1310"/>
	  <point x="587" y="1412"/>
	  <point x="484" y="1412" type="curve" smooth="yes"/>
	  <point x="382" y="1412"/>
	  <point x="322" y="1319"/>
	</contour>
  </outline>
</glyph>
<glyph name="oacute" format="1">
  <advance width="1115"/>
  <unicode hex="00F3"/>
  <outline>
	<contour>
	  <point x="90" y="498" type="curve" smooth="yes"/>
	  <point x="90" y="167"/>
	  <point x="311" y="-25"/>
	  <point x="558" y="-25" type="curve" smooth="yes"/>
	  <point x="804" y="-25"/>
	  <point x="1025" y="167"/>
	  <point x="1025" y="498" type="curve" smooth="yes"/>
	  <point x="1025" y="832"/>
	  <point x="804" y="1024"/>
	  <point x="558" y="1024" type="curve" smooth="yes"/>
	  <point x="311" y="1024"/>
	  <point x="90" y="832"/>
	</contour>
	<contour>
	  <point x="289" y="498" type="curve" smooth="yes"/>
	  <point x="289" y="717"/>
	  <point x="396" y="866"/>
	  <point x="558" y="866" type="curve" smooth="yes"/>
	  <point x="721" y="866"/>
	  <point x="826" y="717"/>
	  <point x="826" y="498" type="curve" smooth="yes"/>
	  <point x="826" y="280"/>
	  <point x="721" y="134"/>
	  <point x="558" y="134" type="curve" smooth="yes"/>
	  <point x="396" y="134"/>
	  <point x="289" y="280"/>
	</contour>
	<contour>
	  <point x="799" y="1466" type="line"/>
	  <point x="602" y="1466" type="line"/>
	  <point x="418" y="1174" type="line"/>
	  <point x="564" y="1174" type="line"/>
	</contour>
  </outline>
</glyph>
<glyph name="ocircumflex" format="1">
  <advance width="1115"/>
  <unicode hex="00F4"/>
  <outline>
	<contour>
	  <point x="90" y="498" type="curve" smooth="yes"/>
	  <point x="90" y="167"/>
	  <point x="311" y="-25"/>
	  <point x="558" y="-25" type="curve" smooth="yes"/>
	  <point x="804" y="-25"/>
	  <point x="1025" y="167"/>
	  <point x="1025" y="498" type="curve" smooth="yes"/>
	  <point x="1025" y="832"/>
	  <point x="804" y="1024"/>
	  <point x="558" y="1024" type="curve" smooth="yes"/>
	  <point x="311" y="1024"/>
	  <point x="90" y="832"/>
	</contour>
	<contour>
	  <point x="289" y="498" type="curve" smooth="yes"/>
	  <point x="289" y="717"/>
	  <point x="396" y="866"/>
	  <point x="558" y="866" type="curve" smooth="yes"/>
	  <point x="721" y="866"/>
	  <point x="826" y="717"/>
	  <point x="826" y="498" type="curve" smooth="yes"/>
	  <point x="826" y="280"/>
	  <point x="721" y="134"/>
	  <point x="558" y="134" type="curve" smooth="yes"/>
	  <point x="396" y="134"/>
	  <point x="289" y="280"/>
	</contour>
	<contour>
	  <point x="285" y="1174" type="line"/>
	  <point x="422" y="1174" type="line"/>
	  <point x="554" y="1356" type="line"/>
	  <point x="562" y="1356" type="line"/>
	  <point x="693" y="1174" type="line"/>
	  <point x="831" y="1174" type="line"/>
	  <point x="637" y="1466" type="line"/>
	  <point x="478" y="1466" type="line"/>
	</contour>
  </outline>
</glyph>
<glyph name="otilde" format="1">
  <advance width="1115"/>
  <unicode hex="00F5"/>
  <outline>
	<contour>
	  <point x="90" y="498" type="curve" smooth="yes"/>
	  <point x="90" y="167"/>
	  <point x="311" y="-25"/>
	  <point x="558" y="-25" type="curve" smooth="yes"/>
	  <point x="804" y="-25"/>
	  <point x="1025" y="167"/>
	  <point x="1025" y="498" type="curve" smooth="yes"/>
	  <point x="1025" y="832"/>
	  <point x="804" y="1024"/>
	  <point x="558" y="1024" type="curve" smooth="yes"/>
	  <point x="311" y="1024"/>
	  <point x="90" y="832"/>
	</contour>
	<contour>
	  <point x="289" y="498" type="curve" smooth="yes"/>
	  <point x="289" y="717"/>
	  <point x="396" y="866"/>
	  <point x="558" y="866" type="curve" smooth="yes"/>
	  <point x="721" y="866"/>
	  <point x="826" y="717"/>
	  <point x="826" y="498" type="curve" smooth="yes"/>
	  <point x="826" y="280"/>
	  <point x="721" y="134"/>
	  <point x="558" y="134" type="curve" smooth="yes"/>
	  <point x="396" y="134"/>
	  <point x="289" y="280"/>
	</contour>
	<contour>
	  <point x="262" y="1185" type="curve"/>
	  <point x="370" y="1185" type="line"/>
	  <point x="381" y="1253"/>
	  <point x="402" y="1286"/>
	  <point x="443" y="1286" type="curve" smooth="yes"/>
	  <point x="511" y="1286"/>
	  <point x="574" y="1185"/>
	  <point x="678" y="1185" type="curve" smooth="yes"/>
	  <point x="780" y="1185"/>
	  <point x="840" y="1278"/>
	  <point x="852" y="1412" type="curve"/>
	  <point x="747" y="1412" type="line"/>
	  <point x="734" y="1343"/>
	  <point x="712" y="1310"/>
	  <point x="673" y="1310" type="curve" smooth="yes"/>
	  <point x="607" y="1310"/>
	  <point x="542" y="1412"/>
	  <point x="437" y="1412" type="curve" smooth="yes"/>
	  <point x="336" y="1412"/>
	  <point x="275" y="1319"/>
	</contour>
  </outline>
</glyph>
<glyph name="odieresis" format="1">
  <advance width="1115"/>
  <unicode hex="00F6"/>
  <outline>
	<contour>
	  <point x="90" y="498" type="curve" smooth="yes"/>
	  <point x="90" y="167"/>
	  <point x="311" y="-25"/>
	  <point x="558" y="-25" type="curve" smooth="yes"/>
	  <point x="804" y="-25"/>
	  <point x="1025" y="167"/>
	  <point x="1025" y="498" type="curve" smooth="yes"/>
	  <point x="1025" y="832"/>
	  <point x="804" y="1024"/>
	  <point x="558" y="1024" type="curve" smooth="yes"/>
	  <point x="311" y="1024"/>
	  <point x="90" y="832"/>
	</contour>
	<contour>
	  <point x="289" y="498" type="curve" smooth="yes"/>
	  <point x="289" y="717"/>
	  <point x="396" y="866"/>
	  <point x="558" y="866" type="curve" smooth="yes"/>
	  <point x="721" y="866"/>
	  <point x="826" y="717"/>
	  <point x="826" y="498" type="curve" smooth="yes"/>
	  <point x="826" y="280"/>
	  <point x="721" y="134"/>
	  <point x="558" y="134" type="curve" smooth="yes"/>
	  <point x="396" y="134"/>
	  <point x="289" y="280"/>
	</contour>
	<contour>
	  <point x="376" y="1198" type="curve" smooth="yes"/>
	  <point x="314" y="1198"/>
	  <point x="269" y="1244"/>
	  <point x="269" y="1306" type="curve" smooth="yes"/>
	  <point x="269" y="1368"/>
	  <point x="314" y="1414"/>
	  <point x="376" y="1414" type="curve" smooth="yes"/>
	  <point x="439" y="1414"/>
	  <point x="484" y="1368"/>
	  <point x="484" y="1306" type="curve" smooth="yes"/>
	  <point x="484" y="1244"/>
	  <point x="439" y="1198"/>
	</contour>
	<contour>
	  <point x="739" y="1198" type="curve" smooth="yes"/>
	  <point x="803" y="1198"/>
	  <point x="846" y="1244"/>
	  <point x="846" y="1306" type="curve" smooth="yes"/>
	  <point x="846" y="1368"/>
	  <point x="803" y="1414"/>
	  <point x="739" y="1414" type="curve" smooth="yes"/>
	  <point x="677" y="1414"/>
	  <point x="632" y="1368"/>
	  <point x="632" y="1306" type="curve" smooth="yes"/>
	  <point x="632" y="1244"/>
	  <point x="677" y="1198"/>
	</contour>
  </outline>
</glyph>
<glyph name="udieresis" format="1">
  <advance width="1123"/>
  <unicode hex="00FC"/>
  <outline>
	<contour>
	  <point x="148" y="369" type="line"/>
	  <point x="148" y="115"/>
	  <point x="242" y="-25"/>
	  <point x="455" y="-25" type="curve" smooth="yes"/>
	  <point x="593" y="-25"/>
	  <point x="690" y="46"/>
	  <point x="781" y="153" type="curve"/>
	  <point x="788" y="153" type="line"/>
	  <point x="803" y="0" type="line"/>
	  <point x="962" y="0" type="line"/>
	  <point x="962" y="999" type="line"/>
	  <point x="769" y="999" type="line"/>
	  <point x="769" y="299" type="line"/>
	  <point x="682" y="189"/>
	  <point x="615" y="141"/>
	  <point x="518" y="141" type="curve" smooth="yes"/>
	  <point x="394" y="141"/>
	  <point x="342" y="215"/>
	  <point x="342" y="394" type="curve" smooth="yes"/>
	  <point x="342" y="999" type="line"/>
	  <point x="148" y="999" type="line"/>
	</contour>
	<contour>
	  <point x="381" y="1198" type="curve" smooth="yes"/>
	  <point x="443" y="1198"/>
	  <point x="489" y="1244"/>
	  <point x="489" y="1306" type="curve" smooth="yes"/>
	  <point x="489" y="1368"/>
	  <point x="443" y="1414"/>
	  <point x="381" y="1414" type="curve" smooth="yes"/>
	  <point x="319" y="1414"/>
	  <point x="273" y="1368"/>
	  <point x="273" y="1306" type="curve" smooth="yes"/>
	  <point x="273" y="1244"/>
	  <point x="319" y="1198"/>
	</contour>
	<contour>
	  <point x="744" y="1198" type="curve" smooth="yes"/>
	  <point x="807" y="1198"/>
	  <point x="853" y="1244"/>
	  <point x="853" y="1306" type="curve" smooth="yes"/>
	  <point x="853" y="1368"/>
	  <point x="807" y="1414"/>
	  <point x="744" y="1414" type="curve" smooth="yes"/>
	  <point x="681" y="1414"/>
	  <point x="636" y="1368"/>
	  <point x="636" y="1306" type="curve" smooth="yes"/>
	  <point x="636" y="1244"/>
	  <point x="681" y="1198"/>
	</contour>
  </outline>
</glyph>
<glyph name="yacute" format="1">
  <advance width="976"/>
  <unicode hex="00FD"/>
  <outline>
	<contour>
	  <point x="110" y="-251" type="curve"/>
	  <point x="74" y="-402" type="line"/>
	  <point x="108" y="-414"/>
	  <point x="147" y="-422"/>
	  <point x="195" y="-422" type="curve" smooth="yes"/>
	  <point x="403" y="-422"/>
	  <point x="507" y="-277"/>
	  <point x="581" y="-69" type="curve" smooth="yes"/>
	  <point x="952" y="999" type="line"/>
	  <point x="765" y="999" type="line"/>
	  <point x="598" y="469" type="line"/>
	  <point x="571" y="379"/>
	  <point x="544" y="278"/>
	  <point x="516" y="187" type="curve"/>
	  <point x="508" y="187" type="line"/>
	  <point x="478" y="281"/>
	  <point x="445" y="382"/>
	  <point x="414" y="469" type="curve" smooth="yes"/>
	  <point x="223" y="999" type="line"/>
	  <point x="25" y="999" type="line"/>
	  <point x="423" y="3" type="line"/>
	  <point x="401" y="-67" type="line"/>
	  <point x="363" y="-182"/>
	  <point x="295" y="-265"/>
	  <point x="185" y="-265" type="curve" smooth="yes"/>
	  <point x="161" y="-265"/>
	  <point x="131" y="-257"/>
	</contour>
	<contour>
	  <point x="748" y="1466" type="line"/>
	  <point x="551" y="1466" type="line"/>
	  <point x="368" y="1174" type="line"/>
	  <point x="513" y="1174" type="line"/>
	</contour>
  </outline>
</glyph>
<glyph name="ydieresis" format="1">
  <advance width="976"/>
  <unicode hex="00FF"/>
  <outline>
	<contour>
	  <point x="110" y="-251" type="curve"/>
	  <point x="74" y="-402" type="line"/>
	  <point x="108" y="-414"/>
	  <point x="147" y="-422"/>
	  <point x="195" y="-422" type="curve" smooth="yes"/>
	  <point x="403" y="-422"/>
	  <point x="507" y="-277"/>
	  <point x="581" y="-69" type="curve" smooth="yes"/>
	  <point x="952" y="999" type="line"/>
	  <point x="765" y="999" type="line"/>
	  <point x="598" y="469" type="line"/>
	  <point x="571" y="379"/>
	  <point x="544" y="278"/>
	  <point x="516" y="187" type="curve"/>
	  <point x="508" y="187" type="line"/>
	  <point x="478" y="281"/>
	  <point x="445" y="382"/>
	  <point x="414" y="469" type="curve" smooth="yes"/>
	  <point x="223" y="999" type="line"/>
	  <point x="25" y="999" type="line"/>
	  <point x="423" y="3" type="line"/>
	  <point x="401" y="-67" type="line"/>
	  <point x="363" y="-182"/>
	  <point x="295" y="-265"/>
	  <point x="185" y="-265" type="curve" smooth="yes"/>
	  <point x="161" y="-265"/>
	  <point x="131" y="-257"/>
	</contour>
	<contour>
	  <point x="326" y="1198" type="curve" smooth="yes"/>
	  <point x="388" y="1198"/>
	  <point x="434" y="1244"/>
	  <point x="434" y="1306" type="curve" smooth="yes"/>
	  <point x="434" y="1368"/>
	  <point x="388" y="1414"/>
	  <point x="326" y="1414" type="curve" smooth="yes"/>
	  <point x="263" y="1414"/>
	  <point x="217" y="1368"/>
	  <point x="217" y="1306" type="curve" smooth="yes"/>
	  <point x="217" y="1244"/>
	  <point x="263" y="1198"/>
	</contour>
	<contour>
	  <point x="688" y="1198" type="curve" smooth="yes"/>
	  <point x="752" y="1198"/>
	  <point x="796" y="1244"/>
	  <point x="796" y="1306" type="curve" smooth="yes"/>
	  <point x="796" y="1368"/>
	  <point x="752" y="1414"/>
	  <point x="688" y="1414" type="curve" smooth="yes"/>
	  <point x="625" y="1414"/>
	  <point x="581" y="1368"/>
	  <point x="581" y="1306" type="curve" smooth="yes"/>
	  <point x="581" y="1244"/>
	  <point x="625" y="1198"/>
	</contour>
  </outline>
</glyph>
<glyph name="Amacron" format="1">
  <advance width="1114"/>
  <unicode hex="0100"/>
  <outline>
	<contour>
	  <point x="815" y="1620" type="line"/>
	  <point x="294" y="1620" type="line"/>
	  <point x="294" y="1490" type="line"/>
	  <point x="815" y="1490" type="line"/>
	</contour>
	<contour>
	  <point x="362" y="548" type="line"/>
	  <point x="422" y="738" type="line"/>
	  <point x="468" y="884"/>
	  <point x="510" y="1034"/>
	  <point x="550" y="1186" type="curve"/>
	  <point x="558" y="1186" type="line"/>
	  <point x="600" y="1034"/>
	  <point x="642" y="884"/>
	  <point x="687" y="738" type="curve" smooth="yes"/>
	  <point x="745" y="548" type="line"/>
	</contour>
	<contour>
	  <point x="912" y="0" type="line"/>
	  <point x="1117" y="0" type="line"/>
	  <point x="669" y="1342" type="line"/>
	  <point x="446" y="1342" type="line"/>
	  <point x="-3" y="0" type="line"/>
	  <point x="196" y="0" type="line"/>
	  <point x="316" y="393" type="line"/>
	  <point x="791" y="393" type="line"/>
	</contour>
  </outline>
</glyph>
<glyph name="Abreve" format="1">
  <advance width="1114"/>
  <unicode hex="0102"/>
  <outline>
	<contour>
	  <point x="697" y="1676" type="line"/>
	  <point x="685" y="1614"/>
	  <point x="642" y="1554"/>
	  <point x="554" y="1554" type="curve" smooth="yes"/>
	  <point x="466" y="1554"/>
	  <point x="424" y="1614"/>
	  <point x="411" y="1676" type="curve"/>
	  <point x="297" y="1676" type="line"/>
	  <point x="310" y="1557"/>
	  <point x="388" y="1448"/>
	  <point x="554" y="1448" type="curve" smooth="yes"/>
	  <point x="721" y="1448"/>
	  <point x="796" y="1557"/>
	  <point x="811" y="1676" type="curve"/>
	</contour>
	<contour>
	  <point x="362" y="548" type="line"/>
	  <point x="422" y="738" type="line"/>
	  <point x="468" y="884"/>
	  <point x="510" y="1034"/>
	  <point x="550" y="1186" type="curve"/>
	  <point x="558" y="1186" type="line"/>
	  <point x="600" y="1034"/>
	  <point x="642" y="884"/>
	  <point x="687" y="738" type="curve" smooth="yes"/>
	  <point x="745" y="548" type="line"/>
	</contour>
	<contour>
	  <point x="912" y="0" type="line"/>
	  <point x="1117" y="0" type="line"/>
	  <point x="669" y="1342" type="line"/>
	  <point x="446" y="1342" type="line"/>
	  <point x="-3" y="0" type="line"/>
	  <point x="196" y="0" type="line"/>
	  <point x="316" y="393" type="line"/>
	  <point x="791" y="393" type="line"/>
	</contour>
  </outline>
</glyph>
<glyph name="Cacute" format="1">
  <advance width="1164"/>
  <unicode hex="0106"/>
  <outline>
	<contour>
	  <point x="99" y="670" type="curve" smooth="yes"/>
	  <point x="99" y="229"/>
	  <point x="356" y="-25"/>
	  <point x="696" y="-25" type="curve" smooth="yes"/>
	  <point x="865" y="-25"/>
	  <point x="1001" y="46"/>
	  <point x="1107" y="170" type="curve"/>
	  <point x="997" y="289" type="line"/>
	  <point x="915" y="197"/>
	  <point x="824" y="145"/>
	  <point x="700" y="145" type="curve" smooth="yes"/>
	  <point x="455" y="145"/>
	  <point x="299" y="348"/>
	  <point x="299" y="675" type="curve" smooth="yes"/>
	  <point x="299" y="997"/>
	  <point x="465" y="1197"/>
	  <point x="708" y="1197" type="curve" smooth="yes"/>
	  <point x="816" y="1197"/>
	  <point x="898" y="1149"/>
	  <point x="969" y="1077" type="curve"/>
	  <point x="1077" y="1199" type="line"/>
	  <point x="996" y="1288"/>
	  <point x="866" y="1367"/>
	  <point x="705" y="1367" type="curve" smooth="yes"/>
	  <point x="361" y="1367"/>
	  <point x="99" y="1104"/>
	</contour>
	<contour>
	  <point x="957" y="1676" type="line"/>
	  <point x="742" y="1676" type="line"/>
	  <point x="564" y="1445" type="line"/>
	  <point x="723" y="1445" type="line"/>
	</contour>
  </outline>
</glyph>
<glyph name="cacute" format="1">
  <advance width="938"/>
  <unicode hex="0107"/>
  <outline>
	<contour>
	  <point x="90" y="498" type="curve" smooth="yes"/>
	  <point x="90" y="167"/>
	  <point x="296" y="-25"/>
	  <point x="564" y="-25" type="curve" smooth="yes"/>
	  <point x="681" y="-25"/>
	  <point x="799" y="23"/>
	  <point x="890" y="104" type="curve"/>
	  <point x="806" y="229" type="line"/>
	  <point x="749" y="179"/>
	  <point x="673" y="134"/>
	  <point x="581" y="134" type="curve" smooth="yes"/>
	  <point x="409" y="134"/>
	  <point x="289" y="280"/>
	  <point x="289" y="498" type="curve" smooth="yes"/>
	  <point x="289" y="717"/>
	  <point x="413" y="866"/>
	  <point x="588" y="866" type="curve" smooth="yes"/>
	  <point x="661" y="866"/>
	  <point x="720" y="832"/>
	  <point x="777" y="783" type="curve"/>
	  <point x="870" y="905" type="line"/>
	  <point x="803" y="970"/>
	  <point x="709" y="1024"/>
	  <point x="578" y="1024" type="curve" smooth="yes"/>
	  <point x="318" y="1024"/>
	  <point x="90" y="832"/>
	</contour>
	<contour>
	  <point x="816" y="1466" type="line"/>
	  <point x="620" y="1466" type="line"/>
	  <point x="435" y="1174" type="line"/>
	  <point x="582" y="1174" type="line"/>
	</contour>
  </outline>
</glyph>
<glyph name="cdotaccent" format="1">
  <advance width="938"/>
  <unicode hex="010B"/>
  <outline>
	<contour>
	  <point x="90" y="498" type="curve" smooth="yes"/>
	  <point x="90" y="167"/>
	  <point x="296" y="-25"/>
	  <point x="564" y="-25" type="curve" smooth="yes"/>
	  <point x="681" y="-25"/>
	  <point x="799" y="23"/>
	  <point x="890" y="104" type="curve"/>
	  <point x="806" y="229" type="line"/>
	  <point x="749" y="179"/>
	  <point x="673" y="134"/>
	  <point x="581" y="134" type="curve" smooth="yes"/>
	  <point x="409" y="134"/>
	  <point x="289" y="280"/>
	  <point x="289" y="498" type="curve" smooth="yes"/>
	  <point x="289" y="717"/>
	  <point x="413" y="866"/>
	  <point x="588" y="866" type="curve" smooth="yes"/>
	  <point x="661" y="866"/>
	  <point x="720" y="832"/>
	  <point x="777" y="783" type="curve"/>
	  <point x="870" y="905" type="line"/>
	  <point x="803" y="970"/>
	  <point x="709" y="1024"/>
	  <point x="578" y="1024" type="curve" smooth="yes"/>
	  <point x="318" y="1024"/>
	  <point x="90" y="832"/>
	</contour>
	<contour>
	  <point x="575" y="1194" type="curve" smooth="yes"/>
	  <point x="645" y="1194"/>
	  <point x="697" y="1242"/>
	  <point x="697" y="1313" type="curve" smooth="yes"/>
	  <point x="697" y="1382"/>
	  <point x="645" y="1432"/>
	  <point x="575" y="1432" type="curve" smooth="yes"/>
	  <point x="505" y="1432"/>
	  <point x="453" y="1382"/>
	  <point x="453" y="1313" type="curve" smooth="yes"/>
	  <point x="453" y="1242"/>
	  <point x="505" y="1194"/>
	</contour>
  </outline>
</glyph>
<glyph name="ccaron" format="1">
  <advance width="938"/>
  <unicode hex="010D"/>
  <outline>
	<contour>
	  <point x="90" y="498" type="curve" smooth="yes"/>
	  <point x="90" y="167"/>
	  <point x="296" y="-25"/>
	  <point x="564" y="-25" type="curve" smooth="yes"/>
	  <point x="681" y="-25"/>
	  <point x="799" y="23"/>
	  <point x="890" y="104" type="curve"/>
	  <point x="806" y="229" type="line"/>
	  <point x="749" y="179"/>
	  <point x="673" y="134"/>
	  <point x="581" y="134" type="curve" smooth="yes"/>
	  <point x="409" y="134"/>
	  <point x="289" y="280"/>
	  <point x="289" y="498" type="curve" smooth="yes"/>
	  <point x="289" y="717"/>
	  <point x="413" y="866"/>
	  <point x="588" y="866" type="curve" smooth="yes"/>
	  <point x="661" y="866"/>
	  <point x="720" y="832"/>
	  <point x="777" y="783" type="curve"/>
	  <point x="870" y="905" type="line"/>
	  <point x="803" y="970"/>
	  <point x="709" y="1024"/>
	  <point x="578" y="1024" type="curve" smooth="yes"/>
	  <point x="318" y="1024"/>
	  <point x="90" y="832"/>
	</contour>
	<contour>
	  <point x="497" y="1174" type="line"/>
	  <point x="653" y="1174" type="line"/>
	  <point x="848" y="1466" type="line"/>
	  <point x="712" y="1466" type="line"/>
	  <point x="579" y="1283" type="line"/>
	  <point x="571" y="1283" type="line"/>
	  <point x="439" y="1466" type="line"/>
	  <point x="302" y="1466" type="line"/>
	</contour>
  </outline>
</glyph>
<glyph name="Dcaron" format="1">
  <advance width="1261"/>
  <unicode hex="010E"/>
  <outline>
	<contour>
	  <point x="174" y="0" type="line"/>
	  <point x="527" y="0" type="line"/>
	  <point x="931" y="0"/>
	  <point x="1159" y="244"/>
	  <point x="1159" y="677" type="curve" smooth="yes"/>
	  <point x="1159" y="1109"/>
	  <point x="931" y="1342"/>
	  <point x="517" y="1342" type="curve" smooth="yes"/>
	  <point x="174" y="1342" type="line"/>
	</contour>
	<contour>
	  <point x="370" y="158" type="line"/>
	  <point x="370" y="1183" type="line"/>
	  <point x="505" y="1183" type="line"/>
	  <point x="803" y="1183"/>
	  <point x="959" y="1012"/>
	  <point x="959" y="677" type="curve" smooth="yes"/>
	  <point x="959" y="341"/>
	  <point x="803" y="158"/>
	  <point x="505" y="158" type="curve" smooth="yes"/>
	</contour>
	<contour>
	  <point x="767" y="1676" type="line"/>
	  <point x="635" y="1540" type="line"/>
	  <point x="627" y="1540" type="line"/>
	  <point x="495" y="1676" type="line"/>
	  <point x="340" y="1676" type="line"/>
	  <point x="537" y="1445" type="line"/>
	  <point x="723" y="1445" type="line"/>
	  <point x="919" y="1676" type="line"/>
	</contour>
  </outline>
</glyph>
<glyph name="dcaron" format="1">
  <advance width="1189"/>
  <unicode hex="010F"/>
  <outline>
	<contour>
	  <point x="93" y="498" type="curve" smooth="yes"/>
	  <point x="93" y="166"/>
	  <point x="255" y="-25"/>
	  <point x="506" y="-25" type="curve" smooth="yes"/>
	  <point x="619" y="-25"/>
	  <point x="724" y="39"/>
	  <point x="801" y="114" type="curve"/>
	  <point x="807" y="114" type="line"/>
	  <point x="823" y="0" type="line"/>
	  <point x="982" y="0" type="line"/>
	  <point x="982" y="1454" type="line"/>
	  <point x="788" y="1454" type="line"/>
	  <point x="788" y="1078" type="line"/>
	  <point x="797" y="910" type="line"/>
	  <point x="712" y="981"/>
	  <point x="638" y="1024"/>
	  <point x="523" y="1024" type="curve" smooth="yes"/>
	  <point x="298" y="1024"/>
	  <point x="93" y="823"/>
	</contour>
	<contour>
	  <point x="292" y="501" type="curve" smooth="yes"/>
	  <point x="292" y="721"/>
	  <point x="411" y="864"/>
	  <point x="560" y="864" type="curve" smooth="yes"/>
	  <point x="637" y="864"/>
	  <point x="710" y="837"/>
	  <point x="788" y="766" type="curve"/>
	  <point x="788" y="265" type="line"/>
	  <point x="712" y="177"/>
	  <point x="637" y="136"/>
	  <point x="550" y="136" type="curve" smooth="yes"/>
	  <point x="387" y="136"/>
	  <point x="292" y="269"/>
	</contour>
	<contour>
	  <point x="1184" y="1122" type="line"/>
	  <point x="1217" y="1439" type="line"/>
	  <point x="1219" y="1560" type="line"/>
	  <point x="1085" y="1560" type="line"/>
	  <point x="1093" y="1122" type="line"/>
	</contour>
  </outline>
</glyph>
<glyph name="Emacron" format="1">
  <advance width="1078"/>
  <unicode hex="0112"/>
  <outline>
	<contour>
	  <point x="174" y="0" type="line"/>
	  <point x="981" y="0" type="line"/>
	  <point x="981" y="165" type="line"/>
	  <point x="370" y="165" type="line"/>
	  <point x="370" y="620" type="line"/>
	  <point x="868" y="620" type="line"/>
	  <point x="868" y="784" type="line"/>
	  <point x="370" y="784" type="line"/>
	  <point x="370" y="1178" type="line"/>
	  <point x="960" y="1178" type="line"/>
	  <point x="960" y="1342" type="line"/>
	  <point x="174" y="1342" type="line"/>
	</contour>
	<contour>
	  <point x="319" y="1490" type="line"/>
	  <point x="840" y="1490" type="line"/>
	  <point x="840" y="1620" type="line"/>
	  <point x="319" y="1620" type="line"/>
	</contour>
  </outline>
</glyph>
<glyph name="Ebreve" format="1">
  <advance width="1078"/>
  <unicode hex="0114"/>
  <outline>
	<contour>
	  <point x="174" y="0" type="line"/>
	  <point x="981" y="0" type="line"/>
	  <point x="981" y="165" type="line"/>
	  <point x="370" y="165" type="line"/>
	  <point x="370" y="620" type="line"/>
	  <point x="868" y="620" type="line"/>
	  <point x="868" y="784" type="line"/>
	  <point x="370" y="784" type="line"/>
	  <point x="370" y="1178" type="line"/>
	  <point x="960" y="1178" type="line"/>
	  <point x="960" y="1342" type="line"/>
	  <point x="174" y="1342" type="line"/>
	</contour>
	<contour>
	  <point x="580" y="1448" type="curve" smooth="yes"/>
	  <point x="746" y="1448"/>
	  <point x="822" y="1557"/>
	  <point x="836" y="1676" type="curve"/>
	  <point x="723" y="1676" type="line"/>
	  <point x="711" y="1614"/>
	  <point x="668" y="1554"/>
	  <point x="580" y="1554" type="curve" smooth="yes"/>
	  <point x="491" y="1554"/>
	  <point x="448" y="1614"/>
	  <point x="436" y="1676" type="curve"/>
	  <point x="323" y="1676" type="line"/>
	  <point x="336" y="1557"/>
	  <point x="414" y="1448"/>
	</contour>
  </outline>
</glyph>
<glyph name="Edotaccent" format="1">
  <advance width="1078"/>
  <unicode hex="0116"/>
  <outline>
	<contour>
	  <point x="174" y="0" type="line"/>
	  <point x="981" y="0" type="line"/>
	  <point x="981" y="165" type="line"/>
	  <point x="370" y="165" type="line"/>
	  <point x="370" y="620" type="line"/>
	  <point x="868" y="620" type="line"/>
	  <point x="868" y="784" type="line"/>
	  <point x="370" y="784" type="line"/>
	  <point x="370" y="1178" type="line"/>
	  <point x="960" y="1178" type="line"/>
	  <point x="960" y="1342" type="line"/>
	  <point x="174" y="1342" type="line"/>
	</contour>
	<contour>
	  <point x="580" y="1457" type="curve" smooth="yes"/>
	  <point x="652" y="1457"/>
	  <point x="707" y="1506"/>
	  <point x="707" y="1577" type="curve" smooth="yes"/>
	  <point x="707" y="1645"/>
	  <point x="652" y="1694"/>
	  <point x="580" y="1694" type="curve" smooth="yes"/>
	  <point x="507" y="1694"/>
	  <point x="453" y="1645"/>
	  <point x="453" y="1577" type="curve" smooth="yes"/>
	  <point x="453" y="1506"/>
	  <point x="507" y="1457"/>
	</contour>
  </outline>
</glyph>
<glyph name="Ecaron" format="1">
  <advance width="1078"/>
  <unicode hex="011A"/>
  <outline>
	<contour>
	  <point x="174" y="0" type="line"/>
	  <point x="981" y="0" type="line"/>
	  <point x="981" y="165" type="line"/>
	  <point x="370" y="165" type="line"/>
	  <point x="370" y="620" type="line"/>
	  <point x="868" y="620" type="line"/>
	  <point x="868" y="784" type="line"/>
	  <point x="370" y="784" type="line"/>
	  <point x="370" y="1178" type="line"/>
	  <point x="960" y="1178" type="line"/>
	  <point x="960" y="1342" type="line"/>
	  <point x="174" y="1342" type="line"/>
	</contour>
	<contour>
	  <point x="716" y="1676" type="line"/>
	  <point x="584" y="1540" type="line"/>
	  <point x="575" y="1540" type="line"/>
	  <point x="443" y="1676" type="line"/>
	  <point x="289" y="1676" type="line"/>
	  <point x="486" y="1445" type="line"/>
	  <point x="673" y="1445" type="line"/>
	  <point x="870" y="1676" type="line"/>
	</contour>
  </outline>
</glyph>
<glyph name="Gdotaccent" format="1">
  <advance width="1262"/>
  <unicode hex="0120"/>
  <outline>
	<contour>
	  <point x="99" y="670" type="curve" smooth="yes"/>
	  <point x="99" y="229"/>
	  <point x="357" y="-25"/>
	  <point x="711" y="-25" type="curve" smooth="yes"/>
	  <point x="893" y="-25"/>
	  <point x="1045" y="46"/>
	  <point x="1134" y="132" type="curve"/>
	  <point x="1134" y="706" type="line"/>
	  <point x="685" y="706" type="line"/>
	  <point x="685" y="546" type="line"/>
	  <point x="958" y="546" type="line"/>
	  <point x="958" y="218" type="line"/>
	  <point x="908" y="173"/>
	  <point x="821" y="145"/>
	  <point x="733" y="145" type="curve" smooth="yes"/>
	  <point x="452" y="145"/>
	  <point x="299" y="348"/>
	  <point x="299" y="675" type="curve" smooth="yes"/>
	  <point x="299" y="997"/>
	  <point x="469" y="1197"/>
	  <point x="729" y="1197" type="curve" smooth="yes"/>
	  <point x="858" y="1197"/>
	  <point x="939" y="1146"/>
	  <point x="1006" y="1077" type="curve"/>
	  <point x="1117" y="1199" type="line"/>
	  <point x="1035" y="1283"/>
	  <point x="909" y="1367"/>
	  <point x="726" y="1367" type="curve" smooth="yes"/>
	  <point x="365" y="1367"/>
	  <point x="99" y="1104"/>
	</contour>
	<contour>
	  <point x="725" y="1457" type="curve" smooth="yes"/>
	  <point x="796" y="1457"/>
	  <point x="852" y="1506"/>
	  <point x="852" y="1577" type="curve" smooth="yes"/>
	  <point x="852" y="1645"/>
	  <point x="796" y="1694"/>
	  <point x="725" y="1694" type="curve" smooth="yes"/>
	  <point x="652" y="1694"/>
	  <point x="597" y="1645"/>
	  <point x="597" y="1577" type="curve" smooth="yes"/>
	  <point x="597" y="1506"/>
	  <point x="652" y="1457"/>
	</contour>
  </outline>
</glyph>
<glyph name="uni0122" format="1">
  <advance width="1262"/>
  <unicode hex="0122"/>
  <outline>
	<contour>
	  <point x="99" y="670" type="curve" smooth="yes"/>
	  <point x="99" y="229"/>
	  <point x="357" y="-25"/>
	  <point x="711" y="-25" type="curve" smooth="yes"/>
	  <point x="893" y="-25"/>
	  <point x="1045" y="46"/>
	  <point x="1134" y="132" type="curve"/>
	  <point x="1134" y="706" type="line"/>
	  <point x="685" y="706" type="line"/>
	  <point x="685" y="546" type="line"/>
	  <point x="958" y="546" type="line"/>
	  <point x="958" y="218" type="line"/>
	  <point x="908" y="173"/>
	  <point x="821" y="145"/>
	  <point x="733" y="145" type="curve" smooth="yes"/>
	  <point x="452" y="145"/>
	  <point x="299" y="348"/>
	  <point x="299" y="675" type="curve" smooth="yes"/>
	  <point x="299" y="997"/>
	  <point x="469" y="1197"/>
	  <point x="729" y="1197" type="curve" smooth="yes"/>
	  <point x="858" y="1197"/>
	  <point x="939" y="1146"/>
	  <point x="1006" y="1077" type="curve"/>
	  <point x="1117" y="1199" type="line"/>
	  <point x="1035" y="1283"/>
	  <point x="909" y="1367"/>
	  <point x="726" y="1367" type="curve" smooth="yes"/>
	  <point x="365" y="1367"/>
	  <point x="99" y="1104"/>
	</contour>
	<contour>
	  <point x="652" y="-96" type="curve"/>
	  <point x="612" y="-180" type="line"/>
	  <point x="670" y="-194"/>
	  <point x="714" y="-217"/>
	  <point x="714" y="-267" type="curve" smooth="yes"/>
	  <point x="714" y="-319"/>
	  <point x="639" y="-345"/>
	  <point x="534" y="-358" type="curve"/>
	  <point x="551" y="-447" type="line"/>
	  <point x="714" y="-435"/>
	  <point x="860" y="-379"/>
	  <point x="860" y="-256" type="curve" smooth="yes"/>
	  <point x="860" y="-163"/>
	  <point x="798" y="-116"/>
	</contour>
  </outline>
</glyph>
<glyph name="uni0123" format="1">
  <advance width="1043"/>
  <unicode hex="0123"/>
  <outline>
	<contour>
	  <point x="254" y="-160" type="curve" smooth="yes"/>
	  <point x="254" y="-107"/>
	  <point x="282" y="-52"/>
	  <point x="348" y="-5" type="curve"/>
	  <point x="389" y="-16"/>
	  <point x="435" y="-20"/>
	  <point x="479" y="-20" type="curve" smooth="yes"/>
	  <point x="639" y="-20" type="line"/>
	  <point x="763" y="-20"/>
	  <point x="832" y="-48"/>
	  <point x="832" y="-135" type="curve" smooth="yes"/>
	  <point x="832" y="-234"/>
	  <point x="711" y="-324"/>
	  <point x="531" y="-324" type="curve" smooth="yes"/>
	  <point x="359" y="-324"/>
	  <point x="254" y="-261"/>
	</contour>
	<contour>
	  <point x="88" y="-187" type="curve" smooth="yes"/>
	  <point x="88" y="-361"/>
	  <point x="260" y="-454"/>
	  <point x="503" y="-454" type="curve" smooth="yes"/>
	  <point x="819" y="-454"/>
	  <point x="1018" y="-295"/>
	  <point x="1018" y="-106" type="curve" smooth="yes"/>
	  <point x="1018" y="63"/>
	  <point x="897" y="135"/>
	  <point x="662" y="135" type="curve" smooth="yes"/>
	  <point x="475" y="135" type="line"/>
	  <point x="344" y="135"/>
	  <point x="303" y="177"/>
	  <point x="303" y="237" type="curve" smooth="yes"/>
	  <point x="303" y="290"/>
	  <point x="328" y="319"/>
	  <point x="362" y="349" type="curve"/>
	  <point x="407" y="328"/>
	  <point x="460" y="316"/>
	  <point x="507" y="316" type="curve" smooth="yes"/>
	  <point x="713" y="316"/>
	  <point x="877" y="446"/>
	  <point x="877" y="662" type="curve" smooth="yes"/>
	  <point x="877" y="740"/>
	  <point x="847" y="811"/>
	  <point x="804" y="853" type="curve"/>
	  <point x="1001" y="853" type="line"/>
	  <point x="1001" y="999" type="line"/>
	  <point x="651" y="999" type="line"/>
	  <point x="612" y="1014"/>
	  <point x="562" y="1024"/>
	  <point x="507" y="1024" type="curve" smooth="yes"/>
	  <point x="301" y="1024"/>
	  <point x="123" y="889"/>
	  <point x="123" y="667" type="curve" smooth="yes"/>
	  <point x="123" y="548"/>
	  <point x="188" y="452"/>
	  <point x="254" y="399" type="curve"/>
	  <point x="254" y="391" type="line"/>
	  <point x="200" y="354"/>
	  <point x="145" y="288"/>
	  <point x="145" y="206" type="curve" smooth="yes"/>
	  <point x="145" y="127"/>
	  <point x="183" y="74"/>
	  <point x="234" y="42" type="curve"/>
	  <point x="234" y="34" type="line"/>
	  <point x="142" y="-26"/>
	  <point x="88" y="-103"/>
	</contour>
	<contour>
	  <point x="507" y="442" type="curve" smooth="yes"/>
	  <point x="398" y="442"/>
	  <point x="309" y="528"/>
	  <point x="309" y="667" type="curve" smooth="yes"/>
	  <point x="309" y="806"/>
	  <point x="396" y="886"/>
	  <point x="507" y="886" type="curve" smooth="yes"/>
	  <point x="617" y="886"/>
	  <point x="704" y="805"/>
	  <point x="704" y="667" type="curve" smooth="yes"/>
	  <point x="704" y="528"/>
	  <point x="614" y="442"/>
	</contour>
	<contour>
	  <point x="555" y="1109" type="curve"/>
	  <point x="597" y="1194" type="line"/>
	  <point x="537" y="1208"/>
	  <point x="493" y="1231"/>
	  <point x="493" y="1282" type="curve" smooth="yes"/>
	  <point x="493" y="1332"/>
	  <point x="568" y="1358"/>
	  <point x="674" y="1371" type="curve"/>
	  <point x="655" y="1462" type="line"/>
	  <point x="492" y="1449"/>
	  <point x="347" y="1392"/>
	  <point x="347" y="1270" type="curve" smooth="yes"/>
	  <point x="347" y="1177"/>
	  <point x="409" y="1129"/>
	</contour>
  </outline>
</glyph>
<glyph name="Hcircumflex" format="1">
  <advance width="1334"/>
  <unicode hex="0124"/>
  <outline>
	<contour>
	  <point x="174" y="0" type="line"/>
	  <point x="370" y="0" type="line"/>
	  <point x="370" y="619" type="line"/>
	  <point x="965" y="619" type="line"/>
	  <point x="965" y="0" type="line"/>
	  <point x="1159" y="0" type="line"/>
	  <point x="1159" y="1342" type="line"/>
	  <point x="965" y="1342" type="line"/>
	  <point x="965" y="788" type="line"/>
	  <point x="370" y="788" type="line"/>
	  <point x="370" y="1342" type="line"/>
	  <point x="174" y="1342" type="line"/>
	</contour>
	<contour>
	  <point x="530" y="1445" type="line"/>
	  <point x="662" y="1581" type="line"/>
	  <point x="670" y="1581" type="line"/>
	  <point x="803" y="1445" type="line"/>
	  <point x="956" y="1445" type="line"/>
	  <point x="760" y="1676" type="line"/>
	  <point x="573" y="1676" type="line"/>
	  <point x="376" y="1445" type="line"/>
	</contour>
  </outline>
</glyph>
<glyph name="hcircumflex" format="1">
  <advance width="1124"/>
  <unicode hex="0125"/>
  <outline>
	<contour>
	  <point x="162" y="0" type="line"/>
	  <point x="354" y="0" type="line"/>
	  <point x="354" y="715" type="line"/>
	  <point x="448" y="808"/>
	  <point x="514" y="858"/>
	  <point x="611" y="858" type="curve" smooth="yes"/>
	  <point x="734" y="858"/>
	  <point x="788" y="785"/>
	  <point x="788" y="605" type="curve" smooth="yes"/>
	  <point x="788" y="0" type="line"/>
	  <point x="980" y="0" type="line"/>
	  <point x="980" y="631" type="line"/>
	  <point x="980" y="885"/>
	  <point x="885" y="1024"/>
	  <point x="675" y="1024" type="curve" smooth="yes"/>
	  <point x="537" y="1024"/>
	  <point x="437" y="950"/>
	  <point x="346" y="864" type="curve"/>
	  <point x="354" y="1065" type="line"/>
	  <point x="354" y="1454" type="line"/>
	  <point x="162" y="1454" type="line"/>
	</contour>
	<contour>
	  <point x="123" y="1534" type="line"/>
	  <point x="255" y="1670" type="line"/>
	  <point x="263" y="1670" type="line"/>
	  <point x="395" y="1534" type="line"/>
	  <point x="547" y="1534" type="line"/>
	  <point x="351" y="1765" type="line"/>
	  <point x="165" y="1765" type="line"/>
	  <point x="-32" y="1534" type="line"/>
	</contour>
  </outline>
</glyph>
<glyph name="Itilde" format="1">
  <advance width="544"/>
  <unicode hex="0128"/>
  <outline>
	<contour>
	  <point x="174" y="0" type="line"/>
	  <point x="370" y="0" type="line"/>
	  <point x="370" y="1342" type="line"/>
	  <point x="174" y="1342" type="line"/>
	</contour>
	<contour>
	  <point x="396" y="1453" type="curve" smooth="yes"/>
	  <point x="496" y="1453"/>
	  <point x="565" y="1548"/>
	  <point x="578" y="1685" type="curve"/>
	  <point x="473" y="1685" type="line"/>
	  <point x="462" y="1618"/>
	  <point x="430" y="1581"/>
	  <point x="391" y="1581" type="curve" smooth="yes"/>
	  <point x="318" y="1581"/>
	  <point x="256" y="1685"/>
	  <point x="148" y="1685" type="curve" smooth="yes"/>
	  <point x="48" y="1685"/>
	  <point x="-20" y="1591"/>
	  <point x="-34" y="1453" type="curve"/>
	  <point x="70" y="1453" type="line"/>
	  <point x="82" y="1523"/>
	  <point x="114" y="1557"/>
	  <point x="152" y="1557" type="curve" smooth="yes"/>
	  <point x="225" y="1557"/>
	  <point x="288" y="1453"/>
	</contour>
  </outline>
</glyph>
<glyph name="itilde" format="1">
  <advance width="515"/>
  <unicode hex="0129"/>
  <outline>
	<contour>
	  <point x="162" y="0" type="line"/>
	  <point x="354" y="0" type="line"/>
	  <point x="354" y="999" type="line"/>
	  <point x="162" y="999" type="line"/>
	</contour>
	<contour>
	  <point x="-37" y="1185" type="curve"/>
	  <point x="69" y="1185" type="line"/>
	  <point x="81" y="1253"/>
	  <point x="103" y="1286"/>
	  <point x="143" y="1286" type="curve" smooth="yes"/>
	  <point x="211" y="1286"/>
	  <point x="274" y="1185"/>
	  <point x="378" y="1185" type="curve" smooth="yes"/>
	  <point x="480" y="1185"/>
	  <point x="540" y="1278"/>
	  <point x="553" y="1412" type="curve"/>
	  <point x="447" y="1412" type="line"/>
	  <point x="435" y="1343"/>
	  <point x="412" y="1310"/>
	  <point x="372" y="1310" type="curve" smooth="yes"/>
	  <point x="308" y="1310"/>
	  <point x="243" y="1412"/>
	  <point x="137" y="1412" type="curve" smooth="yes"/>
	  <point x="36" y="1412"/>
	  <point x="-25" y="1319"/>
	</contour>
  </outline>
</glyph>
<glyph name="Imacron" format="1">
  <advance width="544"/>
  <unicode hex="012A"/>
  <outline>
	<contour>
	  <point x="174" y="0" type="line"/>
	  <point x="370" y="0" type="line"/>
	  <point x="370" y="1342" type="line"/>
	  <point x="174" y="1342" type="line"/>
	</contour>
	<contour>
	  <point x="11" y="1490" type="line"/>
	  <point x="532" y="1490" type="line"/>
	  <point x="532" y="1620" type="line"/>
	  <point x="11" y="1620" type="line"/>
	</contour>
  </outline>
</glyph>
<glyph name="imacron" format="1">
  <advance width="515"/>
  <unicode hex="012B"/>
  <outline>
	<contour>
	  <point x="162" y="0" type="line"/>
	  <point x="354" y="0" type="line"/>
	  <point x="354" y="999" type="line"/>
	  <point x="162" y="999" type="line"/>
	</contour>
	<contour>
	  <point x="2" y="1228" type="line"/>
	  <point x="515" y="1228" type="line"/>
	  <point x="515" y="1358" type="line"/>
	  <point x="2" y="1358" type="line"/>
	</contour>
  </outline>
</glyph>
<glyph name="uni012C" format="1">
  <advance width="544"/>
  <unicode hex="012C"/>
  <outline>
	<contour>
	  <point x="174" y="0" type="line"/>
	  <point x="370" y="0" type="line"/>
	  <point x="370" y="1342" type="line"/>
	  <point x="174" y="1342" type="line"/>
	</contour>
	<contour>
	  <point x="272" y="1448" type="curve" smooth="yes"/>
	  <point x="438" y="1448"/>
	  <point x="515" y="1557"/>
	  <point x="529" y="1676" type="curve"/>
	  <point x="415" y="1676" type="line"/>
	  <point x="403" y="1614"/>
	  <point x="360" y="1554"/>
	  <point x="272" y="1554" type="curve" smooth="yes"/>
	  <point x="184" y="1554"/>
	  <point x="141" y="1614"/>
	  <point x="129" y="1676" type="curve"/>
	  <point x="15" y="1676" type="line"/>
	  <point x="30" y="1557"/>
	  <point x="105" y="1448"/>
	</contour>
  </outline>
</glyph>
<glyph name="uni012D" format="1">
  <advance width="515"/>
  <unicode hex="012D"/>
  <outline>
	<contour>
	  <point x="162" y="0" type="line"/>
	  <point x="354" y="0" type="line"/>
	  <point x="354" y="999" type="line"/>
	  <point x="162" y="999" type="line"/>
	</contour>
	<contour>
	  <point x="259" y="1178" type="curve" smooth="yes"/>
	  <point x="438" y="1178"/>
	  <point x="515" y="1316"/>
	  <point x="522" y="1442" type="curve"/>
	  <point x="406" y="1442" type="line"/>
	  <point x="396" y="1365"/>
	  <point x="351" y="1293"/>
	  <point x="259" y="1293" type="curve" smooth="yes"/>
	  <point x="168" y="1293"/>
	  <point x="123" y="1365"/>
	  <point x="110" y="1442" type="curve"/>
	  <point x="-5" y="1442" type="line"/>
	  <point x="4" y="1316"/>
	  <point x="81" y="1178"/>
	</contour>
  </outline>
</glyph>
<glyph name="Idotaccent" format="1">
  <advance width="544"/>
  <unicode hex="0130"/>
  <outline>
	<contour>
	  <point x="174" y="0" type="line"/>
	  <point x="370" y="0" type="line"/>
	  <point x="370" y="1342" type="line"/>
	  <point x="174" y="1342" type="line"/>
	</contour>
	<contour>
	  <point x="272" y="1457" type="curve" smooth="yes"/>
	  <point x="344" y="1457"/>
	  <point x="399" y="1506"/>
	  <point x="399" y="1577" type="curve" smooth="yes"/>
	  <point x="399" y="1645"/>
	  <point x="344" y="1694"/>
	  <point x="272" y="1694" type="curve" smooth="yes"/>
	  <point x="200" y="1694"/>
	  <point x="144" y="1645"/>
	  <point x="144" y="1577" type="curve" smooth="yes"/>
	  <point x="144" y="1506"/>
	  <point x="200" y="1457"/>
	</contour>
  </outline>
</glyph>
<glyph name="dotlessi" format="1">
  <advance width="515"/>
  <unicode hex="0131"/>
  <outline>
	<contour>
	  <point x="162" y="0" type="line"/>
	  <point x="354" y="0" type="line"/>
	  <point x="354" y="999" type="line"/>
	  <point x="162" y="999" type="line"/>
	</contour>
	<contour>
	  <point x="321" y="0" type="move" name="mark0"/>
	</contour>
  </outline>
</glyph>
<glyph name="Jcircumflex" format="1">
  <advance width="983"/>
  <unicode hex="0134"/>
  <outline>
	<contour>
	  <point x="54" y="195" type="line"/>
	  <point x="134" y="50"/>
	  <point x="258" y="-25"/>
	  <point x="434" y="-25" type="curve" smooth="yes"/>
	  <point x="704" y="-25"/>
	  <point x="816" y="168"/>
	  <point x="816" y="404" type="curve" smooth="yes"/>
	  <point x="816" y="1342" type="line"/>
	  <point x="621" y="1342" type="line"/>
	  <point x="621" y="422" type="line"/>
	  <point x="621" y="222"/>
	  <point x="552" y="145"/>
	  <point x="415" y="145" type="curve" smooth="yes"/>
	  <point x="324" y="145"/>
	  <point x="250" y="190"/>
	  <point x="190" y="293" type="curve"/>
	</contour>
	<contour>
	  <point x="575" y="1445" type="line"/>
	  <point x="707" y="1581" type="line"/>
	  <point x="716" y="1581" type="line"/>
	  <point x="848" y="1445" type="line"/>
	  <point x="1002" y="1445" type="line"/>
	  <point x="805" y="1676" type="line"/>
	  <point x="618" y="1676" type="line"/>
	  <point x="421" y="1445" type="line"/>
	</contour>
  </outline>
</glyph>
<glyph name="jcircumflex" format="1">
  <advance width="518"/>
  <unicode hex="0135"/>
  <outline>
	<contour>
	  <point x="164" y="-93" type="line"/>
	  <point x="164" y="-211"/>
	  <point x="138" y="-281"/>
	  <point x="44" y="-281" type="curve" smooth="yes"/>
	  <point x="10" y="-281"/>
	  <point x="-23" y="-274"/>
	  <point x="-48" y="-266" type="curve"/>
	  <point x="-86" y="-410" type="line"/>
	  <point x="-50" y="-424"/>
	  <point x="1" y="-436"/>
	  <point x="67" y="-436" type="curve" smooth="yes"/>
	  <point x="280" y="-436"/>
	  <point x="356" y="-297"/>
	  <point x="356" y="-91" type="curve" smooth="yes"/>
	  <point x="356" y="999" type="line"/>
	  <point x="164" y="999" type="line"/>
	</contour>
	<contour>
	  <point x="-13" y="1174" type="line"/>
	  <point x="124" y="1174" type="line"/>
	  <point x="256" y="1356" type="line"/>
	  <point x="264" y="1356" type="line"/>
	  <point x="396" y="1174" type="line"/>
	  <point x="532" y="1174" type="line"/>
	  <point x="339" y="1466" type="line"/>
	  <point x="181" y="1466" type="line"/>
	</contour>
  </outline>
</glyph>
<glyph name="uni0136" format="1">
  <advance width="1190"/>
  <unicode hex="0136"/>
  <outline>
	<contour>
	  <point x="174" y="0" type="line"/>
	  <point x="370" y="0" type="line"/>
	  <point x="370" y="414" type="line"/>
	  <point x="586" y="673" type="line"/>
	  <point x="973" y="0" type="line"/>
	  <point x="1189" y="0" type="line"/>
	  <point x="705" y="826" type="line"/>
	  <point x="1124" y="1342" type="line"/>
	  <point x="904" y="1342" type="line"/>
	  <point x="374" y="692" type="line"/>
	  <point x="370" y="692" type="line"/>
	  <point x="370" y="1342" type="line"/>
	  <point x="174" y="1342" type="line"/>
	</contour>
	<contour>
	  <point x="602" y="-96" type="curve"/>
	  <point x="562" y="-180" type="line"/>
	  <point x="622" y="-194"/>
	  <point x="664" y="-217"/>
	  <point x="664" y="-267" type="curve" smooth="yes"/>
	  <point x="664" y="-319"/>
	  <point x="590" y="-345"/>
	  <point x="485" y="-358" type="curve"/>
	  <point x="503" y="-447" type="line"/>
	  <point x="664" y="-435"/>
	  <point x="810" y="-379"/>
	  <point x="810" y="-256" type="curve" smooth="yes"/>
	  <point x="810" y="-163"/>
	  <point x="750" y="-116"/>
	</contour>
  </outline>
</glyph>
<glyph name="uni0137" format="1">
  <advance width="1034"/>
  <unicode hex="0137"/>
  <outline>
	<contour>
	  <point x="162" y="0" type="line"/>
	  <point x="351" y="0" type="line"/>
	  <point x="351" y="260" type="line"/>
	  <point x="526" y="464" type="line"/>
	  <point x="806" y="0" type="line"/>
	  <point x="1016" y="0" type="line"/>
	  <point x="636" y="596" type="line"/>
	  <point x="974" y="999" type="line"/>
	  <point x="763" y="999" type="line"/>
	  <point x="357" y="497" type="line"/>
	  <point x="351" y="497" type="line"/>
	  <point x="351" y="1454" type="line"/>
	  <point x="162" y="1454" type="line"/>
	</contour>
	<contour>
	  <point x="502" y="-96" type="curve"/>
	  <point x="462" y="-180" type="line"/>
	  <point x="521" y="-194"/>
	  <point x="563" y="-217"/>
	  <point x="563" y="-267" type="curve" smooth="yes"/>
	  <point x="563" y="-319"/>
	  <point x="490" y="-345"/>
	  <point x="383" y="-358" type="curve"/>
	  <point x="402" y="-447" type="line"/>
	  <point x="563" y="-435"/>
	  <point x="709" y="-379"/>
	  <point x="709" y="-256" type="curve" smooth="yes"/>
	  <point x="709" y="-163"/>
	  <point x="650" y="-116"/>
	</contour>
  </outline>
</glyph>
<glyph name="Lacute" format="1">
  <advance width="998"/>
  <unicode hex="0139"/>
  <outline>
	<contour>
	  <point x="174" y="0" type="line"/>
	  <point x="945" y="0" type="line"/>
	  <point x="945" y="165" type="line"/>
	  <point x="370" y="165" type="line"/>
	  <point x="370" y="1342" type="line"/>
	  <point x="174" y="1342" type="line"/>
	</contour>
	<contour>
	  <point x="559" y="1676" type="line"/>
	  <point x="343" y="1676" type="line"/>
	  <point x="165" y="1445" type="line"/>
	  <point x="324" y="1445" type="line"/>
	</contour>
  </outline>
</glyph>
<glyph name="lacute" format="1">
  <advance width="534"/>
  <unicode hex="013A"/>
  <outline>
	<contour>
	  <point x="162" y="222" type="line"/>
	  <point x="162" y="65"/>
	  <point x="216" y="-25"/>
	  <point x="358" y="-25" type="curve" smooth="yes"/>
	  <point x="407" y="-25"/>
	  <point x="440" y="-17"/>
	  <point x="464" y="-7" type="curve"/>
	  <point x="439" y="138" type="line"/>
	  <point x="421" y="134"/>
	  <point x="413" y="134"/>
	  <point x="402" y="134" type="curve" smooth="yes"/>
	  <point x="377" y="134"/>
	  <point x="354" y="154"/>
	  <point x="354" y="209" type="curve" smooth="yes"/>
	  <point x="354" y="1454" type="line"/>
	  <point x="162" y="1454" type="line"/>
	</contour>
	<contour>
	  <point x="532" y="1785" type="line"/>
	  <point x="316" y="1785" type="line"/>
	  <point x="138" y="1553" type="line"/>
	  <point x="298" y="1553" type="line"/>
	</contour>
  </outline>
</glyph>
<glyph name="uni013B" format="1">
  <advance width="998"/>
  <unicode hex="013B"/>
  <outline>
	<contour>
	  <point x="174" y="0" type="line"/>
	  <point x="945" y="0" type="line"/>
	  <point x="945" y="165" type="line"/>
	  <point x="370" y="165" type="line"/>
	  <point x="370" y="1342" type="line"/>
	  <point x="174" y="1342" type="line"/>
	</contour>
	<contour>
	  <point x="523" y="-96" type="curve"/>
	  <point x="483" y="-180" type="line"/>
	  <point x="542" y="-194"/>
	  <point x="584" y="-217"/>
	  <point x="584" y="-267" type="curve" smooth="yes"/>
	  <point x="584" y="-319"/>
	  <point x="511" y="-345"/>
	  <point x="406" y="-358" type="curve"/>
	  <point x="423" y="-447" type="line"/>
	  <point x="585" y="-435"/>
	  <point x="731" y="-379"/>
	  <point x="731" y="-256" type="curve" smooth="yes"/>
	  <point x="731" y="-163"/>
	  <point x="671" y="-116"/>
	</contour>
  </outline>
</glyph>
<glyph name="uni013C" format="1">
  <advance width="534"/>
  <unicode hex="013C"/>
  <outline>
	<contour>
	  <point x="162" y="222" type="line"/>
	  <point x="162" y="65"/>
	  <point x="216" y="-25"/>
	  <point x="358" y="-25" type="curve" smooth="yes"/>
	  <point x="407" y="-25"/>
	  <point x="440" y="-17"/>
	  <point x="464" y="-7" type="curve"/>
	  <point x="439" y="138" type="line"/>
	  <point x="421" y="134"/>
	  <point x="413" y="134"/>
	  <point x="402" y="134" type="curve" smooth="yes"/>
	  <point x="377" y="134"/>
	  <point x="354" y="154"/>
	  <point x="354" y="209" type="curve" smooth="yes"/>
	  <point x="354" y="1454" type="line"/>
	  <point x="162" y="1454" type="line"/>
	</contour>
	<contour>
	  <point x="294" y="-96" type="curve"/>
	  <point x="253" y="-180" type="line"/>
	  <point x="312" y="-194"/>
	  <point x="355" y="-217"/>
	  <point x="355" y="-267" type="curve" smooth="yes"/>
	  <point x="355" y="-319"/>
	  <point x="282" y="-345"/>
	  <point x="175" y="-358" type="curve"/>
	  <point x="194" y="-447" type="line"/>
	  <point x="355" y="-435"/>
	  <point x="501" y="-379"/>
	  <point x="501" y="-256" type="curve" smooth="yes"/>
	  <point x="501" y="-163"/>
	  <point x="441" y="-116"/>
	</contour>
  </outline>
</glyph>
<glyph name="Lcaron" format="1">
  <advance width="998"/>
  <unicode hex="013D"/>
  <outline>
	<contour>
	  <point x="174" y="0" type="line"/>
	  <point x="945" y="0" type="line"/>
	  <point x="945" y="165" type="line"/>
	  <point x="370" y="165" type="line"/>
	  <point x="370" y="1342" type="line"/>
	  <point x="174" y="1342" type="line"/>
	</contour>
	<contour>
	  <point x="776" y="1051" type="line"/>
	  <point x="808" y="1367" type="line"/>
	  <point x="812" y="1489" type="line"/>
	  <point x="678" y="1489" type="line"/>
	  <point x="686" y="1051" type="line"/>
	</contour>
  </outline>
</glyph>
<glyph name="lcaron" format="1">
  <advance width="563"/>
  <unicode hex="013E"/>
  <outline>
	<contour>
	  <point x="162" y="222" type="line"/>
	  <point x="162" y="65"/>
	  <point x="216" y="-25"/>
	  <point x="358" y="-25" type="curve" smooth="yes"/>
	  <point x="407" y="-25"/>
	  <point x="440" y="-17"/>
	  <point x="464" y="-7" type="curve"/>
	  <point x="439" y="138" type="line"/>
	  <point x="421" y="134"/>
	  <point x="413" y="134"/>
	  <point x="402" y="134" type="curve" smooth="yes"/>
	  <point x="377" y="134"/>
	  <point x="354" y="154"/>
	  <point x="354" y="209" type="curve" smooth="yes"/>
	  <point x="354" y="1454" type="line"/>
	  <point x="162" y="1454" type="line"/>
	</contour>
	<contour>
	  <point x="558" y="1122" type="line"/>
	  <point x="590" y="1439" type="line"/>
	  <point x="591" y="1560" type="line"/>
	  <point x="458" y="1560" type="line"/>
	  <point x="466" y="1122" type="line"/>
	</contour>
  </outline>
</glyph>
<glyph name="Ldot" format="1">
  <advance width="998"/>
  <unicode hex="013F"/>
  <outline>
	<contour>
	  <point x="174" y="0" type="line"/>
	  <point x="945" y="0" type="line"/>
	  <point x="945" y="165" type="line"/>
	  <point x="370" y="165" type="line"/>
	  <point x="370" y="1342" type="line"/>
	  <point x="174" y="1342" type="line"/>
	</contour>
	<contour>
	  <point x="647" y="667" type="curve" smooth="yes"/>
	  <point x="647" y="586"/>
	  <point x="706" y="529"/>
	  <point x="779" y="529" type="curve" smooth="yes"/>
	  <point x="854" y="529"/>
	  <point x="913" y="586"/>
	  <point x="913" y="667" type="curve" smooth="yes"/>
	  <point x="913" y="750"/>
	  <point x="854" y="807"/>
	  <point x="779" y="807" type="curve" smooth="yes"/>
	  <point x="706" y="807"/>
	  <point x="647" y="750"/>
	</contour>
  </outline>
</glyph>
<glyph name="ldot" format="1">
  <advance width="775"/>
  <unicode hex="0140"/>
  <outline>
	<contour>
	  <point x="162" y="222" type="line"/>
	  <point x="162" y="65"/>
	  <point x="216" y="-25"/>
	  <point x="358" y="-25" type="curve" smooth="yes"/>
	  <point x="407" y="-25"/>
	  <point x="440" y="-17"/>
	  <point x="464" y="-7" type="curve"/>
	  <point x="439" y="138" type="line"/>
	  <point x="421" y="134"/>
	  <point x="413" y="134"/>
	  <point x="402" y="134" type="curve" smooth="yes"/>
	  <point x="377" y="134"/>
	  <point x="354" y="154"/>
	  <point x="354" y="209" type="curve" smooth="yes"/>
	  <point x="354" y="1454" type="line"/>
	  <point x="162" y="1454" type="line"/>
	</contour>
	<contour>
	  <point x="512" y="667" type="curve" smooth="yes"/>
	  <point x="512" y="586"/>
	  <point x="571" y="529"/>
	  <point x="644" y="529" type="curve" smooth="yes"/>
	  <point x="718" y="529"/>
	  <point x="777" y="586"/>
	  <point x="777" y="667" type="curve" smooth="yes"/>
	  <point x="777" y="750"/>
	  <point x="718" y="807"/>
	  <point x="644" y="807" type="curve" smooth="yes"/>
	  <point x="571" y="807"/>
	  <point x="512" y="750"/>
	</contour>
  </outline>
</glyph>
<glyph name="Nacute" format="1">
  <advance width="1323"/>
  <unicode hex="0143"/>
  <outline>
	<contour>
	  <point x="174" y="0" type="line"/>
	  <point x="359" y="0" type="line"/>
	  <point x="359" y="660" type="line"/>
	  <point x="359" y="805"/>
	  <point x="345" y="954"/>
	  <point x="335" y="1092" type="curve"/>
	  <point x="344" y="1092" type="line"/>
	  <point x="486" y="813" type="line"/>
	  <point x="946" y="0" type="line"/>
	  <point x="1147" y="0" type="line"/>
	  <point x="1147" y="1342" type="line"/>
	  <point x="962" y="1342" type="line"/>
	  <point x="962" y="688" type="line"/>
	  <point x="962" y="544"/>
	  <point x="978" y="386"/>
	  <point x="987" y="250" type="curve"/>
	  <point x="979" y="250" type="line"/>
	  <point x="837" y="532" type="line"/>
	  <point x="374" y="1342" type="line"/>
	  <point x="174" y="1342" type="line"/>
	</contour>
	<contour>
	  <point x="947" y="1676" type="line"/>
	  <point x="731" y="1676" type="line"/>
	  <point x="553" y="1445" type="line"/>
	  <point x="712" y="1445" type="line"/>
	</contour>
  </outline>
</glyph>
<glyph name="nacute" format="1">
  <advance width="1129"/>
  <unicode hex="0144"/>
  <outline>
	<contour>
	  <point x="162" y="0" type="line"/>
	  <point x="354" y="0" type="line"/>
	  <point x="354" y="715" type="line"/>
	  <point x="448" y="808"/>
	  <point x="514" y="858"/>
	  <point x="611" y="858" type="curve" smooth="yes"/>
	  <point x="734" y="858"/>
	  <point x="788" y="785"/>
	  <point x="788" y="605" type="curve" smooth="yes"/>
	  <point x="788" y="0" type="line"/>
	  <point x="980" y="0" type="line"/>
	  <point x="980" y="631" type="line"/>
	  <point x="980" y="885"/>
	  <point x="885" y="1024"/>
	  <point x="675" y="1024" type="curve" smooth="yes"/>
	  <point x="537" y="1024"/>
	  <point x="435" y="950"/>
	  <point x="343" y="858" type="curve"/>
	  <point x="336" y="858" type="line"/>
	  <point x="320" y="999" type="line"/>
	  <point x="162" y="999" type="line"/>
	</contour>
	<contour>
	  <point x="845" y="1466" type="line"/>
	  <point x="648" y="1466" type="line"/>
	  <point x="465" y="1174" type="line"/>
	  <point x="610" y="1174" type="line"/>
	</contour>
  </outline>
</glyph>
<glyph name="uni0145" format="1">
  <advance width="1323"/>
  <unicode hex="0145"/>
  <outline>
	<contour>
	  <point x="174" y="0" type="line"/>
	  <point x="359" y="0" type="line"/>
	  <point x="359" y="660" type="line"/>
	  <point x="359" y="805"/>
	  <point x="345" y="954"/>
	  <point x="335" y="1092" type="curve"/>
	  <point x="344" y="1092" type="line"/>
	  <point x="486" y="813" type="line"/>
	  <point x="946" y="0" type="line"/>
	  <point x="1147" y="0" type="line"/>
	  <point x="1147" y="1342" type="line"/>
	  <point x="962" y="1342" type="line"/>
	  <point x="962" y="688" type="line"/>
	  <point x="962" y="544"/>
	  <point x="978" y="386"/>
	  <point x="987" y="250" type="curve"/>
	  <point x="979" y="250" type="line"/>
	  <point x="837" y="532" type="line"/>
	  <point x="374" y="1342" type="line"/>
	  <point x="174" y="1342" type="line"/>
	</contour>
	<contour>
	  <point x="611" y="-96" type="curve"/>
	  <point x="569" y="-180" type="line"/>
	  <point x="630" y="-194"/>
	  <point x="672" y="-217"/>
	  <point x="672" y="-267" type="curve" smooth="yes"/>
	  <point x="672" y="-319"/>
	  <point x="598" y="-345"/>
	  <point x="494" y="-358" type="curve"/>
	  <point x="511" y="-447" type="line"/>
	  <point x="672" y="-435"/>
	  <point x="818" y="-379"/>
	  <point x="818" y="-256" type="curve" smooth="yes"/>
	  <point x="818" y="-163"/>
	  <point x="757" y="-116"/>
	</contour>
  </outline>
</glyph>
<glyph name="uni0146" format="1">
  <advance width="1129"/>
  <unicode hex="0146"/>
  <outline>
	<contour>
	  <point x="162" y="0" type="line"/>
	  <point x="354" y="0" type="line"/>
	  <point x="354" y="715" type="line"/>
	  <point x="448" y="808"/>
	  <point x="514" y="858"/>
	  <point x="611" y="858" type="curve" smooth="yes"/>
	  <point x="734" y="858"/>
	  <point x="788" y="785"/>
	  <point x="788" y="605" type="curve" smooth="yes"/>
	  <point x="788" y="0" type="line"/>
	  <point x="980" y="0" type="line"/>
	  <point x="980" y="631" type="line"/>
	  <point x="980" y="885"/>
	  <point x="885" y="1024"/>
	  <point x="675" y="1024" type="curve" smooth="yes"/>
	  <point x="537" y="1024"/>
	  <point x="435" y="950"/>
	  <point x="343" y="858" type="curve"/>
	  <point x="336" y="858" type="line"/>
	  <point x="320" y="999" type="line"/>
	  <point x="162" y="999" type="line"/>
	</contour>
	<contour>
	  <point x="514" y="-96" type="curve"/>
	  <point x="474" y="-180" type="line"/>
	  <point x="531" y="-194"/>
	  <point x="575" y="-217"/>
	  <point x="575" y="-267" type="curve" smooth="yes"/>
	  <point x="575" y="-319"/>
	  <point x="502" y="-345"/>
	  <point x="395" y="-358" type="curve"/>
	  <point x="413" y="-447" type="line"/>
	  <point x="575" y="-435"/>
	  <point x="722" y="-379"/>
	  <point x="722" y="-256" type="curve" smooth="yes"/>
	  <point x="722" y="-163"/>
	  <point x="660" y="-116"/>
	</contour>
  </outline>
</glyph>
<glyph name="Ncaron" format="1">
  <advance width="1323"/>
  <unicode hex="0147"/>
  <outline>
	<contour>
	  <point x="174" y="0" type="line"/>
	  <point x="359" y="0" type="line"/>
	  <point x="359" y="660" type="line"/>
	  <point x="359" y="805"/>
	  <point x="345" y="954"/>
	  <point x="335" y="1092" type="curve"/>
	  <point x="344" y="1092" type="line"/>
	  <point x="486" y="813" type="line"/>
	  <point x="946" y="0" type="line"/>
	  <point x="1147" y="0" type="line"/>
	  <point x="1147" y="1342" type="line"/>
	  <point x="962" y="1342" type="line"/>
	  <point x="962" y="688" type="line"/>
	  <point x="962" y="544"/>
	  <point x="978" y="386"/>
	  <point x="987" y="250" type="curve"/>
	  <point x="979" y="250" type="line"/>
	  <point x="837" y="532" type="line"/>
	  <point x="374" y="1342" type="line"/>
	  <point x="174" y="1342" type="line"/>
	</contour>
	<contour>
	  <point x="803" y="1676" type="line"/>
	  <point x="671" y="1540" type="line"/>
	  <point x="662" y="1540" type="line"/>
	  <point x="530" y="1676" type="line"/>
	  <point x="376" y="1676" type="line"/>
	  <point x="573" y="1445" type="line"/>
	  <point x="760" y="1445" type="line"/>
	  <point x="957" y="1676" type="line"/>
	</contour>
  </outline>
</glyph>
<glyph name="ncaron" format="1">
  <advance width="1129"/>
  <unicode hex="0148"/>
  <outline>
	<contour>
	  <point x="162" y="0" type="line"/>
	  <point x="354" y="0" type="line"/>
	  <point x="354" y="715" type="line"/>
	  <point x="448" y="808"/>
	  <point x="514" y="858"/>
	  <point x="611" y="858" type="curve" smooth="yes"/>
	  <point x="734" y="858"/>
	  <point x="788" y="785"/>
	  <point x="788" y="605" type="curve" smooth="yes"/>
	  <point x="788" y="0" type="line"/>
	  <point x="980" y="0" type="line"/>
	  <point x="980" y="631" type="line"/>
	  <point x="980" y="885"/>
	  <point x="885" y="1024"/>
	  <point x="675" y="1024" type="curve" smooth="yes"/>
	  <point x="537" y="1024"/>
	  <point x="435" y="950"/>
	  <point x="343" y="858" type="curve"/>
	  <point x="336" y="858" type="line"/>
	  <point x="320" y="999" type="line"/>
	  <point x="162" y="999" type="line"/>
	</contour>
	<contour>
	  <point x="525" y="1174" type="line"/>
	  <point x="683" y="1174" type="line"/>
	  <point x="876" y="1466" type="line"/>
	  <point x="740" y="1466" type="line"/>
	  <point x="608" y="1283" type="line"/>
	  <point x="600" y="1283" type="line"/>
	  <point x="468" y="1466" type="line"/>
	  <point x="331" y="1466" type="line"/>
	</contour>
  </outline>
</glyph>
<glyph name="napostrophe" format="1">
  <advance width="1616"/>
  <unicode hex="0149"/>
  <outline>
	<contour>
	  <point x="182" y="853" type="line"/>
	  <point x="334" y="938"/>
	  <point x="415" y="1060"/>
	  <point x="415" y="1229" type="curve" smooth="yes"/>
	  <point x="415" y="1358"/>
	  <point x="362" y="1431"/>
	  <point x="274" y="1431" type="curve" smooth="yes"/>
	  <point x="206" y="1431"/>
	  <point x="157" y="1384"/>
	  <point x="157" y="1307" type="curve" smooth="yes"/>
	  <point x="157" y="1236"/>
	  <point x="212" y="1195"/>
	  <point x="274" y="1195" type="curve" smooth="yes"/>
	  <point x="280" y="1195"/>
	  <point x="285" y="1195"/>
	  <point x="292" y="1198" type="curve"/>
	  <point x="292" y="1078"/>
	  <point x="238" y="1007"/>
	  <point x="132" y="941" type="curve"/>
	</contour>
	<contour>
	  <point x="812" y="858" type="line"/>
	  <point x="796" y="999" type="line"/>
	  <point x="637" y="999" type="line"/>
	  <point x="637" y="0" type="line"/>
	  <point x="832" y="0" type="line"/>
	  <point x="832" y="715" type="line"/>
	  <point x="924" y="808"/>
	  <point x="991" y="858"/>
	  <point x="1087" y="858" type="curve" smooth="yes"/>
	  <point x="1211" y="858"/>
	  <point x="1263" y="785"/>
	  <point x="1263" y="605" type="curve" smooth="yes"/>
	  <point x="1263" y="0" type="line"/>
	  <point x="1456" y="0" type="line"/>
	  <point x="1456" y="631" type="line"/>
	  <point x="1456" y="885"/>
	  <point x="1362" y="1024"/>
	  <point x="1151" y="1024" type="curve" smooth="yes"/>
	  <point x="1013" y="1024"/>
	  <point x="911" y="950"/>
	  <point x="818" y="858" type="curve"/>
	</contour>
  </outline>
</glyph>
<glyph name="Omacron" format="1">
  <advance width="1359"/>
  <unicode hex="014C"/>
  <outline>
	<contour>
	  <point x="680" y="-25" type="curve" smooth="yes"/>
	  <point x="1021" y="-25"/>
	  <point x="1259" y="245"/>
	  <point x="1259" y="677" type="curve" smooth="yes"/>
	  <point x="1259" y="1106"/>
	  <point x="1021" y="1367"/>
	  <point x="680" y="1367" type="curve" smooth="yes"/>
	  <point x="338" y="1367"/>
	  <point x="99" y="1108"/>
	  <point x="99" y="677" type="curve" smooth="yes"/>
	  <point x="99" y="245"/>
	  <point x="338" y="-25"/>
	</contour>
	<contour>
	  <point x="680" y="145" type="curve" smooth="yes"/>
	  <point x="449" y="145"/>
	  <point x="299" y="354"/>
	  <point x="299" y="677" type="curve" smooth="yes"/>
	  <point x="299" y="999"/>
	  <point x="449" y="1197"/>
	  <point x="680" y="1197" type="curve" smooth="yes"/>
	  <point x="909" y="1197"/>
	  <point x="1059" y="999"/>
	  <point x="1059" y="677" type="curve" smooth="yes"/>
	  <point x="1059" y="354"/>
	  <point x="909" y="145"/>
	</contour>
	<contour>
	  <point x="420" y="1490" type="line"/>
	  <point x="941" y="1490" type="line"/>
	  <point x="941" y="1620" type="line"/>
	  <point x="420" y="1620" type="line"/>
	</contour>
  </outline>
</glyph>
<glyph name="omacron" format="1">
  <advance width="1115"/>
  <unicode hex="014D"/>
  <outline>
	<contour>
	  <point x="90" y="498" type="curve" smooth="yes"/>
	  <point x="90" y="167"/>
	  <point x="311" y="-25"/>
	  <point x="558" y="-25" type="curve" smooth="yes"/>
	  <point x="804" y="-25"/>
	  <point x="1025" y="167"/>
	  <point x="1025" y="498" type="curve" smooth="yes"/>
	  <point x="1025" y="832"/>
	  <point x="804" y="1024"/>
	  <point x="558" y="1024" type="curve" smooth="yes"/>
	  <point x="311" y="1024"/>
	  <point x="90" y="832"/>
	</contour>
	<contour>
	  <point x="289" y="498" type="curve" smooth="yes"/>
	  <point x="289" y="717"/>
	  <point x="396" y="866"/>
	  <point x="558" y="866" type="curve" smooth="yes"/>
	  <point x="721" y="866"/>
	  <point x="826" y="717"/>
	  <point x="826" y="498" type="curve" smooth="yes"/>
	  <point x="826" y="280"/>
	  <point x="721" y="134"/>
	  <point x="558" y="134" type="curve" smooth="yes"/>
	  <point x="396" y="134"/>
	  <point x="289" y="280"/>
	</contour>
	<contour>
	  <point x="302" y="1228" type="line"/>
	  <point x="815" y="1228" type="line"/>
	  <point x="815" y="1358" type="line"/>
	  <point x="302" y="1358" type="line"/>
	</contour>
  </outline>
</glyph>
<glyph name="uni014E" format="1">
  <advance width="1359"/>
  <unicode hex="014E"/>
  <outline>
	<contour>
	  <point x="680" y="-25" type="curve" smooth="yes"/>
	  <point x="1021" y="-25"/>
	  <point x="1259" y="245"/>
	  <point x="1259" y="677" type="curve" smooth="yes"/>
	  <point x="1259" y="1106"/>
	  <point x="1021" y="1367"/>
	  <point x="680" y="1367" type="curve" smooth="yes"/>
	  <point x="338" y="1367"/>
	  <point x="99" y="1108"/>
	  <point x="99" y="677" type="curve" smooth="yes"/>
	  <point x="99" y="245"/>
	  <point x="338" y="-25"/>
	</contour>
	<contour>
	  <point x="680" y="145" type="curve" smooth="yes"/>
	  <point x="449" y="145"/>
	  <point x="299" y="354"/>
	  <point x="299" y="677" type="curve" smooth="yes"/>
	  <point x="299" y="999"/>
	  <point x="449" y="1197"/>
	  <point x="680" y="1197" type="curve" smooth="yes"/>
	  <point x="909" y="1197"/>
	  <point x="1059" y="999"/>
	  <point x="1059" y="677" type="curve" smooth="yes"/>
	  <point x="1059" y="354"/>
	  <point x="909" y="145"/>
	</contour>
	<contour>
	  <point x="680" y="1448" type="curve" smooth="yes"/>
	  <point x="846" y="1448"/>
	  <point x="922" y="1557"/>
	  <point x="937" y="1676" type="curve"/>
	  <point x="822" y="1676" type="line"/>
	  <point x="810" y="1614"/>
	  <point x="768" y="1554"/>
	  <point x="680" y="1554" type="curve" smooth="yes"/>
	  <point x="591" y="1554"/>
	  <point x="549" y="1614"/>
	  <point x="537" y="1676" type="curve"/>
	  <point x="423" y="1676" type="line"/>
	  <point x="436" y="1557"/>
	  <point x="513" y="1448"/>
	</contour>
  </outline>
</glyph>
<glyph name="uni014F" format="1">
  <advance width="1115"/>
  <unicode hex="014F"/>
  <outline>
	<contour>
	  <point x="90" y="498" type="curve" smooth="yes"/>
	  <point x="90" y="167"/>
	  <point x="311" y="-25"/>
	  <point x="558" y="-25" type="curve" smooth="yes"/>
	  <point x="804" y="-25"/>
	  <point x="1025" y="167"/>
	  <point x="1025" y="498" type="curve" smooth="yes"/>
	  <point x="1025" y="832"/>
	  <point x="804" y="1024"/>
	  <point x="558" y="1024" type="curve" smooth="yes"/>
	  <point x="311" y="1024"/>
	  <point x="90" y="832"/>
	</contour>
	<contour>
	  <point x="289" y="498" type="curve" smooth="yes"/>
	  <point x="289" y="717"/>
	  <point x="396" y="866"/>
	  <point x="558" y="866" type="curve" smooth="yes"/>
	  <point x="721" y="866"/>
	  <point x="826" y="717"/>
	  <point x="826" y="498" type="curve" smooth="yes"/>
	  <point x="826" y="280"/>
	  <point x="721" y="134"/>
	  <point x="558" y="134" type="curve" smooth="yes"/>
	  <point x="396" y="134"/>
	  <point x="289" y="280"/>
	</contour>
	<contour>
	  <point x="558" y="1178" type="curve" smooth="yes"/>
	  <point x="736" y="1178"/>
	  <point x="813" y="1316"/>
	  <point x="821" y="1442" type="curve"/>
	  <point x="705" y="1442" type="line"/>
	  <point x="694" y="1365"/>
	  <point x="649" y="1293"/>
	  <point x="558" y="1293" type="curve" smooth="yes"/>
	  <point x="466" y="1293"/>
	  <point x="421" y="1365"/>
	  <point x="410" y="1442" type="curve"/>
	  <point x="294" y="1442" type="line"/>
	  <point x="302" y="1316"/>
	  <point x="379" y="1178"/>
	</contour>
  </outline>
</glyph>
<glyph name="Ohungarumlaut" format="1">
  <advance width="1359"/>
  <unicode hex="0150"/>
  <outline>
	<contour>
	  <point x="680" y="-25" type="curve" smooth="yes"/>
	  <point x="1021" y="-25"/>
	  <point x="1259" y="245"/>
	  <point x="1259" y="677" type="curve" smooth="yes"/>
	  <point x="1259" y="1106"/>
	  <point x="1021" y="1367"/>
	  <point x="680" y="1367" type="curve" smooth="yes"/>
	  <point x="338" y="1367"/>
	  <point x="99" y="1108"/>
	  <point x="99" y="677" type="curve" smooth="yes"/>
	  <point x="99" y="245"/>
	  <point x="338" y="-25"/>
	</contour>
	<contour>
	  <point x="680" y="145" type="curve" smooth="yes"/>
	  <point x="449" y="145"/>
	  <point x="299" y="354"/>
	  <point x="299" y="677" type="curve" smooth="yes"/>
	  <point x="299" y="999"/>
	  <point x="449" y="1197"/>
	  <point x="680" y="1197" type="curve" smooth="yes"/>
	  <point x="909" y="1197"/>
	  <point x="1059" y="999"/>
	  <point x="1059" y="677" type="curve" smooth="yes"/>
	  <point x="1059" y="354"/>
	  <point x="909" y="145"/>
	</contour>
	<contour>
	  <point x="582" y="1445" type="line"/>
	  <point x="756" y="1676" type="line"/>
	  <point x="580" y="1676" type="line"/>
	  <point x="447" y="1445" type="line"/>
	</contour>
	<contour>
	  <point x="776" y="1445" type="line"/>
	  <point x="914" y="1445" type="line"/>
	  <point x="1086" y="1676" type="line"/>
	  <point x="910" y="1676" type="line"/>
	</contour>
  </outline>
</glyph>
<glyph name="ohungarumlaut" format="1">
  <advance width="1115"/>
  <unicode hex="0151"/>
  <outline>
	<contour>
	  <point x="90" y="498" type="curve" smooth="yes"/>
	  <point x="90" y="167"/>
	  <point x="311" y="-25"/>
	  <point x="558" y="-25" type="curve" smooth="yes"/>
	  <point x="804" y="-25"/>
	  <point x="1025" y="167"/>
	  <point x="1025" y="498" type="curve" smooth="yes"/>
	  <point x="1025" y="832"/>
	  <point x="804" y="1024"/>
	  <point x="558" y="1024" type="curve" smooth="yes"/>
	  <point x="311" y="1024"/>
	  <point x="90" y="832"/>
	</contour>
	<contour>
	  <point x="289" y="498" type="curve" smooth="yes"/>
	  <point x="289" y="717"/>
	  <point x="396" y="866"/>
	  <point x="558" y="866" type="curve" smooth="yes"/>
	  <point x="721" y="866"/>
	  <point x="826" y="717"/>
	  <point x="826" y="498" type="curve" smooth="yes"/>
	  <point x="826" y="280"/>
	  <point x="721" y="134"/>
	  <point x="558" y="134" type="curve" smooth="yes"/>
	  <point x="396" y="134"/>
	  <point x="289" y="280"/>
	</contour>
	<contour>
	  <point x="346" y="1170" type="line"/>
	  <point x="491" y="1466" type="line"/>
	  <point x="655" y="1466" type="line"/>
	  <point x="472" y="1170" type="line"/>
	</contour>
	<contour>
	  <point x="656" y="1170" type="line"/>
	  <point x="782" y="1170" type="line"/>
	  <point x="965" y="1466" type="line"/>
	  <point x="801" y="1466" type="line"/>
	</contour>
  </outline>
</glyph>
<glyph name="OE" format="1">
  <advance width="1734"/>
  <unicode hex="0152"/>
  <outline>
	<contour>
	  <point x="99" y="677" type="curve" smooth="yes"/>
	  <point x="99" y="244"/>
	  <point x="350" y="0"/>
	  <point x="752" y="0" type="curve" smooth="yes"/>
	  <point x="1638" y="0" type="line"/>
	  <point x="1638" y="165" type="line"/>
	  <point x="1060" y="165" type="line"/>
	  <point x="1060" y="620" type="line"/>
	  <point x="1527" y="620" type="line"/>
	  <point x="1527" y="784" type="line"/>
	  <point x="1060" y="784" type="line"/>
	  <point x="1060" y="1178" type="line"/>
	  <point x="1618" y="1178" type="line"/>
	  <point x="1618" y="1342" type="line"/>
	  <point x="762" y="1342" type="line"/>
	  <point x="350" y="1342"/>
	  <point x="99" y="1109"/>
	</contour>
	<contour>
	  <point x="299" y="677" type="curve" smooth="yes"/>
	  <point x="299" y="1014"/>
	  <point x="467" y="1183"/>
	  <point x="775" y="1183" type="curve" smooth="yes"/>
	  <point x="864" y="1183" type="line"/>
	  <point x="864" y="158" type="line"/>
	  <point x="775" y="158" type="line"/>
	  <point x="467" y="158"/>
	  <point x="299" y="339"/>
	</contour>
	<contour>
	  <point x="1083" y="1387" type="move" name="mark0"/>
	</contour>
  </outline>
</glyph>
<glyph name="Racute" format="1">
  <advance width="1195"/>
  <unicode hex="0154"/>
  <outline>
	<contour>
	  <point x="883" y="1676" type="line"/>
	  <point x="667" y="1676" type="line"/>
	  <point x="490" y="1445" type="line"/>
	  <point x="649" y="1445" type="line"/>
	</contour>
	<contour>
	  <point x="370" y="1186" type="line"/>
	  <point x="582" y="1186" type="line"/>
	  <point x="781" y="1186"/>
	  <point x="891" y="1126"/>
	  <point x="891" y="958" type="curve" smooth="yes"/>
	  <point x="891" y="792"/>
	  <point x="781" y="710"/>
	  <point x="582" y="710" type="curve" smooth="yes"/>
	  <point x="370" y="710" type="line"/>
	</contour>
	<contour>
	  <point x="1130" y="0" type="line"/>
	  <point x="795" y="577" type="line"/>
	  <point x="970" y="627"/>
	  <point x="1084" y="752"/>
	  <point x="1084" y="958" type="curve" smooth="yes"/>
	  <point x="1084" y="1244"/>
	  <point x="881" y="1342"/>
	  <point x="607" y="1342" type="curve" smooth="yes"/>
	  <point x="174" y="1342" type="line"/>
	  <point x="174" y="0" type="line"/>
	  <point x="370" y="0" type="line"/>
	  <point x="370" y="551" type="line"/>
	  <point x="598" y="551" type="line"/>
	  <point x="908" y="0" type="line"/>
	</contour>
  </outline>
</glyph>
<glyph name="racute" format="1">
  <advance width="730"/>
  <unicode hex="0155"/>
  <outline>
	<contour>
	  <point x="162" y="0" type="line"/>
	  <point x="354" y="0" type="line"/>
	  <point x="354" y="630" type="line"/>
	  <point x="418" y="792"/>
	  <point x="518" y="851"/>
	  <point x="601" y="851" type="curve" smooth="yes"/>
	  <point x="642" y="851"/>
	  <point x="666" y="845"/>
	  <point x="699" y="835" type="curve"/>
	  <point x="735" y="1003" type="line"/>
	  <point x="703" y="1017"/>
	  <point x="672" y="1024"/>
	  <point x="626" y="1024" type="curve" smooth="yes"/>
	  <point x="515" y="1024"/>
	  <point x="411" y="946"/>
	  <point x="343" y="819" type="curve"/>
	  <point x="336" y="819" type="line"/>
	  <point x="320" y="999" type="line"/>
	  <point x="162" y="999" type="line"/>
	</contour>
	<contour>
	  <point x="697" y="1466" type="line"/>
	  <point x="502" y="1466" type="line"/>
	  <point x="316" y="1174" type="line"/>
	  <point x="463" y="1174" type="line"/>
	</contour>
  </outline>
</glyph>
<glyph name="uni0156" format="1">
  <advance width="1195"/>
  <unicode hex="0156"/>
  <outline>
	<contour>
	  <point x="533" y="-180" type="line"/>
	  <point x="591" y="-194"/>
	  <point x="635" y="-217"/>
	  <point x="635" y="-267" type="curve" smooth="yes"/>
	  <point x="635" y="-319"/>
	  <point x="560" y="-345"/>
	  <point x="455" y="-358" type="curve"/>
	  <point x="472" y="-447" type="line"/>
	  <point x="636" y="-435"/>
	  <point x="782" y="-379"/>
	  <point x="782" y="-256" type="curve" smooth="yes"/>
	  <point x="782" y="-163"/>
	  <point x="720" y="-116"/>
	  <point x="574" y="-96" type="curve"/>
	</contour>
	<contour>
	  <point x="370" y="1186" type="line"/>
	  <point x="582" y="1186" type="line"/>
	  <point x="781" y="1186"/>
	  <point x="891" y="1126"/>
	  <point x="891" y="958" type="curve" smooth="yes"/>
	  <point x="891" y="792"/>
	  <point x="781" y="710"/>
	  <point x="582" y="710" type="curve" smooth="yes"/>
	  <point x="370" y="710" type="line"/>
	</contour>
	<contour>
	  <point x="795" y="577" type="line"/>
	  <point x="970" y="627"/>
	  <point x="1084" y="752"/>
	  <point x="1084" y="958" type="curve" smooth="yes"/>
	  <point x="1084" y="1244"/>
	  <point x="881" y="1342"/>
	  <point x="607" y="1342" type="curve" smooth="yes"/>
	  <point x="174" y="1342" type="line"/>
	  <point x="174" y="0" type="line"/>
	  <point x="370" y="0" type="line"/>
	  <point x="370" y="551" type="line"/>
	  <point x="598" y="551" type="line"/>
	  <point x="908" y="0" type="line"/>
	  <point x="1130" y="0" type="line"/>
	</contour>
  </outline>
</glyph>
<glyph name="uni0157" format="1">
  <advance width="730"/>
  <unicode hex="0157"/>
  <outline>
	<contour>
	  <point x="162" y="0" type="line"/>
	  <point x="354" y="0" type="line"/>
	  <point x="354" y="630" type="line"/>
	  <point x="418" y="792"/>
	  <point x="518" y="851"/>
	  <point x="601" y="851" type="curve" smooth="yes"/>
	  <point x="642" y="851"/>
	  <point x="666" y="845"/>
	  <point x="699" y="835" type="curve"/>
	  <point x="735" y="1003" type="line"/>
	  <point x="703" y="1017"/>
	  <point x="672" y="1024"/>
	  <point x="626" y="1024" type="curve" smooth="yes"/>
	  <point x="515" y="1024"/>
	  <point x="411" y="946"/>
	  <point x="343" y="819" type="curve"/>
	  <point x="336" y="819" type="line"/>
	  <point x="320" y="999" type="line"/>
	  <point x="162" y="999" type="line"/>
	</contour>
	<contour>
	  <point x="192" y="-96" type="curve"/>
	  <point x="152" y="-180" type="line"/>
	  <point x="211" y="-194"/>
	  <point x="253" y="-217"/>
	  <point x="253" y="-267" type="curve" smooth="yes"/>
	  <point x="253" y="-319"/>
	  <point x="179" y="-345"/>
	  <point x="75" y="-358" type="curve"/>
	  <point x="92" y="-447" type="line"/>
	  <point x="254" y="-435"/>
	  <point x="400" y="-379"/>
	  <point x="400" y="-256" type="curve" smooth="yes"/>
	  <point x="400" y="-163"/>
	  <point x="340" y="-116"/>
	</contour>
  </outline>
</glyph>
<glyph name="rcaron" format="1">
  <advance width="730"/>
  <unicode hex="0159"/>
  <outline>
	<contour>
	  <point x="162" y="0" type="line"/>
	  <point x="354" y="0" type="line"/>
	  <point x="354" y="630" type="line"/>
	  <point x="418" y="792"/>
	  <point x="518" y="851"/>
	  <point x="601" y="851" type="curve" smooth="yes"/>
	  <point x="642" y="851"/>
	  <point x="666" y="845"/>
	  <point x="699" y="835" type="curve"/>
	  <point x="735" y="1003" type="line"/>
	  <point x="703" y="1017"/>
	  <point x="672" y="1024"/>
	  <point x="626" y="1024" type="curve" smooth="yes"/>
	  <point x="515" y="1024"/>
	  <point x="411" y="946"/>
	  <point x="343" y="819" type="curve"/>
	  <point x="336" y="819" type="line"/>
	  <point x="320" y="999" type="line"/>
	  <point x="162" y="999" type="line"/>
	</contour>
	<contour>
	  <point x="378" y="1174" type="line"/>
	  <point x="534" y="1174" type="line"/>
	  <point x="730" y="1466" type="line"/>
	  <point x="593" y="1466" type="line"/>
	  <point x="462" y="1283" type="line"/>
	  <point x="453" y="1283" type="line"/>
	  <point x="321" y="1466" type="line"/>
	  <point x="183" y="1466" type="line"/>
	</contour>
  </outline>
</glyph>
<glyph name="Sacute" format="1">
  <advance width="1093"/>
  <unicode hex="015A"/>
  <outline>
	<contour>
	  <point x="80" y="173" type="line"/>
	  <point x="200" y="51"/>
	  <point x="367" y="-25"/>
	  <point x="554" y="-25" type="curve" smooth="yes"/>
	  <point x="843" y="-25"/>
	  <point x="1020" y="149"/>
	  <point x="1020" y="364" type="curve" smooth="yes"/>
	  <point x="1020" y="561"/>
	  <point x="903" y="656"/>
	  <point x="746" y="723" type="curve" smooth="yes"/>
	  <point x="558" y="803" type="line"/>
	  <point x="451" y="848"/>
	  <point x="337" y="894"/>
	  <point x="337" y="1014" type="curve" smooth="yes"/>
	  <point x="337" y="1127"/>
	  <point x="432" y="1197"/>
	  <point x="574" y="1197" type="curve" smooth="yes"/>
	  <point x="694" y="1197"/>
	  <point x="792" y="1149"/>
	  <point x="875" y="1074" type="curve"/>
	  <point x="977" y="1199" type="line"/>
	  <point x="878" y="1300"/>
	  <point x="733" y="1367"/>
	  <point x="574" y="1367" type="curve" smooth="yes"/>
	  <point x="325" y="1367"/>
	  <point x="141" y="1211"/>
	  <point x="141" y="1003" type="curve" smooth="yes"/>
	  <point x="141" y="806"/>
	  <point x="286" y="707"/>
	  <point x="413" y="654" type="curve" smooth="yes"/>
	  <point x="602" y="571" type="line"/>
	  <point x="727" y="515"/>
	  <point x="822" y="475"/>
	  <point x="822" y="348" type="curve" smooth="yes"/>
	  <point x="822" y="226"/>
	  <point x="725" y="145"/>
	  <point x="558" y="145" type="curve" smooth="yes"/>
	  <point x="423" y="145"/>
	  <point x="291" y="211"/>
	  <point x="195" y="308" type="curve"/>
	</contour>
	<contour>
	  <point x="851" y="1676" type="line"/>
	  <point x="635" y="1676" type="line"/>
	  <point x="458" y="1445" type="line"/>
	  <point x="617" y="1445" type="line"/>
	</contour>
  </outline>
</glyph>
<glyph name="scircumflex" format="1">
  <advance width="867"/>
  <unicode hex="015D"/>
  <outline>
	<contour>
	  <point x="54" y="114" type="line"/>
	  <point x="151" y="35"/>
	  <point x="289" y="-25"/>
	  <point x="429" y="-25" type="curve" smooth="yes"/>
	  <point x="672" y="-25"/>
	  <point x="803" y="112"/>
	  <point x="803" y="278" type="curve" smooth="yes"/>
	  <point x="803" y="466"/>
	  <point x="646" y="528"/>
	  <point x="505" y="579" type="curve" smooth="yes"/>
	  <point x="394" y="622"/>
	  <point x="288" y="656"/>
	  <point x="288" y="744" type="curve" smooth="yes"/>
	  <point x="288" y="815"/>
	  <point x="342" y="876"/>
	  <point x="459" y="876" type="curve" smooth="yes"/>
	  <point x="543" y="876"/>
	  <point x="614" y="840"/>
	  <point x="683" y="788" type="curve"/>
	  <point x="773" y="908" type="line"/>
	  <point x="695" y="970"/>
	  <point x="585" y="1024"/>
	  <point x="455" y="1024" type="curve" smooth="yes"/>
	  <point x="236" y="1024"/>
	  <point x="104" y="900"/>
	  <point x="104" y="734" type="curve" smooth="yes"/>
	  <point x="104" y="566"/>
	  <point x="258" y="496"/>
	  <point x="395" y="446" type="curve" smooth="yes"/>
	  <point x="504" y="405"/>
	  <point x="620" y="363"/>
	  <point x="620" y="266" type="curve" smooth="yes"/>
	  <point x="620" y="186"/>
	  <point x="559" y="123"/>
	  <point x="435" y="123" type="curve" smooth="yes"/>
	  <point x="322" y="123"/>
	  <point x="235" y="171"/>
	  <point x="148" y="240" type="curve"/>
	</contour>
	<contour>
	  <point x="183" y="1174" type="line"/>
	  <point x="320" y="1174" type="line"/>
	  <point x="452" y="1356" type="line"/>
	  <point x="461" y="1356" type="line"/>
	  <point x="593" y="1174" type="line"/>
	  <point x="729" y="1174" type="line"/>
	  <point x="535" y="1466" type="line"/>
	  <point x="378" y="1466" type="line"/>
	</contour>
  </outline>
</glyph>
<glyph name="Tcaron" format="1">
  <advance width="1096"/>
  <unicode hex="0164"/>
  <outline>
	<contour>
	  <point x="451" y="0" type="line"/>
	  <point x="645" y="0" type="line"/>
	  <point x="645" y="1178" type="line"/>
	  <point x="1045" y="1178" type="line"/>
	  <point x="1045" y="1342" type="line"/>
	  <point x="51" y="1342" type="line"/>
	  <point x="51" y="1178" type="line"/>
	  <point x="451" y="1178" type="line"/>
	</contour>
	<contour>
	  <point x="684" y="1676" type="line"/>
	  <point x="551" y="1540" type="line"/>
	  <point x="543" y="1540" type="line"/>
	  <point x="411" y="1676" type="line"/>
	  <point x="257" y="1676" type="line"/>
	  <point x="454" y="1445" type="line"/>
	  <point x="641" y="1445" type="line"/>
	  <point x="837" y="1676" type="line"/>
	</contour>
  </outline>
</glyph>
<glyph name="tcaron" format="1">
  <advance width="709"/>
  <unicode hex="0165"/>
  <outline>
	<contour>
	  <point x="193" y="318" type="line"/>
	  <point x="193" y="115"/>
	  <point x="269" y="-25"/>
	  <point x="489" y="-25" type="curve" smooth="yes"/>
	  <point x="558" y="-25"/>
	  <point x="626" y="-6"/>
	  <point x="681" y="12" type="curve"/>
	  <point x="646" y="156" type="line"/>
	  <point x="614" y="144"/>
	  <point x="570" y="131"/>
	  <point x="536" y="131" type="curve" smooth="yes"/>
	  <point x="428" y="131"/>
	  <point x="387" y="196"/>
	  <point x="387" y="317" type="curve" smooth="yes"/>
	  <point x="387" y="844" type="line"/>
	  <point x="650" y="844" type="line"/>
	  <point x="650" y="999" type="line"/>
	  <point x="387" y="999" type="line"/>
	  <point x="387" y="1276" type="line"/>
	  <point x="225" y="1276" type="line"/>
	  <point x="202" y="999" type="line"/>
	  <point x="46" y="988" type="line"/>
	  <point x="46" y="844" type="line"/>
	  <point x="193" y="844" type="line"/>
	</contour>
	<contour>
	  <point x="625" y="1122" type="line"/>
	  <point x="658" y="1439" type="line"/>
	  <point x="660" y="1560" type="line"/>
	  <point x="526" y="1560" type="line"/>
	  <point x="533" y="1122" type="line"/>
	</contour>
  </outline>
</glyph>
<glyph name="Utilde" format="1">
  <advance width="1320"/>
  <unicode hex="0168"/>
  <outline>
	<contour>
	  <point x="168" y="567" type="line"/>
	  <point x="168" y="132"/>
	  <point x="373" y="-25"/>
	  <point x="660" y="-25" type="curve" smooth="yes"/>
	  <point x="948" y="-25"/>
	  <point x="1152" y="132"/>
	  <point x="1152" y="567" type="curve" smooth="yes"/>
	  <point x="1152" y="1342" type="line"/>
	  <point x="965" y="1342" type="line"/>
	  <point x="965" y="558" type="line"/>
	  <point x="965" y="245"/>
	  <point x="833" y="145"/>
	  <point x="660" y="145" type="curve" smooth="yes"/>
	  <point x="490" y="145"/>
	  <point x="364" y="245"/>
	  <point x="364" y="558" type="curve" smooth="yes"/>
	  <point x="364" y="1342" type="line"/>
	  <point x="168" y="1342" type="line"/>
	</contour>
	<contour>
	  <point x="784" y="1453" type="curve" smooth="yes"/>
	  <point x="884" y="1453"/>
	  <point x="952" y="1548"/>
	  <point x="966" y="1685" type="curve"/>
	  <point x="861" y="1685" type="line"/>
	  <point x="850" y="1618"/>
	  <point x="819" y="1581"/>
	  <point x="779" y="1581" type="curve" smooth="yes"/>
	  <point x="706" y="1581"/>
	  <point x="644" y="1685"/>
	  <point x="535" y="1685" type="curve" smooth="yes"/>
	  <point x="435" y="1685"/>
	  <point x="368" y="1591"/>
	  <point x="355" y="1453" type="curve"/>
	  <point x="458" y="1453" type="line"/>
	  <point x="471" y="1523"/>
	  <point x="502" y="1557"/>
	  <point x="542" y="1557" type="curve" smooth="yes"/>
	  <point x="614" y="1557"/>
	  <point x="677" y="1453"/>
	</contour>
  </outline>
</glyph>
<glyph name="utilde" format="1">
  <advance width="1123"/>
  <unicode hex="0169"/>
  <outline>
	<contour>
	  <point x="148" y="369" type="line"/>
	  <point x="148" y="115"/>
	  <point x="242" y="-25"/>
	  <point x="455" y="-25" type="curve" smooth="yes"/>
	  <point x="593" y="-25"/>
	  <point x="690" y="46"/>
	  <point x="781" y="153" type="curve"/>
	  <point x="788" y="153" type="line"/>
	  <point x="803" y="0" type="line"/>
	  <point x="962" y="0" type="line"/>
	  <point x="962" y="999" type="line"/>
	  <point x="769" y="999" type="line"/>
	  <point x="769" y="299" type="line"/>
	  <point x="682" y="189"/>
	  <point x="615" y="141"/>
	  <point x="518" y="141" type="curve" smooth="yes"/>
	  <point x="394" y="141"/>
	  <point x="342" y="215"/>
	  <point x="342" y="394" type="curve" smooth="yes"/>
	  <point x="342" y="999" type="line"/>
	  <point x="148" y="999" type="line"/>
	</contour>
	<contour>
	  <point x="267" y="1185" type="curve"/>
	  <point x="374" y="1185" type="line"/>
	  <point x="385" y="1253"/>
	  <point x="409" y="1286"/>
	  <point x="447" y="1286" type="curve" smooth="yes"/>
	  <point x="515" y="1286"/>
	  <point x="578" y="1185"/>
	  <point x="682" y="1185" type="curve" smooth="yes"/>
	  <point x="786" y="1185"/>
	  <point x="844" y="1278"/>
	  <point x="859" y="1412" type="curve"/>
	  <point x="752" y="1412" type="line"/>
	  <point x="738" y="1343"/>
	  <point x="717" y="1310"/>
	  <point x="677" y="1310" type="curve" smooth="yes"/>
	  <point x="612" y="1310"/>
	  <point x="547" y="1412"/>
	  <point x="443" y="1412" type="curve" smooth="yes"/>
	  <point x="340" y="1412"/>
	  <point x="282" y="1319"/>
	</contour>
  </outline>
</glyph>
<glyph name="Umacron" format="1">
  <advance width="1320"/>
  <unicode hex="016A"/>
  <outline>
	<contour>
	  <point x="168" y="567" type="line"/>
	  <point x="168" y="132"/>
	  <point x="373" y="-25"/>
	  <point x="660" y="-25" type="curve" smooth="yes"/>
	  <point x="948" y="-25"/>
	  <point x="1152" y="132"/>
	  <point x="1152" y="567" type="curve" smooth="yes"/>
	  <point x="1152" y="1342" type="line"/>
	  <point x="965" y="1342" type="line"/>
	  <point x="965" y="558" type="line"/>
	  <point x="965" y="245"/>
	  <point x="833" y="145"/>
	  <point x="660" y="145" type="curve" smooth="yes"/>
	  <point x="490" y="145"/>
	  <point x="364" y="245"/>
	  <point x="364" y="558" type="curve" smooth="yes"/>
	  <point x="364" y="1342" type="line"/>
	  <point x="168" y="1342" type="line"/>
	</contour>
	<contour>
	  <point x="399" y="1490" type="line"/>
	  <point x="920" y="1490" type="line"/>
	  <point x="920" y="1620" type="line"/>
	  <point x="399" y="1620" type="line"/>
	</contour>
  </outline>
</glyph>
<glyph name="Ubreve" format="1">
  <advance width="1320"/>
  <unicode hex="016C"/>
  <outline>
	<contour>
	  <point x="168" y="567" type="line"/>
	  <point x="168" y="132"/>
	  <point x="373" y="-25"/>
	  <point x="660" y="-25" type="curve" smooth="yes"/>
	  <point x="948" y="-25"/>
	  <point x="1152" y="132"/>
	  <point x="1152" y="567" type="curve" smooth="yes"/>
	  <point x="1152" y="1342" type="line"/>
	  <point x="965" y="1342" type="line"/>
	  <point x="965" y="558" type="line"/>
	  <point x="965" y="245"/>
	  <point x="833" y="145"/>
	  <point x="660" y="145" type="curve" smooth="yes"/>
	  <point x="490" y="145"/>
	  <point x="364" y="245"/>
	  <point x="364" y="558" type="curve" smooth="yes"/>
	  <point x="364" y="1342" type="line"/>
	  <point x="168" y="1342" type="line"/>
	</contour>
	<contour>
	  <point x="660" y="1448" type="curve" smooth="yes"/>
	  <point x="826" y="1448"/>
	  <point x="904" y="1557"/>
	  <point x="916" y="1676" type="curve"/>
	  <point x="803" y="1676" type="line"/>
	  <point x="791" y="1614"/>
	  <point x="748" y="1554"/>
	  <point x="660" y="1554" type="curve" smooth="yes"/>
	  <point x="571" y="1554"/>
	  <point x="528" y="1614"/>
	  <point x="516" y="1676" type="curve"/>
	  <point x="402" y="1676" type="line"/>
	  <point x="418" y="1557"/>
	  <point x="493" y="1448"/>
	</contour>
  </outline>
</glyph>
<glyph name="ubreve" format="1">
  <advance width="1123"/>
  <unicode hex="016D"/>
  <outline>
	<contour>
	  <point x="148" y="369" type="line"/>
	  <point x="148" y="115"/>
	  <point x="242" y="-25"/>
	  <point x="455" y="-25" type="curve" smooth="yes"/>
	  <point x="593" y="-25"/>
	  <point x="690" y="46"/>
	  <point x="781" y="153" type="curve"/>
	  <point x="788" y="153" type="line"/>
	  <point x="803" y="0" type="line"/>
	  <point x="962" y="0" type="line"/>
	  <point x="962" y="999" type="line"/>
	  <point x="769" y="999" type="line"/>
	  <point x="769" y="299" type="line"/>
	  <point x="682" y="189"/>
	  <point x="615" y="141"/>
	  <point x="518" y="141" type="curve" smooth="yes"/>
	  <point x="394" y="141"/>
	  <point x="342" y="215"/>
	  <point x="342" y="394" type="curve" smooth="yes"/>
	  <point x="342" y="999" type="line"/>
	  <point x="148" y="999" type="line"/>
	</contour>
	<contour>
	  <point x="562" y="1178" type="curve" smooth="yes"/>
	  <point x="741" y="1178"/>
	  <point x="817" y="1316"/>
	  <point x="826" y="1442" type="curve"/>
	  <point x="711" y="1442" type="line"/>
	  <point x="699" y="1365"/>
	  <point x="653" y="1293"/>
	  <point x="562" y="1293" type="curve" smooth="yes"/>
	  <point x="472" y="1293"/>
	  <point x="425" y="1365"/>
	  <point x="415" y="1442" type="curve"/>
	  <point x="299" y="1442" type="line"/>
	  <point x="308" y="1316"/>
	  <point x="383" y="1178"/>
	</contour>
  </outline>
</glyph>
<glyph name="Uring" format="1">
  <advance width="1320"/>
  <unicode hex="016E"/>
  <outline>
	<contour>
	  <point x="168" y="567" type="line"/>
	  <point x="168" y="132"/>
	  <point x="373" y="-25"/>
	  <point x="660" y="-25" type="curve" smooth="yes"/>
	  <point x="948" y="-25"/>
	  <point x="1152" y="132"/>
	  <point x="1152" y="567" type="curve" smooth="yes"/>
	  <point x="1152" y="1342" type="line"/>
	  <point x="965" y="1342" type="line"/>
	  <point x="965" y="558" type="line"/>
	  <point x="965" y="245"/>
	  <point x="833" y="145"/>
	  <point x="660" y="145" type="curve" smooth="yes"/>
	  <point x="490" y="145"/>
	  <point x="364" y="245"/>
	  <point x="364" y="558" type="curve" smooth="yes"/>
	  <point x="364" y="1342" type="line"/>
	  <point x="168" y="1342" type="line"/>
	</contour>
	<contour>
	  <point x="660" y="1431" type="curve" smooth="yes"/>
	  <point x="773" y="1431"/>
	  <point x="859" y="1502"/>
	  <point x="859" y="1615" type="curve" smooth="yes"/>
	  <point x="859" y="1725"/>
	  <point x="773" y="1799"/>
	  <point x="660" y="1799" type="curve" smooth="yes"/>
	  <point x="545" y="1799"/>
	  <point x="462" y="1725"/>
	  <point x="462" y="1615" type="curve" smooth="yes"/>
	  <point x="462" y="1502"/>
	  <point x="545" y="1431"/>
	</contour>
	<contour>
	  <point x="660" y="1511" type="curve" smooth="yes"/>
	  <point x="608" y="1511"/>
	  <point x="564" y="1549"/>
	  <point x="564" y="1615" type="curve" smooth="yes"/>
	  <point x="564" y="1676"/>
	  <point x="608" y="1716"/>
	  <point x="660" y="1716" type="curve" smooth="yes"/>
	  <point x="712" y="1716"/>
	  <point x="754" y="1676"/>
	  <point x="754" y="1615" type="curve" smooth="yes"/>
	  <point x="754" y="1549"/>
	  <point x="712" y="1511"/>
	</contour>
  </outline>
</glyph>
<glyph name="uring" format="1">
  <advance width="1123"/>
  <unicode hex="016F"/>
  <outline>
	<contour>
	  <point x="148" y="369" type="line"/>
	  <point x="148" y="115"/>
	  <point x="242" y="-25"/>
	  <point x="455" y="-25" type="curve" smooth="yes"/>
	  <point x="593" y="-25"/>
	  <point x="690" y="46"/>
	  <point x="781" y="153" type="curve"/>
	  <point x="788" y="153" type="line"/>
	  <point x="803" y="0" type="line"/>
	  <point x="962" y="0" type="line"/>
	  <point x="962" y="999" type="line"/>
	  <point x="769" y="999" type="line"/>
	  <point x="769" y="299" type="line"/>
	  <point x="682" y="189"/>
	  <point x="615" y="141"/>
	  <point x="518" y="141" type="curve" smooth="yes"/>
	  <point x="394" y="141"/>
	  <point x="342" y="215"/>
	  <point x="342" y="394" type="curve" smooth="yes"/>
	  <point x="342" y="999" type="line"/>
	  <point x="148" y="999" type="line"/>
	</contour>
	<contour>
	  <point x="562" y="1112" type="curve" smooth="yes"/>
	  <point x="679" y="1112"/>
	  <point x="762" y="1189"/>
	  <point x="762" y="1306" type="curve" smooth="yes"/>
	  <point x="762" y="1421"/>
	  <point x="679" y="1498"/>
	  <point x="562" y="1498" type="curve" smooth="yes"/>
	  <point x="446" y="1498"/>
	  <point x="364" y="1421"/>
	  <point x="364" y="1306" type="curve" smooth="yes"/>
	  <point x="364" y="1189"/>
	  <point x="446" y="1112"/>
	</contour>
	<contour>
	  <point x="562" y="1195" type="curve" smooth="yes"/>
	  <point x="510" y="1195"/>
	  <point x="467" y="1239"/>
	  <point x="467" y="1306" type="curve" smooth="yes"/>
	  <point x="467" y="1372"/>
	  <point x="510" y="1416"/>
	  <point x="562" y="1416" type="curve" smooth="yes"/>
	  <point x="615" y="1416"/>
	  <point x="657" y="1372"/>
	  <point x="657" y="1306" type="curve" smooth="yes"/>
	  <point x="657" y="1239"/>
	  <point x="615" y="1195"/>
	</contour>
  </outline>
</glyph>
<glyph name="Ydieresis" format="1">
  <advance width="985"/>
  <unicode hex="0178"/>
  <outline>
	<contour>
	  <point x="395" y="0" type="line"/>
	  <point x="589" y="0" type="line"/>
	  <point x="589" y="512" type="line"/>
	  <point x="993" y="1342" type="line"/>
	  <point x="791" y="1342" type="line"/>
	  <point x="627" y="977" type="line"/>
	  <point x="587" y="877"/>
	  <point x="541" y="784"/>
	  <point x="497" y="683" type="curve"/>
	  <point x="489" y="683" type="line"/>
	  <point x="444" y="784"/>
	  <point x="404" y="877"/>
	  <point x="362" y="977" type="curve" smooth="yes"/>
	  <point x="200" y="1342" type="line"/>
	  <point x="-9" y="1342" type="line"/>
	  <point x="395" y="512" type="line"/>
	</contour>
	<contour>
	  <point x="310" y="1459" type="curve" smooth="yes"/>
	  <point x="372" y="1459"/>
	  <point x="419" y="1505"/>
	  <point x="419" y="1567" type="curve" smooth="yes"/>
	  <point x="419" y="1630"/>
	  <point x="372" y="1675"/>
	  <point x="310" y="1675" type="curve" smooth="yes"/>
	  <point x="248" y="1675"/>
	  <point x="202" y="1630"/>
	  <point x="202" y="1567" type="curve" smooth="yes"/>
	  <point x="202" y="1505"/>
	  <point x="248" y="1459"/>
	</contour>
	<contour>
	  <point x="674" y="1459" type="curve" smooth="yes"/>
	  <point x="736" y="1459"/>
	  <point x="783" y="1505"/>
	  <point x="783" y="1567" type="curve" smooth="yes"/>
	  <point x="783" y="1630"/>
	  <point x="736" y="1675"/>
	  <point x="674" y="1675" type="curve" smooth="yes"/>
	  <point x="610" y="1675"/>
	  <point x="566" y="1630"/>
	  <point x="566" y="1567" type="curve" smooth="yes"/>
	  <point x="566" y="1505"/>
	  <point x="610" y="1459"/>
	</contour>
  </outline>
</glyph>
<glyph name="Zacute" format="1">
  <advance width="1096"/>
  <unicode hex="0179"/>
  <outline>
	<contour>
	  <point x="83" y="0" type="line"/>
	  <point x="1017" y="0" type="line"/>
	  <point x="1017" y="165" type="line"/>
	  <point x="324" y="165" type="line"/>
	  <point x="1011" y="1227" type="line"/>
	  <point x="1011" y="1342" type="line"/>
	  <point x="146" y="1342" type="line"/>
	  <point x="146" y="1178" type="line"/>
	  <point x="771" y="1178" type="line"/>
	  <point x="83" y="117" type="line"/>
	</contour>
	<contour>
	  <point x="851" y="1676" type="line"/>
	  <point x="635" y="1676" type="line"/>
	  <point x="458" y="1445" type="line"/>
	  <point x="617" y="1445" type="line"/>
	</contour>
  </outline>
</glyph>
<glyph name="Zdotaccent" format="1">
  <advance width="1096"/>
  <unicode hex="017B"/>
  <outline>
	<contour>
	  <point x="83" y="0" type="line"/>
	  <point x="1017" y="0" type="line"/>
	  <point x="1017" y="165" type="line"/>
	  <point x="324" y="165" type="line"/>
	  <point x="1011" y="1227" type="line"/>
	  <point x="1011" y="1342" type="line"/>
	  <point x="146" y="1342" type="line"/>
	  <point x="146" y="1178" type="line"/>
	  <point x="771" y="1178" type="line"/>
	  <point x="83" y="117" type="line"/>
	</contour>
	<contour>
	  <point x="571" y="1457" type="curve" smooth="yes"/>
	  <point x="643" y="1457"/>
	  <point x="698" y="1506"/>
	  <point x="698" y="1577" type="curve" smooth="yes"/>
	  <point x="698" y="1645"/>
	  <point x="643" y="1694"/>
	  <point x="571" y="1694" type="curve" smooth="yes"/>
	  <point x="499" y="1694"/>
	  <point x="444" y="1645"/>
	  <point x="444" y="1577" type="curve" smooth="yes"/>
	  <point x="444" y="1506"/>
	  <point x="499" y="1457"/>
	</contour>
  </outline>
</glyph>
<glyph name="zdotaccent" format="1">
  <advance width="883"/>
  <unicode hex="017C"/>
  <outline>
	<contour>
	  <point x="66" y="0" type="line"/>
	  <point x="831" y="0" type="line"/>
	  <point x="831" y="155" type="line"/>
	  <point x="308" y="155" type="line"/>
	  <point x="815" y="896" type="line"/>
	  <point x="815" y="999" type="line"/>
	  <point x="122" y="999" type="line"/>
	  <point x="122" y="844" type="line"/>
	  <point x="573" y="844" type="line"/>
	  <point x="66" y="103" type="line"/>
	</contour>
	<contour>
	  <point x="475" y="1194" type="curve" smooth="yes"/>
	  <point x="544" y="1194"/>
	  <point x="596" y="1242"/>
	  <point x="596" y="1313" type="curve" smooth="yes"/>
	  <point x="596" y="1382"/>
	  <point x="544" y="1432"/>
	  <point x="475" y="1432" type="curve" smooth="yes"/>
	  <point x="404" y="1432"/>
	  <point x="354" y="1382"/>
	  <point x="354" y="1313" type="curve" smooth="yes"/>
	  <point x="354" y="1242"/>
	  <point x="404" y="1194"/>
	</contour>
  </outline>
</glyph>
<glyph name="Zcaron" format="1">
  <advance width="1096"/>
  <unicode hex="017D"/>
  <outline>
	<contour>
	  <point x="83" y="0" type="line"/>
	  <point x="1017" y="0" type="line"/>
	  <point x="1017" y="165" type="line"/>
	  <point x="324" y="165" type="line"/>
	  <point x="1011" y="1227" type="line"/>
	  <point x="1011" y="1342" type="line"/>
	  <point x="146" y="1342" type="line"/>
	  <point x="146" y="1178" type="line"/>
	  <point x="771" y="1178" type="line"/>
	  <point x="83" y="117" type="line"/>
	</contour>
	<contour>
	  <point x="708" y="1676" type="line"/>
	  <point x="575" y="1540" type="line"/>
	  <point x="566" y="1540" type="line"/>
	  <point x="435" y="1676" type="line"/>
	  <point x="283" y="1676" type="line"/>
	  <point x="479" y="1445" type="line"/>
	  <point x="665" y="1445" type="line"/>
	  <point x="862" y="1676" type="line"/>
	</contour>
  </outline>
</glyph>
<glyph name="zcaron" format="1">
  <advance width="883"/>
  <unicode hex="017E"/>
  <outline>
	<contour>
	  <point x="66" y="0" type="line"/>
	  <point x="831" y="0" type="line"/>
	  <point x="831" y="155" type="line"/>
	  <point x="308" y="155" type="line"/>
	  <point x="815" y="896" type="line"/>
	  <point x="815" y="999" type="line"/>
	  <point x="122" y="999" type="line"/>
	  <point x="122" y="844" type="line"/>
	  <point x="573" y="844" type="line"/>
	  <point x="66" y="103" type="line"/>
	</contour>
	<contour>
	  <point x="396" y="1174" type="line"/>
	  <point x="553" y="1174" type="line"/>
	  <point x="747" y="1466" type="line"/>
	  <point x="611" y="1466" type="line"/>
	  <point x="479" y="1283" type="line"/>
	  <point x="471" y="1283" type="line"/>
	  <point x="339" y="1466" type="line"/>
	  <point x="202" y="1466" type="line"/>
	</contour>
  </outline>
</glyph>
